<svg width="84" height="32" viewBox="0 0 84 32" fill="none" xmlns="http://www.w3.org/2000/svg">
<path fill-rule="evenodd" clip-rule="evenodd" d="M17.0037 16.4741C17.9483 16.4741 18.4207 16.8296 18.4207 17.5407C18.4207 17.8963 18.3026 18.1333 18.0664 18.3704C17.8303 18.6074 17.476 18.6074 17.0037 18.6074H15.941V16.4741H17.0037V16.4741ZM17.9483 14.9333C18.1845 14.8148 18.3026 14.4593 18.3026 14.2222C18.3026 13.9852 18.1845 13.7481 17.9483 13.5111C17.7122 13.3926 17.3579 13.2741 16.8856 13.2741H15.941V15.0519H16.8856C17.3579 15.1704 17.7122 15.0519 17.9483 14.9333ZM0 5.80741C7.67528 5.80741 22.4354 5.0963 32 0V26.1926C24.3247 26.1926 9.56458 26.9037 0 32V5.80741V5.80741ZM10.9816 20.0296H12.6347V11.8519C12.6347 11.8519 10.5092 11.3778 9.80074 13.2741C9.21033 14.9333 8.26568 18.1333 8.26568 18.1333C8.26568 18.1333 7.20295 14.8148 6.73063 13.1556C6.14022 11.3778 4.01476 11.8519 4.01476 11.8519V20.0296H5.54982V16.237C5.54982 15.763 5.54982 15.1704 5.43173 13.8667L7.43912 20.0296H8.97417L11.0996 13.8667C11.0996 14.9333 10.9816 15.4074 10.9816 15.6444C10.9816 15.8815 10.9816 16.1185 10.9816 16.237V20.0296V20.0296ZM17.2399 20.0296C18.1845 20.0296 18.893 19.7926 19.3653 19.437C19.9557 19.0815 20.1919 18.3704 20.1919 17.6593C20.1919 17.1852 20.0738 16.8296 19.8376 16.3556C19.6015 16 19.2472 15.8815 18.7749 15.763C19.1292 15.763 19.4834 15.5259 19.7196 15.1704C19.9557 14.8148 20.0738 14.3407 20.0738 13.9852C20.0738 13.2741 19.8376 12.8 19.2472 12.4444C18.7749 12.0889 17.9483 11.9704 16.7675 11.9704H14.2878V20.1481L17.2399 20.0296ZM27.9852 19.0815C28.6937 18.3704 28.9299 17.3037 28.9299 16C28.9299 14.6963 28.5756 13.6296 27.9852 12.9185C27.2768 12.2074 26.3321 11.8519 25.1513 11.8519C23.8524 11.8519 22.9078 12.2074 22.3173 12.9185C21.6089 13.6296 21.2546 14.6963 21.3727 16C21.3727 17.3037 21.7269 18.3704 22.3173 19.0815C23.0258 19.7926 23.9705 20.1481 25.1513 20.1481C26.3321 20.1481 27.2768 19.7926 27.9852 19.0815ZM25.0332 13.2741C24.3247 13.2741 23.8524 13.5111 23.4982 13.9852C23.1439 14.4593 23.0258 15.1704 23.0258 16C23.0258 16.9481 23.1439 17.5407 23.4982 18.0148C23.8524 18.4889 24.3247 18.7259 25.0332 18.7259C26.4502 18.7259 27.0406 17.7778 27.0406 16C27.1587 14.1037 26.4502 13.2741 25.0332 13.2741Z" fill="#211551"/>
<path d="M81.6013 14.8151C81.6013 14.2225 82.0754 13.7484 82.668 13.7484C82.905 13.7484 83.0235 13.7484 83.2606 13.8669C83.3791 13.9854 83.6161 14.1039 83.6161 14.2225C83.7346 14.341 83.7346 14.578 83.7346 14.8151C83.7346 15.1706 83.4976 15.5262 83.1421 15.7632C82.7865 16.0002 82.4309 16.0002 82.0754 15.7632C81.9569 15.6447 81.7198 15.5262 81.7198 15.4077C81.6013 15.1706 81.6013 14.9336 81.6013 14.8151ZM81.7198 14.8151C81.7198 15.1706 81.9569 15.4077 82.1939 15.6447C82.3124 15.7632 82.5495 15.7632 82.668 15.7632C82.7865 15.7632 83.0235 15.7632 83.1421 15.6447C83.2606 15.5262 83.3791 15.4077 83.4976 15.2891C83.6161 15.0521 83.6161 14.6965 83.4976 14.341C83.3791 14.2225 83.2606 14.1039 83.1421 13.9854C82.905 13.8669 82.5495 13.8669 82.1939 13.9854C82.0754 14.1039 81.9569 14.2225 81.8383 14.341C81.7198 14.4595 81.7198 14.578 81.7198 14.8151ZM83.1421 14.4595C83.1421 14.578 83.142 14.578 83.0235 14.6965C83.0235 14.8151 82.905 14.8151 82.905 14.8151L83.2606 15.4077H83.0235L82.668 14.9336H82.4309V15.4077H82.1939V14.104H82.5495C82.668 14.104 82.7865 14.1039 82.905 14.2225C83.0235 14.341 83.1421 14.4595 83.1421 14.4595ZM82.4309 14.6965H82.5495C82.668 14.6965 82.668 14.6965 82.7865 14.578L82.905 14.4595C82.905 14.4595 82.905 14.341 82.7865 14.341C82.7865 14.341 82.668 14.341 82.5495 14.341H82.4309V14.6965ZM37.9865 20.3854C37.1569 20.3854 36.5643 20.1484 36.0902 19.5558H35.9717C35.9717 20.1484 36.0902 20.3854 36.0902 20.5039V23.1114H34.668V13.7484H35.7346C35.7346 13.8669 35.8532 14.1039 35.9717 14.578H36.0902C36.5643 13.8669 37.1569 13.6299 37.9865 13.6299C38.6976 13.6299 39.4087 13.8669 39.8828 14.4595C40.3569 15.0521 40.5939 15.8817 40.5939 16.9484C40.5939 18.0151 40.3569 18.8447 39.8828 19.4373C39.5272 20.0299 38.8161 20.3854 37.9865 20.3854ZM37.7494 14.8151C37.1569 14.8151 36.8013 14.9336 36.5643 15.2891C36.3272 15.6447 36.2087 16.1188 36.2087 16.8299V17.0669C36.2087 17.8965 36.3272 18.3706 36.5643 18.7262C36.8013 19.0817 37.2754 19.2002 37.7494 19.2002C38.2235 19.2002 38.5791 18.9632 38.8161 18.6077C39.0532 18.2521 39.1717 17.6595 39.1717 16.9484C39.1717 16.2373 39.0532 15.6447 38.8161 15.2891C38.5791 14.9336 38.105 14.8151 37.7494 14.8151ZM45.8087 20.2669L45.5717 19.3188C45.3346 19.6743 44.9791 19.9114 44.6235 20.1484C44.268 20.2669 43.7939 20.3854 43.4383 20.3854C42.8457 20.3854 42.3717 20.2669 41.8976 19.9114C41.542 19.5558 41.305 19.0817 41.305 18.4891C41.305 17.8965 41.542 17.3039 42.0161 16.9484C42.4902 16.5928 43.3198 16.4743 44.268 16.3558H45.3346V16.0002C45.3346 15.6447 45.2161 15.2891 45.0976 15.0521C44.8606 14.8151 44.6235 14.6965 44.1495 14.6965C43.7939 14.6965 43.5569 14.6965 43.2013 14.8151C42.8457 14.9336 42.6087 15.0521 42.3717 15.1706L41.8976 14.2225C42.2532 13.9854 42.6087 13.8669 43.0828 13.8669C43.4383 13.7484 43.9124 13.7484 44.268 13.7484C45.0976 13.7484 45.6902 13.9854 46.1643 14.341C46.6383 14.6965 46.7569 15.2891 46.7569 16.0002V20.3854L45.8087 20.2669ZM43.7939 19.3188C44.268 19.3188 44.6235 19.2002 44.9791 18.8447C45.3346 18.4891 45.4532 18.1336 45.4532 17.6595V17.0669H44.6235C44.0309 17.0669 43.5569 17.1854 43.2013 17.4225C42.9643 17.6595 42.7272 18.0151 42.7272 18.2521C42.7272 18.4891 42.8457 18.7262 42.9643 18.9632C43.2013 19.2002 43.5569 19.3188 43.7939 19.3188ZM51.0235 13.6299C50.668 13.6299 50.1939 13.7484 49.9569 13.9854C49.6013 14.2225 49.3643 14.578 49.1272 14.9336H49.0087L48.8902 13.7484H47.8235V20.2669H49.2457V16.8299C49.2457 16.3558 49.3643 15.7632 49.7198 15.4077C50.0754 15.0521 50.5495 14.8151 51.0235 14.8151C51.2606 14.8151 51.3791 14.8151 51.6161 14.9336L51.7346 13.6299C51.4976 13.6299 51.3791 13.6299 51.0235 13.6299ZM55.6457 19.2002C55.4087 19.2002 55.1717 19.0817 55.0532 18.9632C54.8161 18.7262 54.8161 18.4891 54.8161 18.2521V14.8151H56.7124V13.7484H54.8161V12.3262H53.9865L53.5124 13.7484L52.5643 14.2225V14.8151H53.3939V18.2521C53.3939 19.6743 53.9865 20.2669 55.2902 20.2669C55.5272 20.2669 55.7643 20.2669 56.0013 20.1484C56.2383 20.1484 56.3569 20.0299 56.5939 20.0299V18.9632C56.2383 19.2002 55.8828 19.2002 55.6457 19.2002ZM63.3495 20.2669V16.1188C63.3495 14.578 62.5198 13.7484 60.9791 13.7484C60.6235 13.7484 60.1494 13.8669 59.7939 13.9854C59.4383 14.1039 59.2013 14.341 58.9643 14.6965H58.8457L58.6087 13.8669H57.542V20.3854H59.0828V17.1854C59.0828 16.3558 59.2013 15.7632 59.4383 15.4077C59.6754 15.0521 60.1495 14.9336 60.742 14.9336C61.2161 14.9336 61.4532 15.0521 61.6902 15.2891C61.9272 15.5262 62.0457 15.8817 62.0457 16.3558V20.2669H63.3495ZM67.3791 20.3854C66.4309 20.3854 65.6013 20.1484 65.0087 19.5558C64.4161 18.9632 64.1791 18.1336 64.1791 17.1854C64.1791 16.1188 64.4161 15.2891 65.0087 14.6965C65.4828 14.104 66.3124 13.7484 67.142 13.7484C67.9717 13.7484 68.6828 13.9854 69.1569 14.578C69.6309 15.0521 69.868 15.7632 69.868 16.7114V17.4225H65.6013C65.6013 18.0151 65.8383 18.4891 66.0754 18.8447C66.4309 19.2002 66.7865 19.3188 67.3791 19.3188C67.7346 19.3188 68.0902 19.3188 68.4458 19.2002C68.8013 19.0817 69.1569 18.9632 69.5124 18.8447V19.9114C69.1569 20.0299 68.8013 20.1484 68.4458 20.2669C68.2087 20.3854 67.8532 20.3854 67.3791 20.3854ZM67.142 14.6965C66.7865 14.6965 66.3124 14.8151 66.0754 15.0521C65.8383 15.4077 65.6013 15.7632 65.6013 16.2373H68.5643C68.5643 15.7632 68.4457 15.2891 68.2087 15.0521C67.9717 14.8151 67.4976 14.6965 67.142 14.6965ZM74.1346 13.6299C73.7791 13.6299 73.305 13.7484 73.068 13.9854C72.7124 14.2225 72.4754 14.578 72.2383 14.9336H72.1198L72.0013 13.7484H70.9346V20.2669H72.3569V16.8299C72.3569 16.3558 72.4754 15.7632 72.8309 15.4077C73.1865 15.0521 73.6606 14.8151 74.1346 14.8151C74.3717 14.8151 74.4902 14.8151 74.7272 14.9336L74.8458 13.6299C74.6087 13.6299 74.3717 13.6299 74.1346 13.6299ZM80.0606 18.3706C80.0606 17.778 79.8235 17.3039 79.3495 16.9484C78.9939 16.7114 78.6383 16.4743 78.1643 16.3558C77.6902 16.2373 77.3346 16.0002 76.9791 15.7632C76.8606 15.6447 76.742 15.4077 76.742 15.2891C76.742 14.9336 77.0976 14.6965 77.8087 14.6965C78.4013 14.6965 78.9939 14.9336 79.5865 15.1706L80.0606 14.104C79.3494 13.7484 78.6383 13.6299 77.9272 13.6299C77.2161 13.6299 76.505 13.7484 76.1495 14.104C75.6754 14.341 75.4383 14.9336 75.4383 15.4077C75.4383 15.7632 75.5569 16.2373 75.7939 16.4743C76.0309 16.7114 76.505 17.0669 77.3346 17.304C77.6902 17.4225 77.9272 17.541 78.2828 17.6595C78.4013 17.778 78.6383 17.8965 78.7569 18.0151C78.8754 18.1336 78.8754 18.2521 78.8754 18.3706C78.8754 18.8447 78.4013 19.0817 77.5717 19.0817C76.8606 19.0817 76.1495 18.8447 75.4383 18.6077V19.7928C75.9124 20.0299 76.6235 20.1484 77.4532 20.1484C78.2828 20.1484 78.9939 20.0299 79.468 19.6743C79.8235 19.5558 80.0606 18.9632 80.0606 18.3706Z" fill="#211551"/>
</svg>
