<svg width="222" height="222" viewBox="0 0 222 222" fill="none" xmlns="http://www.w3.org/2000/svg">
<g filter="url(#filter0_d_705_6)">
<g filter="url(#filter1_ddd_705_6)">
<rect x="18" y="17" width="186" height="186" rx="4" fill="#FAFAFA"/>
</g>
<g filter="url(#filter2_d_705_6)">
<mask id="path-2-outside-1_705_6" maskUnits="userSpaceOnUse" x="40" y="54" width="141" height="112" fill="black">
<rect fill="white" x="40" y="54" width="141" height="112"/>
<path d="M152.395 96.1496L150.628 99.2323C149.981 100.375 148.601 100.849 147.373 100.396C144.829 99.4478 142.501 98.0898 140.453 96.3868C139.461 95.5676 139.203 94.1233 139.849 93.0023L141.617 89.9197C140.129 88.1951 138.965 86.1903 138.189 84.013H134.632C133.339 84.013 132.218 83.0861 132.002 81.7927C131.571 79.2058 131.55 76.4897 132.002 73.795C132.218 72.5016 133.339 71.5531 134.632 71.5531H138.189C138.965 69.3758 140.129 67.371 141.617 65.6465L139.849 62.5638C139.203 61.4429 139.44 59.9986 140.453 59.1794C142.501 57.4764 144.85 56.1183 147.373 55.1698C148.601 54.7171 149.981 55.1913 150.628 56.3339L152.395 59.4165C154.659 59.0069 156.965 59.0069 159.229 59.4165L160.997 56.3339C161.643 55.1913 163.023 54.7171 164.252 55.1698C166.795 56.1183 169.124 57.4764 171.172 59.1794C172.163 59.9986 172.422 61.4429 171.775 62.5638L170.007 65.6465C171.495 67.371 172.659 69.3758 173.435 71.5531H176.992C178.285 71.5531 179.406 72.4801 179.622 73.7735C180.053 76.3603 180.075 79.0765 179.622 81.7711C179.406 83.0645 178.285 84.013 176.992 84.013H173.435C172.659 86.1903 171.495 88.1951 170.007 89.9197L171.775 93.0023C172.422 94.1233 172.185 95.5676 171.172 96.3868C169.124 98.0898 166.774 99.4478 164.252 100.396C163.023 100.849 161.643 100.375 160.997 99.2323L159.229 96.1496C156.987 96.5592 154.659 96.5592 152.395 96.1496V96.1496ZM150.132 83.4741C158.431 89.855 167.895 80.3915 161.514 72.092C153.215 65.6896 143.751 75.1747 150.132 83.4741V83.4741ZM125.277 116.65L132.541 120.272C134.719 121.522 135.667 124.174 134.805 126.545C132.886 131.762 129.114 136.547 125.622 140.729C124.026 142.648 121.267 143.122 119.09 141.872L112.817 138.25C109.368 141.204 105.358 143.553 100.982 145.084V152.327C100.982 154.828 99.1927 156.983 96.7352 157.415C91.4322 158.32 85.8705 158.363 80.3735 157.415C77.8944 156.983 76.0621 154.849 76.0621 152.327V145.084C71.686 143.532 67.6764 141.204 64.2273 138.25L57.9542 141.85C55.7985 143.101 53.0176 142.627 51.4224 140.708C47.9302 136.526 44.244 131.74 42.3254 126.545C41.4631 124.195 42.4116 121.544 44.5889 120.272L51.7673 116.65C50.9266 112.145 50.9266 107.51 51.7673 102.983L44.5889 99.3401C42.4116 98.0898 41.4415 95.4383 42.3254 93.0885C44.244 87.8717 47.9302 83.0861 51.4224 78.904C53.0176 76.9855 55.7769 76.5112 57.9542 77.7615L64.2273 81.3831C67.6764 78.4298 71.686 76.0801 76.0621 74.5495V67.2848C76.0621 64.8058 77.8297 62.6501 80.2872 62.2189C85.5903 61.3135 91.1735 61.2704 96.6706 62.1974C99.1496 62.6285 100.982 64.7626 100.982 67.2848V74.528C105.358 76.0801 109.368 78.4082 112.817 81.3615L119.09 77.74C121.246 76.4897 124.026 76.9639 125.622 78.8825C129.114 83.0645 132.779 87.8502 134.697 93.067C135.559 95.4167 134.719 98.0682 132.541 99.3401L125.277 102.962C126.117 107.489 126.117 112.123 125.277 116.65V116.65ZM99.9257 121.199C112.687 104.6 93.7388 85.6514 77.1399 98.4131C64.3782 115.012 83.3268 133.961 99.9257 121.199ZM152.395 160.583L150.628 163.666C149.981 164.809 148.601 165.283 147.373 164.83C144.829 163.882 142.501 162.524 140.453 160.821C139.461 160.001 139.203 158.557 139.849 157.436L141.617 154.354C140.129 152.629 138.965 150.624 138.189 148.447H134.632C133.339 148.447 132.218 147.52 132.002 146.227C131.571 143.64 131.55 140.924 132.002 138.229C132.218 136.935 133.339 135.987 134.632 135.987H138.189C138.965 133.81 140.129 131.805 141.617 130.08L139.849 126.998C139.203 125.877 139.44 124.432 140.453 123.613C142.501 121.91 144.85 120.552 147.373 119.604C148.601 119.151 149.981 119.625 150.628 120.768L152.395 123.85C154.659 123.441 156.965 123.441 159.229 123.85L160.997 120.768C161.643 119.625 163.023 119.151 164.252 119.604C166.795 120.552 169.124 121.91 171.172 123.613C172.163 124.432 172.422 125.877 171.775 126.998L170.007 130.08C171.495 131.805 172.659 133.81 173.435 135.987H176.992C178.285 135.987 179.406 136.914 179.622 138.207C180.053 140.794 180.075 143.51 179.622 146.205C179.406 147.498 178.285 148.447 176.992 148.447H173.435C172.659 150.624 171.495 152.629 170.007 154.354L171.775 157.436C172.422 158.557 172.185 160.001 171.172 160.821C169.124 162.524 166.774 163.882 164.252 164.83C163.023 165.283 161.643 164.809 160.997 163.666L159.229 160.583C156.987 160.993 154.659 160.993 152.395 160.583ZM150.132 147.886C158.431 154.267 167.895 144.804 161.514 136.504C153.215 130.123 143.751 139.587 150.132 147.886V147.886Z"/>
</mask>
<path d="M152.395 96.1496L150.628 99.2323C149.981 100.375 148.601 100.849 147.373 100.396C144.829 99.4478 142.501 98.0898 140.453 96.3868C139.461 95.5676 139.203 94.1233 139.849 93.0023L141.617 89.9197C140.129 88.1951 138.965 86.1903 138.189 84.013H134.632C133.339 84.013 132.218 83.0861 132.002 81.7927C131.571 79.2058 131.55 76.4897 132.002 73.795C132.218 72.5016 133.339 71.5531 134.632 71.5531H138.189C138.965 69.3758 140.129 67.371 141.617 65.6465L139.849 62.5638C139.203 61.4429 139.44 59.9986 140.453 59.1794C142.501 57.4764 144.85 56.1183 147.373 55.1698C148.601 54.7171 149.981 55.1913 150.628 56.3339L152.395 59.4165C154.659 59.0069 156.965 59.0069 159.229 59.4165L160.997 56.3339C161.643 55.1913 163.023 54.7171 164.252 55.1698C166.795 56.1183 169.124 57.4764 171.172 59.1794C172.163 59.9986 172.422 61.4429 171.775 62.5638L170.007 65.6465C171.495 67.371 172.659 69.3758 173.435 71.5531H176.992C178.285 71.5531 179.406 72.4801 179.622 73.7735C180.053 76.3603 180.075 79.0765 179.622 81.7711C179.406 83.0645 178.285 84.013 176.992 84.013H173.435C172.659 86.1903 171.495 88.1951 170.007 89.9197L171.775 93.0023C172.422 94.1233 172.185 95.5676 171.172 96.3868C169.124 98.0898 166.774 99.4478 164.252 100.396C163.023 100.849 161.643 100.375 160.997 99.2323L159.229 96.1496C156.987 96.5592 154.659 96.5592 152.395 96.1496V96.1496ZM150.132 83.4741C158.431 89.855 167.895 80.3915 161.514 72.092C153.215 65.6896 143.751 75.1747 150.132 83.4741V83.4741ZM125.277 116.65L132.541 120.272C134.719 121.522 135.667 124.174 134.805 126.545C132.886 131.762 129.114 136.547 125.622 140.729C124.026 142.648 121.267 143.122 119.09 141.872L112.817 138.25C109.368 141.204 105.358 143.553 100.982 145.084V152.327C100.982 154.828 99.1927 156.983 96.7352 157.415C91.4322 158.32 85.8705 158.363 80.3735 157.415C77.8944 156.983 76.0621 154.849 76.0621 152.327V145.084C71.686 143.532 67.6764 141.204 64.2273 138.25L57.9542 141.85C55.7985 143.101 53.0176 142.627 51.4224 140.708C47.9302 136.526 44.244 131.74 42.3254 126.545C41.4631 124.195 42.4116 121.544 44.5889 120.272L51.7673 116.65C50.9266 112.145 50.9266 107.51 51.7673 102.983L44.5889 99.3401C42.4116 98.0898 41.4415 95.4383 42.3254 93.0885C44.244 87.8717 47.9302 83.0861 51.4224 78.904C53.0176 76.9855 55.7769 76.5112 57.9542 77.7615L64.2273 81.3831C67.6764 78.4298 71.686 76.0801 76.0621 74.5495V67.2848C76.0621 64.8058 77.8297 62.6501 80.2872 62.2189C85.5903 61.3135 91.1735 61.2704 96.6706 62.1974C99.1496 62.6285 100.982 64.7626 100.982 67.2848V74.528C105.358 76.0801 109.368 78.4082 112.817 81.3615L119.09 77.74C121.246 76.4897 124.026 76.9639 125.622 78.8825C129.114 83.0645 132.779 87.8502 134.697 93.067C135.559 95.4167 134.719 98.0682 132.541 99.3401L125.277 102.962C126.117 107.489 126.117 112.123 125.277 116.65V116.65ZM99.9257 121.199C112.687 104.6 93.7388 85.6514 77.1399 98.4131C64.3782 115.012 83.3268 133.961 99.9257 121.199ZM152.395 160.583L150.628 163.666C149.981 164.809 148.601 165.283 147.373 164.83C144.829 163.882 142.501 162.524 140.453 160.821C139.461 160.001 139.203 158.557 139.849 157.436L141.617 154.354C140.129 152.629 138.965 150.624 138.189 148.447H134.632C133.339 148.447 132.218 147.52 132.002 146.227C131.571 143.64 131.55 140.924 132.002 138.229C132.218 136.935 133.339 135.987 134.632 135.987H138.189C138.965 133.81 140.129 131.805 141.617 130.08L139.849 126.998C139.203 125.877 139.44 124.432 140.453 123.613C142.501 121.91 144.85 120.552 147.373 119.604C148.601 119.151 149.981 119.625 150.628 120.768L152.395 123.85C154.659 123.441 156.965 123.441 159.229 123.85L160.997 120.768C161.643 119.625 163.023 119.151 164.252 119.604C166.795 120.552 169.124 121.91 171.172 123.613C172.163 124.432 172.422 125.877 171.775 126.998L170.007 130.08C171.495 131.805 172.659 133.81 173.435 135.987H176.992C178.285 135.987 179.406 136.914 179.622 138.207C180.053 140.794 180.075 143.51 179.622 146.205C179.406 147.498 178.285 148.447 176.992 148.447H173.435C172.659 150.624 171.495 152.629 170.007 154.354L171.775 157.436C172.422 158.557 172.185 160.001 171.172 160.821C169.124 162.524 166.774 163.882 164.252 164.83C163.023 165.283 161.643 164.809 160.997 163.666L159.229 160.583C156.987 160.993 154.659 160.993 152.395 160.583ZM150.132 147.886C158.431 154.267 167.895 144.804 161.514 136.504C153.215 130.123 143.751 139.587 150.132 147.886V147.886Z" fill="#6855B4" fill-opacity="0.3"/>
<path d="M152.395 96.1496L150.628 99.2323C149.981 100.375 148.601 100.849 147.373 100.396C144.829 99.4478 142.501 98.0898 140.453 96.3868C139.461 95.5676 139.203 94.1233 139.849 93.0023L141.617 89.9197C140.129 88.1951 138.965 86.1903 138.189 84.013H134.632C133.339 84.013 132.218 83.0861 132.002 81.7927C131.571 79.2058 131.55 76.4897 132.002 73.795C132.218 72.5016 133.339 71.5531 134.632 71.5531H138.189C138.965 69.3758 140.129 67.371 141.617 65.6465L139.849 62.5638C139.203 61.4429 139.44 59.9986 140.453 59.1794C142.501 57.4764 144.85 56.1183 147.373 55.1698C148.601 54.7171 149.981 55.1913 150.628 56.3339L152.395 59.4165C154.659 59.0069 156.965 59.0069 159.229 59.4165L160.997 56.3339C161.643 55.1913 163.023 54.7171 164.252 55.1698C166.795 56.1183 169.124 57.4764 171.172 59.1794C172.163 59.9986 172.422 61.4429 171.775 62.5638L170.007 65.6465C171.495 67.371 172.659 69.3758 173.435 71.5531H176.992C178.285 71.5531 179.406 72.4801 179.622 73.7735C180.053 76.3603 180.075 79.0765 179.622 81.7711C179.406 83.0645 178.285 84.013 176.992 84.013H173.435C172.659 86.1903 171.495 88.1951 170.007 89.9197L171.775 93.0023C172.422 94.1233 172.185 95.5676 171.172 96.3868C169.124 98.0898 166.774 99.4478 164.252 100.396C163.023 100.849 161.643 100.375 160.997 99.2323L159.229 96.1496C156.987 96.5592 154.659 96.5592 152.395 96.1496V96.1496ZM150.132 83.4741C158.431 89.855 167.895 80.3915 161.514 72.092C153.215 65.6896 143.751 75.1747 150.132 83.4741V83.4741ZM125.277 116.65L132.541 120.272C134.719 121.522 135.667 124.174 134.805 126.545C132.886 131.762 129.114 136.547 125.622 140.729C124.026 142.648 121.267 143.122 119.09 141.872L112.817 138.25C109.368 141.204 105.358 143.553 100.982 145.084V152.327C100.982 154.828 99.1927 156.983 96.7352 157.415C91.4322 158.32 85.8705 158.363 80.3735 157.415C77.8944 156.983 76.0621 154.849 76.0621 152.327V145.084C71.686 143.532 67.6764 141.204 64.2273 138.25L57.9542 141.85C55.7985 143.101 53.0176 142.627 51.4224 140.708C47.9302 136.526 44.244 131.74 42.3254 126.545C41.4631 124.195 42.4116 121.544 44.5889 120.272L51.7673 116.65C50.9266 112.145 50.9266 107.51 51.7673 102.983L44.5889 99.3401C42.4116 98.0898 41.4415 95.4383 42.3254 93.0885C44.244 87.8717 47.9302 83.0861 51.4224 78.904C53.0176 76.9855 55.7769 76.5112 57.9542 77.7615L64.2273 81.3831C67.6764 78.4298 71.686 76.0801 76.0621 74.5495V67.2848C76.0621 64.8058 77.8297 62.6501 80.2872 62.2189C85.5903 61.3135 91.1735 61.2704 96.6706 62.1974C99.1496 62.6285 100.982 64.7626 100.982 67.2848V74.528C105.358 76.0801 109.368 78.4082 112.817 81.3615L119.09 77.74C121.246 76.4897 124.026 76.9639 125.622 78.8825C129.114 83.0645 132.779 87.8502 134.697 93.067C135.559 95.4167 134.719 98.0682 132.541 99.3401L125.277 102.962C126.117 107.489 126.117 112.123 125.277 116.65V116.65ZM99.9257 121.199C112.687 104.6 93.7388 85.6514 77.1399 98.4131C64.3782 115.012 83.3268 133.961 99.9257 121.199ZM152.395 160.583L150.628 163.666C149.981 164.809 148.601 165.283 147.373 164.83C144.829 163.882 142.501 162.524 140.453 160.821C139.461 160.001 139.203 158.557 139.849 157.436L141.617 154.354C140.129 152.629 138.965 150.624 138.189 148.447H134.632C133.339 148.447 132.218 147.52 132.002 146.227C131.571 143.64 131.55 140.924 132.002 138.229C132.218 136.935 133.339 135.987 134.632 135.987H138.189C138.965 133.81 140.129 131.805 141.617 130.08L139.849 126.998C139.203 125.877 139.44 124.432 140.453 123.613C142.501 121.91 144.85 120.552 147.373 119.604C148.601 119.151 149.981 119.625 150.628 120.768L152.395 123.85C154.659 123.441 156.965 123.441 159.229 123.85L160.997 120.768C161.643 119.625 163.023 119.151 164.252 119.604C166.795 120.552 169.124 121.91 171.172 123.613C172.163 124.432 172.422 125.877 171.775 126.998L170.007 130.08C171.495 131.805 172.659 133.81 173.435 135.987H176.992C178.285 135.987 179.406 136.914 179.622 138.207C180.053 140.794 180.075 143.51 179.622 146.205C179.406 147.498 178.285 148.447 176.992 148.447H173.435C172.659 150.624 171.495 152.629 170.007 154.354L171.775 157.436C172.422 158.557 172.185 160.001 171.172 160.821C169.124 162.524 166.774 163.882 164.252 164.83C163.023 165.283 161.643 164.809 160.997 163.666L159.229 160.583C156.987 160.993 154.659 160.993 152.395 160.583ZM150.132 147.886C158.431 154.267 167.895 144.804 161.514 136.504C153.215 130.123 143.751 139.587 150.132 147.886V147.886Z" stroke="#EAE9F2" stroke-width="2" mask="url(#path-2-outside-1_705_6)"/>
</g>
<g opacity="0.75">
<path d="M67.0168 100.516V119H63.2082V100.516H67.0168ZM74.3801 108.412V111.383H65.9758V108.412H74.3801ZM75.2687 100.516V103.499H65.9758V100.516H75.2687ZM81.9275 100.516V119H78.1316V100.516H81.9275ZM97.7777 116.029V119H88.4721V116.029H97.7777ZM89.7035 100.516V119H85.8949V100.516H89.7035ZM105.731 100.516V119H101.936V100.516H105.731ZM111.419 100.516V103.499H96.3369V100.516H111.419ZM126.393 116.029V119H116.554V116.029H126.393ZM117.798 100.516V119H113.99V100.516H117.798ZM125.111 108.044V110.938H116.554V108.044H125.111ZM126.38 100.516V103.499H116.554V100.516H126.38ZM129.015 100.516H135.908C137.322 100.516 138.536 100.727 139.552 101.15C140.576 101.574 141.363 102.2 141.913 103.029C142.463 103.859 142.738 104.879 142.738 106.089C142.738 107.079 142.569 107.93 142.231 108.641C141.901 109.343 141.431 109.931 140.821 110.405C140.221 110.871 139.514 111.243 138.701 111.522L137.495 112.157H131.503L131.478 109.187H135.934C136.602 109.187 137.157 109.068 137.597 108.831C138.037 108.594 138.367 108.264 138.587 107.841C138.816 107.418 138.93 106.927 138.93 106.368C138.93 105.776 138.82 105.264 138.6 104.832C138.38 104.4 138.045 104.07 137.597 103.842C137.148 103.613 136.585 103.499 135.908 103.499H132.823V119H129.015V100.516ZM139.349 119L135.134 110.761L139.158 110.735L143.424 118.822V119H139.349ZM155.694 114.163C155.694 113.833 155.643 113.537 155.542 113.274C155.449 113.004 155.271 112.758 155.009 112.538C154.746 112.31 154.378 112.085 153.904 111.865C153.43 111.645 152.817 111.417 152.063 111.18C151.225 110.909 150.43 110.604 149.677 110.266C148.932 109.927 148.272 109.534 147.696 109.085C147.129 108.628 146.68 108.099 146.35 107.498C146.029 106.897 145.868 106.199 145.868 105.403C145.868 104.633 146.037 103.935 146.376 103.309C146.714 102.674 147.188 102.132 147.798 101.684C148.407 101.227 149.126 100.875 149.956 100.63C150.794 100.384 151.712 100.262 152.711 100.262C154.073 100.262 155.262 100.507 156.278 100.998C157.294 101.489 158.081 102.162 158.639 103.017C159.207 103.871 159.49 104.849 159.49 105.949H155.707C155.707 105.408 155.593 104.934 155.364 104.527C155.144 104.113 154.805 103.787 154.348 103.55C153.9 103.313 153.333 103.194 152.647 103.194C151.987 103.194 151.437 103.296 150.997 103.499C150.557 103.694 150.227 103.96 150.007 104.299C149.787 104.629 149.677 105.001 149.677 105.416C149.677 105.729 149.753 106.013 149.905 106.267C150.066 106.521 150.303 106.757 150.616 106.978C150.929 107.198 151.314 107.405 151.771 107.6C152.228 107.794 152.757 107.985 153.358 108.171C154.365 108.476 155.25 108.818 156.012 109.199C156.782 109.58 157.425 110.007 157.941 110.481C158.457 110.955 158.847 111.493 159.109 112.094C159.372 112.695 159.503 113.376 159.503 114.138C159.503 114.942 159.346 115.661 159.033 116.296C158.72 116.931 158.267 117.468 157.675 117.908C157.082 118.348 156.375 118.683 155.554 118.911C154.734 119.14 153.815 119.254 152.8 119.254C151.886 119.254 150.984 119.135 150.096 118.898C149.207 118.653 148.399 118.285 147.671 117.794C146.951 117.303 146.376 116.677 145.944 115.915C145.512 115.153 145.297 114.252 145.297 113.211H149.118C149.118 113.786 149.207 114.273 149.385 114.671C149.562 115.069 149.812 115.39 150.134 115.636C150.464 115.881 150.853 116.059 151.302 116.169C151.759 116.279 152.258 116.334 152.8 116.334C153.46 116.334 154.001 116.241 154.425 116.055C154.856 115.868 155.174 115.61 155.377 115.28C155.588 114.95 155.694 114.578 155.694 114.163Z" fill="black"/>
<path d="M67.0168 100.516H67.5168V100.016H67.0168V100.516ZM67.0168 119V119.5H67.5168V119H67.0168ZM63.2082 119H62.7082V119.5H63.2082V119ZM63.2082 100.516V100.016H62.7082V100.516H63.2082ZM74.3801 108.412H74.8801V107.912H74.3801V108.412ZM74.3801 111.383V111.883H74.8801V111.383H74.3801ZM65.9758 111.383H65.4758V111.883H65.9758V111.383ZM65.9758 108.412V107.912H65.4758V108.412H65.9758ZM75.2687 100.516H75.7687V100.016H75.2687V100.516ZM75.2687 103.499V103.999H75.7687V103.499H75.2687ZM65.9758 103.499H65.4758V103.999H65.9758V103.499ZM65.9758 100.516V100.016H65.4758V100.516H65.9758ZM66.5168 100.516V119H67.5168V100.516H66.5168ZM67.0168 118.5H63.2082V119.5H67.0168V118.5ZM63.7082 119V100.516H62.7082V119H63.7082ZM63.2082 101.016H67.0168V100.016H63.2082V101.016ZM73.8801 108.412V111.383H74.8801V108.412H73.8801ZM74.3801 110.883H65.9758V111.883H74.3801V110.883ZM66.4758 111.383V108.412H65.4758V111.383H66.4758ZM65.9758 108.912H74.3801V107.912H65.9758V108.912ZM74.7687 100.516V103.499H75.7687V100.516H74.7687ZM75.2687 102.999H65.9758V103.999H75.2687V102.999ZM66.4758 103.499V100.516H65.4758V103.499H66.4758ZM65.9758 101.016H75.2687V100.016H65.9758V101.016ZM81.9275 100.516H82.4275V100.016H81.9275V100.516ZM81.9275 119V119.5H82.4275V119H81.9275ZM78.1316 119H77.6316V119.5H78.1316V119ZM78.1316 100.516V100.016H77.6316V100.516H78.1316ZM81.4275 100.516V119H82.4275V100.516H81.4275ZM81.9275 118.5H78.1316V119.5H81.9275V118.5ZM78.6316 119V100.516H77.6316V119H78.6316ZM78.1316 101.016H81.9275V100.016H78.1316V101.016ZM97.7777 116.029H98.2777V115.529H97.7777V116.029ZM97.7777 119V119.5H98.2777V119H97.7777ZM88.4721 119H87.9721V119.5H88.4721V119ZM88.4721 116.029V115.529H87.9721V116.029H88.4721ZM89.7035 100.516H90.2035V100.016H89.7035V100.516ZM89.7035 119V119.5H90.2035V119H89.7035ZM85.8949 119H85.3949V119.5H85.8949V119ZM85.8949 100.516V100.016H85.3949V100.516H85.8949ZM97.2777 116.029V119H98.2777V116.029H97.2777ZM97.7777 118.5H88.4721V119.5H97.7777V118.5ZM88.9721 119V116.029H87.9721V119H88.9721ZM88.4721 116.529H97.7777V115.529H88.4721V116.529ZM89.2035 100.516V119H90.2035V100.516H89.2035ZM89.7035 118.5H85.8949V119.5H89.7035V118.5ZM86.3949 119V100.516H85.3949V119H86.3949ZM85.8949 101.016H89.7035V100.016H85.8949V101.016ZM105.731 100.516H106.231V100.016H105.731V100.516ZM105.731 119V119.5H106.231V119H105.731ZM101.936 119H101.436V119.5H101.936V119ZM101.936 100.516V100.016H101.436V100.516H101.936ZM111.419 100.516H111.919V100.016H111.419V100.516ZM111.419 103.499V103.999H111.919V103.499H111.419ZM96.3369 103.499H95.8369V103.999H96.3369V103.499ZM96.3369 100.516V100.016H95.8369V100.516H96.3369ZM105.231 100.516V119H106.231V100.516H105.231ZM105.731 118.5H101.936V119.5H105.731V118.5ZM102.436 119V100.516H101.436V119H102.436ZM101.936 101.016H105.731V100.016H101.936V101.016ZM110.919 100.516V103.499H111.919V100.516H110.919ZM111.419 102.999H96.3369V103.999H111.419V102.999ZM96.8369 103.499V100.516H95.8369V103.499H96.8369ZM96.3369 101.016H111.419V100.016H96.3369V101.016ZM126.393 116.029H126.893V115.529H126.393V116.029ZM126.393 119V119.5H126.893V119H126.393ZM116.554 119H116.054V119.5H116.554V119ZM116.554 116.029V115.529H116.054V116.029H116.554ZM117.798 100.516H118.298V100.016H117.798V100.516ZM117.798 119V119.5H118.298V119H117.798ZM113.99 119H113.49V119.5H113.99V119ZM113.99 100.516V100.016H113.49V100.516H113.99ZM125.111 108.044H125.611V107.544H125.111V108.044ZM125.111 110.938V111.438H125.611V110.938H125.111ZM116.554 110.938H116.054V111.438H116.554V110.938ZM116.554 108.044V107.544H116.054V108.044H116.554ZM126.38 100.516H126.88V100.016H126.38V100.516ZM126.38 103.499V103.999H126.88V103.499H126.38ZM116.554 103.499H116.054V103.999H116.554V103.499ZM116.554 100.516V100.016H116.054V100.516H116.554ZM125.893 116.029V119H126.893V116.029H125.893ZM126.393 118.5H116.554V119.5H126.393V118.5ZM117.054 119V116.029H116.054V119H117.054ZM116.554 116.529H126.393V115.529H116.554V116.529ZM117.298 100.516V119H118.298V100.516H117.298ZM117.798 118.5H113.99V119.5H117.798V118.5ZM114.49 119V100.516H113.49V119H114.49ZM113.99 101.016H117.798V100.016H113.99V101.016ZM124.611 108.044V110.938H125.611V108.044H124.611ZM125.111 110.438H116.554V111.438H125.111V110.438ZM117.054 110.938V108.044H116.054V110.938H117.054ZM116.554 108.544H125.111V107.544H116.554V108.544ZM125.88 100.516V103.499H126.88V100.516H125.88ZM126.38 102.999H116.554V103.999H126.38V102.999ZM117.054 103.499V100.516H116.054V103.499H117.054ZM116.554 101.016H126.38V100.016H116.554V101.016ZM129.015 100.516V100.016H128.515V100.516H129.015ZM139.552 101.15L139.36 101.612L139.361 101.612L139.552 101.15ZM142.231 108.641L141.779 108.426L141.778 108.428L142.231 108.641ZM140.821 110.405L141.128 110.801L141.128 110.8L140.821 110.405ZM138.701 111.522L138.539 111.05L138.502 111.062L138.468 111.08L138.701 111.522ZM137.495 112.157V112.657H137.619L137.728 112.6L137.495 112.157ZM131.503 112.157L131.003 112.161L131.007 112.657H131.503V112.157ZM131.478 109.187V108.687H130.973L130.978 109.191L131.478 109.187ZM138.587 107.841L138.147 107.603L138.144 107.61L138.587 107.841ZM132.823 103.499V102.999H132.323V103.499H132.823ZM132.823 119V119.5H133.323V119H132.823ZM129.015 119H128.515V119.5H129.015V119ZM139.349 119L138.904 119.228L139.043 119.5H139.349V119ZM135.134 110.761L135.131 110.261L134.319 110.266L134.689 110.988L135.134 110.761ZM139.158 110.735L139.601 110.502L139.459 110.233L139.155 110.235L139.158 110.735ZM143.424 118.822H143.924V118.698L143.866 118.589L143.424 118.822ZM143.424 119V119.5H143.924V119H143.424ZM129.015 101.016H135.908V100.016H129.015V101.016ZM135.908 101.016C137.274 101.016 138.42 101.22 139.36 101.612L139.744 100.689C138.653 100.234 137.37 100.016 135.908 100.016V101.016ZM139.361 101.612C140.304 102.002 141.008 102.569 141.497 103.306L142.33 102.753C141.719 101.831 140.848 101.145 139.743 100.688L139.361 101.612ZM141.497 103.306C141.982 104.037 142.238 104.955 142.238 106.089H143.238C143.238 104.802 142.945 103.68 142.33 102.753L141.497 103.306ZM142.238 106.089C142.238 107.023 142.079 107.797 141.779 108.426L142.682 108.856C143.06 108.063 143.238 107.135 143.238 106.089H142.238ZM141.778 108.428C141.481 109.06 141.061 109.585 140.515 110.011L141.128 110.8C141.8 110.277 142.32 109.627 142.683 108.853L141.778 108.428ZM140.515 110.01C139.963 110.438 139.306 110.786 138.539 111.05L138.864 111.995C139.722 111.7 140.478 111.304 141.128 110.801L140.515 110.01ZM138.468 111.08L137.262 111.715L137.728 112.6L138.934 111.965L138.468 111.08ZM137.495 111.657H131.503V112.657H137.495V111.657ZM132.003 112.153L131.978 109.182L130.978 109.191L131.003 112.161L132.003 112.153ZM131.478 109.687H135.934V108.687H131.478V109.687ZM135.934 109.687C136.658 109.687 137.301 109.559 137.834 109.271L137.36 108.391C137.013 108.578 136.546 108.687 135.934 108.687V109.687ZM137.834 109.271C138.358 108.989 138.762 108.588 139.031 108.071L138.144 107.61C137.972 107.94 137.716 108.199 137.36 108.391L137.834 109.271ZM139.027 108.078C139.301 107.571 139.43 106.996 139.43 106.368H138.43C138.43 106.857 138.33 107.264 138.147 107.603L139.027 108.078ZM139.43 106.368C139.43 105.714 139.308 105.121 139.045 104.605L138.154 105.059C138.331 105.406 138.43 105.837 138.43 106.368H139.43ZM139.045 104.605C138.775 104.075 138.363 103.671 137.824 103.396L137.37 104.287C137.728 104.47 137.984 104.725 138.154 105.059L139.045 104.605ZM137.824 103.396C137.285 103.122 136.638 102.999 135.908 102.999V103.999C136.533 103.999 137.012 104.105 137.37 104.287L137.824 103.396ZM135.908 102.999H132.823V103.999H135.908V102.999ZM132.323 103.499V119H133.323V103.499H132.323ZM132.823 118.5H129.015V119.5H132.823V118.5ZM129.515 119V100.516H128.515V119H129.515ZM139.794 118.772L135.579 110.533L134.689 110.988L138.904 119.228L139.794 118.772ZM135.137 111.261L139.162 111.235L139.155 110.235L135.131 110.261L135.137 111.261ZM138.716 110.969L142.982 119.056L143.866 118.589L139.601 110.502L138.716 110.969ZM142.924 118.822V119H143.924V118.822H142.924ZM143.424 118.5H139.349V119.5H143.424V118.5ZM155.542 113.274L155.069 113.437L155.072 113.446L155.076 113.455L155.542 113.274ZM155.009 112.538L154.68 112.915L154.687 112.921L155.009 112.538ZM152.063 111.18L151.909 111.655L151.913 111.657L152.063 111.18ZM149.677 110.266L149.47 110.721L149.472 110.722L149.677 110.266ZM147.696 109.085L147.382 109.474L147.389 109.479L147.696 109.085ZM146.35 107.498L145.91 107.734L145.912 107.739L146.35 107.498ZM146.376 103.309L146.816 103.546L146.817 103.544L146.376 103.309ZM147.798 101.684L148.094 102.086L148.098 102.084L147.798 101.684ZM149.956 100.63L149.815 100.15L149.814 100.15L149.956 100.63ZM158.639 103.017L158.221 103.29L158.223 103.293L158.639 103.017ZM159.49 105.949V106.449H159.99V105.949H159.49ZM155.707 105.949H155.207V106.449H155.707V105.949ZM155.364 104.527L154.922 104.762L154.928 104.772L155.364 104.527ZM154.348 103.55L154.115 103.992L154.118 103.994L154.348 103.55ZM150.997 103.499L151.199 103.956L151.206 103.953L150.997 103.499ZM150.007 104.299L150.423 104.576L150.426 104.571L150.007 104.299ZM149.905 106.267L149.476 106.524L149.483 106.534L149.905 106.267ZM150.616 106.978L150.903 106.568L150.616 106.978ZM153.358 108.171L153.21 108.649L153.213 108.649L153.358 108.171ZM156.012 109.199L155.788 109.646L155.79 109.647L156.012 109.199ZM159.109 112.094L158.651 112.294L159.109 112.094ZM157.675 117.908L157.376 117.507L157.675 117.908ZM150.096 118.898L149.962 119.38L149.967 119.382L150.096 118.898ZM147.671 117.794L147.389 118.207L147.391 118.208L147.671 117.794ZM145.297 113.211V112.711H144.797V113.211H145.297ZM149.118 113.211H149.618V112.711H149.118V113.211ZM150.134 115.636L149.83 116.033L149.835 116.037L150.134 115.636ZM151.302 116.169L151.182 116.655L151.185 116.655L151.302 116.169ZM154.425 116.055L154.227 115.596L154.223 115.597L154.425 116.055ZM155.377 115.28L154.956 115.01L154.951 115.018L155.377 115.28ZM156.194 114.163C156.194 113.782 156.135 113.423 156.008 113.094L155.076 113.455C155.151 113.651 155.194 113.884 155.194 114.163H156.194ZM156.015 113.112C155.887 112.74 155.648 112.422 155.33 112.155L154.687 112.921C154.894 113.094 155.011 113.268 155.069 113.437L156.015 113.112ZM155.337 112.161C155.026 111.89 154.612 111.643 154.115 111.412L153.694 112.319C154.144 112.528 154.466 112.729 154.68 112.915L155.337 112.161ZM154.115 111.412C153.614 111.179 152.978 110.943 152.213 110.703L151.913 111.657C152.655 111.89 153.246 112.111 153.694 112.319L154.115 111.412ZM152.217 110.704C151.395 110.438 150.617 110.14 149.882 109.81L149.472 110.722C150.243 111.068 151.055 111.379 151.909 111.655L152.217 110.704ZM149.883 109.81C149.17 109.486 148.545 109.112 148.003 108.691L147.389 109.479C147.999 109.955 148.693 110.368 149.47 110.721L149.883 109.81ZM148.01 108.696C147.49 108.277 147.085 107.798 146.789 107.257L145.912 107.739C146.276 108.4 146.768 108.979 147.382 109.474L148.01 108.696ZM146.791 107.262C146.514 106.745 146.368 106.13 146.368 105.403H145.368C145.368 106.267 145.543 107.049 145.91 107.734L146.791 107.262ZM146.368 105.403C146.368 104.709 146.52 104.094 146.816 103.546L145.936 103.071C145.555 103.776 145.368 104.557 145.368 105.403H146.368ZM146.817 103.544C147.119 102.978 147.542 102.493 148.094 102.086L147.501 101.281C146.835 101.771 146.31 102.369 145.935 103.073L146.817 103.544ZM148.098 102.084C148.653 101.667 149.318 101.34 150.098 101.109L149.814 100.15C148.935 100.41 148.161 100.786 147.498 101.284L148.098 102.084ZM150.096 101.11C150.883 100.879 151.753 100.762 152.711 100.762V99.7617C151.671 99.7617 150.705 99.8895 149.815 100.15L150.096 101.11ZM152.711 100.762C154.013 100.762 155.125 100.996 156.061 101.448L156.496 100.548C155.4 100.018 154.133 99.7617 152.711 99.7617V100.762ZM156.061 101.448C157.003 101.904 157.717 102.519 158.221 103.29L159.058 102.743C158.445 101.804 157.584 101.074 156.496 100.548L156.061 101.448ZM158.223 103.293C158.732 104.06 158.99 104.94 158.99 105.949H159.99C159.99 104.758 159.682 103.683 159.056 102.74L158.223 103.293ZM159.49 105.449H155.707V106.449H159.49V105.449ZM156.207 105.949C156.207 105.336 156.077 104.775 155.8 104.282L154.928 104.772C155.108 105.093 155.207 105.479 155.207 105.949H156.207ZM155.806 104.293C155.533 103.78 155.117 103.385 154.579 103.106L154.118 103.994C154.494 104.189 154.755 104.445 154.922 104.762L155.806 104.293ZM154.582 103.108C154.041 102.822 153.387 102.694 152.647 102.694V103.694C153.279 103.694 153.759 103.804 154.115 103.992L154.582 103.108ZM152.647 102.694C151.939 102.694 151.312 102.803 150.787 103.045L151.206 103.953C151.562 103.789 152.035 103.694 152.647 103.694V102.694ZM150.795 103.042C150.283 103.268 149.87 103.592 149.587 104.026L150.426 104.571C150.584 104.329 150.83 104.119 151.199 103.956L150.795 103.042ZM149.591 104.021C149.313 104.438 149.177 104.907 149.177 105.416H150.177C150.177 105.095 150.26 104.82 150.423 104.576L149.591 104.021ZM149.177 105.416C149.177 105.814 149.275 106.188 149.476 106.524L150.334 106.009C150.231 105.838 150.177 105.644 150.177 105.416H149.177ZM149.483 106.534C149.687 106.857 149.976 107.139 150.329 107.387L150.903 106.568C150.63 106.376 150.445 106.184 150.327 105.999L149.483 106.534ZM150.329 107.387C150.677 107.632 151.095 107.855 151.575 108.06L151.967 107.14C151.533 106.955 151.181 106.763 150.903 106.568L150.329 107.387ZM151.575 108.06C152.052 108.262 152.597 108.459 153.21 108.648L153.506 107.693C152.917 107.511 152.405 107.326 151.967 107.14L151.575 108.06ZM153.213 108.649C154.2 108.948 155.057 109.281 155.788 109.646L156.235 108.752C155.443 108.356 154.531 108.003 153.503 107.692L153.213 108.649ZM155.79 109.647C156.527 110.012 157.128 110.414 157.603 110.85L158.279 110.113C157.721 109.601 157.037 109.148 156.233 108.751L155.79 109.647ZM157.603 110.85C158.072 111.28 158.418 111.761 158.651 112.294L159.567 111.894C159.275 111.225 158.843 110.631 158.279 110.113L157.603 110.85ZM158.651 112.294C158.882 112.822 159.003 113.434 159.003 114.138H160.003C160.003 113.318 159.861 112.567 159.567 111.894L158.651 112.294ZM159.003 114.138C159.003 114.875 158.859 115.518 158.585 116.075L159.481 116.517C159.833 115.805 160.003 115.008 160.003 114.138H159.003ZM158.585 116.075C158.308 116.635 157.908 117.112 157.376 117.507L157.973 118.31C158.626 117.824 159.132 117.226 159.481 116.517L158.585 116.075ZM157.376 117.507C156.84 117.905 156.191 118.215 155.42 118.429L155.689 119.393C156.56 119.15 157.324 118.791 157.973 118.31L157.376 117.507ZM155.42 118.429C154.651 118.644 153.778 118.754 152.8 118.754V119.754C153.852 119.754 154.817 119.636 155.689 119.393L155.42 118.429ZM152.8 118.754C151.929 118.754 151.071 118.641 150.224 118.415L149.967 119.382C150.897 119.63 151.842 119.754 152.8 119.754V118.754ZM150.229 118.416C149.389 118.185 148.631 117.839 147.95 117.379L147.391 118.208C148.166 118.731 149.024 119.121 149.962 119.38L150.229 118.416ZM147.953 117.381C147.297 116.933 146.773 116.364 146.379 115.669L145.509 116.162C145.978 116.989 146.606 117.673 147.389 118.207L147.953 117.381ZM146.379 115.669C145.998 114.995 145.797 114.182 145.797 113.211H144.797C144.797 114.322 145.027 115.312 145.509 116.162L146.379 115.669ZM145.297 113.711H149.118V112.711H145.297V113.711ZM148.618 113.211C148.618 113.835 148.714 114.396 148.928 114.875L149.841 114.467C149.7 114.15 149.618 113.738 149.618 113.211H148.618ZM148.928 114.875C149.137 115.343 149.437 115.733 149.83 116.033L150.437 115.238C150.187 115.047 149.987 114.794 149.841 114.467L148.928 114.875ZM149.835 116.037C150.225 116.327 150.677 116.531 151.182 116.655L151.421 115.683C151.029 115.587 150.702 115.436 150.432 115.235L149.835 116.037ZM151.185 116.655C151.685 116.776 152.224 116.834 152.8 116.834V115.834C152.292 115.834 151.832 115.782 151.419 115.683L151.185 116.655ZM152.8 116.834C153.502 116.834 154.118 116.736 154.626 116.512L154.223 115.597C153.885 115.746 153.418 115.834 152.8 115.834V116.834ZM154.623 116.514C155.128 116.296 155.535 115.977 155.803 115.542L154.951 115.018C154.812 115.244 154.584 115.441 154.227 115.596L154.623 116.514ZM155.798 115.55C156.064 115.135 156.194 114.668 156.194 114.163H155.194C155.194 114.488 155.113 114.766 154.956 115.01L155.798 115.55Z" fill="#E5E5E5"/>
</g>
</g>
<defs>
<filter id="filter0_d_705_6" x="18" y="17" width="201" height="201" filterUnits="userSpaceOnUse" color-interpolation-filters="sRGB">
<feFlood flood-opacity="0" result="BackgroundImageFix"/>
<feColorMatrix in="SourceAlpha" type="matrix" values="0 0 0 0 0 0 0 0 0 0 0 0 0 0 0 0 0 0 127 0" result="hardAlpha"/>
<feOffset dx="10" dy="10"/>
<feGaussianBlur stdDeviation="2.5"/>
<feComposite in2="hardAlpha" operator="out"/>
<feColorMatrix type="matrix" values="0 0 0 0 0 0 0 0 0 0 0 0 0 0 0 0 0 0 0.25 0"/>
<feBlend mode="normal" in2="BackgroundImageFix" result="effect1_dropShadow_705_6"/>
<feBlend mode="normal" in="SourceGraphic" in2="effect1_dropShadow_705_6" result="shape"/>
</filter>
<filter id="filter1_ddd_705_6" x="0" y="0" width="222" height="222" filterUnits="userSpaceOnUse" color-interpolation-filters="sRGB">
<feFlood flood-opacity="0" result="BackgroundImageFix"/>
<feColorMatrix in="SourceAlpha" type="matrix" values="0 0 0 0 0 0 0 0 0 0 0 0 0 0 0 0 0 0 127 0" result="hardAlpha"/>
<feOffset dy="6"/>
<feGaussianBlur stdDeviation="5"/>
<feColorMatrix type="matrix" values="0 0 0 0 0 0 0 0 0 0 0 0 0 0 0 0 0 0 0.14 0"/>
<feBlend mode="normal" in2="BackgroundImageFix" result="effect1_dropShadow_705_6"/>
<feColorMatrix in="SourceAlpha" type="matrix" values="0 0 0 0 0 0 0 0 0 0 0 0 0 0 0 0 0 0 127 0" result="hardAlpha"/>
<feOffset dy="1"/>
<feGaussianBlur stdDeviation="9"/>
<feColorMatrix type="matrix" values="0 0 0 0 0 0 0 0 0 0 0 0 0 0 0 0 0 0 0.12 0"/>
<feBlend mode="normal" in2="effect1_dropShadow_705_6" result="effect2_dropShadow_705_6"/>
<feColorMatrix in="SourceAlpha" type="matrix" values="0 0 0 0 0 0 0 0 0 0 0 0 0 0 0 0 0 0 127 0" result="hardAlpha"/>
<feOffset dy="3"/>
<feGaussianBlur stdDeviation="2.5"/>
<feColorMatrix type="matrix" values="0 0 0 0 0 0 0 0 0 0 0 0 0 0 0 0 0 0 0.2 0"/>
<feBlend mode="normal" in2="effect2_dropShadow_705_6" result="effect3_dropShadow_705_6"/>
<feBlend mode="normal" in="SourceGraphic" in2="effect3_dropShadow_705_6" result="shape"/>
</filter>
<filter id="filter2_d_705_6" x="36.9995" y="54.0004" width="147.954" height="119.999" filterUnits="userSpaceOnUse" color-interpolation-filters="sRGB">
<feFlood flood-opacity="0" result="BackgroundImageFix"/>
<feColorMatrix in="SourceAlpha" type="matrix" values="0 0 0 0 0 0 0 0 0 0 0 0 0 0 0 0 0 0 127 0" result="hardAlpha"/>
<feOffset dy="4"/>
<feGaussianBlur stdDeviation="2"/>
<feComposite in2="hardAlpha" operator="out"/>
<feColorMatrix type="matrix" values="0 0 0 0 0 0 0 0 0 0 0 0 0 0 0 0 0 0 0.25 0"/>
<feBlend mode="normal" in2="BackgroundImageFix" result="effect1_dropShadow_705_6"/>
<feBlend mode="normal" in="SourceGraphic" in2="effect1_dropShadow_705_6" result="shape"/>
</filter>
</defs>
</svg>
