<svg width="176" height="176" viewBox="0 0 176 176" fill="none" xmlns="http://www.w3.org/2000/svg">
<g filter="url(#filter0_ddd_705_6)">
<rect x="18" y="17" width="140" height="140" rx="4" fill="#FAFAFA"/>
</g>
<g filter="url(#filter1_d_705_6)">
<mask id="path-2-outside-1_705_6" maskUnits="userSpaceOnUse" x="34.0645" y="44.6022" width="107" height="85" fill="black">
<rect fill="white" x="34.0645" y="44.6022" width="107" height="85"/>
<path d="M119.158 76.575L117.827 78.8953C117.34 79.7553 116.302 80.1122 115.377 79.7715C113.463 79.0575 111.71 78.0353 110.169 76.7535C109.422 76.1369 109.228 75.0498 109.714 74.2061L111.045 71.8858C109.925 70.5877 109.049 69.0787 108.465 67.4399H105.788C104.814 67.4399 103.971 66.7422 103.808 65.7687C103.484 63.8216 103.468 61.7772 103.808 59.749C103.971 58.7754 104.814 58.0615 105.788 58.0615H108.465C109.049 56.4227 109.925 54.9137 111.045 53.6157L109.714 51.2954C109.228 50.4516 109.406 49.3645 110.169 48.7479C111.71 47.4661 113.479 46.4439 115.377 45.73C116.302 45.3892 117.34 45.7462 117.827 46.6062L119.158 48.9264C120.861 48.6181 122.598 48.6181 124.301 48.9264L125.632 46.6062C126.119 45.7462 127.157 45.3892 128.082 45.73C129.997 46.4439 131.749 47.4661 133.29 48.7479C134.037 49.3645 134.231 50.4516 133.745 51.2954L132.414 53.6157C133.534 54.9137 134.41 56.4227 134.994 58.0615H137.671C138.645 58.0615 139.489 58.7592 139.651 59.7327C139.975 61.6798 139.992 63.7243 139.651 65.7525C139.489 66.726 138.645 67.4399 137.671 67.4399H134.994C134.41 69.0787 133.534 70.5877 132.414 71.8858L133.745 74.2061C134.231 75.0498 134.053 76.1369 133.29 76.7535C131.749 78.0353 129.98 79.0575 128.082 79.7715C127.157 80.1122 126.119 79.7553 125.632 78.8953L124.301 76.575C122.614 76.8833 120.861 76.8833 119.158 76.575V76.575ZM117.454 67.0343C123.701 71.8371 130.824 64.714 126.021 58.4671C119.774 53.6481 112.651 60.7874 117.454 67.0343V67.0343ZM98.7458 92.0057L104.214 94.7316C105.853 95.6727 106.567 97.6684 105.918 99.4532C104.474 103.38 101.634 106.982 99.0055 110.13C97.8047 111.574 95.7279 111.931 94.0891 110.99L89.3674 108.264C86.7713 110.487 83.7533 112.255 80.4595 113.407V118.859C80.4595 120.741 79.1127 122.364 77.263 122.688C73.2715 123.37 69.0853 123.402 64.9477 122.688C63.0818 122.364 61.7026 120.758 61.7026 118.859V113.407C58.4088 112.239 55.3908 110.487 52.7947 108.264L48.073 110.973C46.4504 111.915 44.3573 111.558 43.1566 110.114C40.528 106.966 37.7534 103.364 36.3094 99.4532C35.6603 97.6846 36.3743 95.6889 38.0131 94.7316L43.4162 92.0057C42.7834 88.6145 42.7834 85.126 43.4162 81.7186L38.0131 78.9764C36.3743 78.0353 35.6441 76.0396 36.3094 74.271C37.7534 70.3444 40.528 66.7422 43.1566 63.5945C44.3573 62.1504 46.4342 61.7934 48.073 62.7345L52.7947 65.4604C55.3908 63.2375 58.4088 61.4689 61.7026 60.3169V54.8488C61.7026 52.9829 63.0331 51.3603 64.8828 51.0358C68.8743 50.3543 73.0768 50.3218 77.2143 51.0195C79.0803 51.3441 80.4595 52.9504 80.4595 54.8488V60.3006C83.7533 61.4689 86.7713 63.2213 89.3674 65.4442L94.0891 62.7183C95.7116 61.7772 97.8047 62.1341 99.0055 63.5782C101.634 66.726 104.392 70.3281 105.836 74.2547C106.485 76.0233 105.853 78.0191 104.214 78.9764L98.7458 81.7023C99.3786 85.1097 99.3786 88.5983 98.7458 92.0057V92.0057ZM79.6644 95.4293C89.27 82.9355 75.0076 68.6731 62.5139 78.2787C52.9082 90.7725 67.1706 105.035 79.6644 95.4293ZM119.158 125.074L117.827 127.394C117.34 128.254 116.302 128.611 115.377 128.27C113.463 127.556 111.71 126.534 110.169 125.252C109.422 124.636 109.228 123.548 109.714 122.705L111.045 120.384C109.925 119.086 109.049 117.577 108.465 115.939H105.788C104.814 115.939 103.971 115.241 103.808 114.267C103.484 112.32 103.468 110.276 103.808 108.248C103.971 107.274 104.814 106.56 105.788 106.56H108.465C109.049 104.921 109.925 103.412 111.045 102.114L109.714 99.794C109.228 98.9502 109.406 97.8631 110.169 97.2465C111.71 95.9647 113.479 94.9425 115.377 94.2286C116.302 93.8878 117.34 94.2448 117.827 95.1048L119.158 97.425C120.861 97.1167 122.598 97.1167 124.301 97.425L125.632 95.1048C126.119 94.2448 127.157 93.8878 128.082 94.2286C129.997 94.9425 131.749 95.9647 133.29 97.2465C134.037 97.8631 134.231 98.9502 133.745 99.794L132.414 102.114C133.534 103.412 134.41 104.921 134.994 106.56H137.671C138.645 106.56 139.489 107.258 139.651 108.231C139.975 110.178 139.992 112.223 139.651 114.251C139.489 115.225 138.645 115.939 137.671 115.939H134.994C134.41 117.577 133.534 119.086 132.414 120.384L133.745 122.705C134.231 123.548 134.053 124.636 133.29 125.252C131.749 126.534 129.98 127.556 128.082 128.27C127.157 128.611 126.119 128.254 125.632 127.394L124.301 125.074C122.614 125.382 120.861 125.382 119.158 125.074ZM117.454 115.517C123.701 120.319 130.824 113.196 126.021 106.95C119.774 102.147 112.651 109.27 117.454 115.517V115.517Z"/>
</mask>
<path d="M119.158 76.575L117.827 78.8953C117.34 79.7553 116.302 80.1122 115.377 79.7715C113.463 79.0575 111.71 78.0353 110.169 76.7535C109.422 76.1369 109.228 75.0498 109.714 74.2061L111.045 71.8858C109.925 70.5877 109.049 69.0787 108.465 67.4399H105.788C104.814 67.4399 103.971 66.7422 103.808 65.7687C103.484 63.8216 103.468 61.7772 103.808 59.749C103.971 58.7754 104.814 58.0615 105.788 58.0615H108.465C109.049 56.4227 109.925 54.9137 111.045 53.6157L109.714 51.2954C109.228 50.4516 109.406 49.3645 110.169 48.7479C111.71 47.4661 113.479 46.4439 115.377 45.73C116.302 45.3892 117.34 45.7462 117.827 46.6062L119.158 48.9264C120.861 48.6181 122.598 48.6181 124.301 48.9264L125.632 46.6062C126.119 45.7462 127.157 45.3892 128.082 45.73C129.997 46.4439 131.749 47.4661 133.29 48.7479C134.037 49.3645 134.231 50.4516 133.745 51.2954L132.414 53.6157C133.534 54.9137 134.41 56.4227 134.994 58.0615H137.671C138.645 58.0615 139.489 58.7592 139.651 59.7327C139.975 61.6798 139.992 63.7243 139.651 65.7525C139.489 66.726 138.645 67.4399 137.671 67.4399H134.994C134.41 69.0787 133.534 70.5877 132.414 71.8858L133.745 74.2061C134.231 75.0498 134.053 76.1369 133.29 76.7535C131.749 78.0353 129.98 79.0575 128.082 79.7715C127.157 80.1122 126.119 79.7553 125.632 78.8953L124.301 76.575C122.614 76.8833 120.861 76.8833 119.158 76.575V76.575ZM117.454 67.0343C123.701 71.8371 130.824 64.714 126.021 58.4671C119.774 53.6481 112.651 60.7874 117.454 67.0343V67.0343ZM98.7458 92.0057L104.214 94.7316C105.853 95.6727 106.567 97.6684 105.918 99.4532C104.474 103.38 101.634 106.982 99.0055 110.13C97.8047 111.574 95.7279 111.931 94.0891 110.99L89.3674 108.264C86.7713 110.487 83.7533 112.255 80.4595 113.407V118.859C80.4595 120.741 79.1127 122.364 77.263 122.688C73.2715 123.37 69.0853 123.402 64.9477 122.688C63.0818 122.364 61.7026 120.758 61.7026 118.859V113.407C58.4088 112.239 55.3908 110.487 52.7947 108.264L48.073 110.973C46.4504 111.915 44.3573 111.558 43.1566 110.114C40.528 106.966 37.7534 103.364 36.3094 99.4532C35.6603 97.6846 36.3743 95.6889 38.0131 94.7316L43.4162 92.0057C42.7834 88.6145 42.7834 85.126 43.4162 81.7186L38.0131 78.9764C36.3743 78.0353 35.6441 76.0396 36.3094 74.271C37.7534 70.3444 40.528 66.7422 43.1566 63.5945C44.3573 62.1504 46.4342 61.7934 48.073 62.7345L52.7947 65.4604C55.3908 63.2375 58.4088 61.4689 61.7026 60.3169V54.8488C61.7026 52.9829 63.0331 51.3603 64.8828 51.0358C68.8743 50.3543 73.0768 50.3218 77.2143 51.0195C79.0803 51.3441 80.4595 52.9504 80.4595 54.8488V60.3006C83.7533 61.4689 86.7713 63.2213 89.3674 65.4442L94.0891 62.7183C95.7116 61.7772 97.8047 62.1341 99.0055 63.5782C101.634 66.726 104.392 70.3281 105.836 74.2547C106.485 76.0233 105.853 78.0191 104.214 78.9764L98.7458 81.7023C99.3786 85.1097 99.3786 88.5983 98.7458 92.0057V92.0057ZM79.6644 95.4293C89.27 82.9355 75.0076 68.6731 62.5139 78.2787C52.9082 90.7725 67.1706 105.035 79.6644 95.4293ZM119.158 125.074L117.827 127.394C117.34 128.254 116.302 128.611 115.377 128.27C113.463 127.556 111.71 126.534 110.169 125.252C109.422 124.636 109.228 123.548 109.714 122.705L111.045 120.384C109.925 119.086 109.049 117.577 108.465 115.939H105.788C104.814 115.939 103.971 115.241 103.808 114.267C103.484 112.32 103.468 110.276 103.808 108.248C103.971 107.274 104.814 106.56 105.788 106.56H108.465C109.049 104.921 109.925 103.412 111.045 102.114L109.714 99.794C109.228 98.9502 109.406 97.8631 110.169 97.2465C111.71 95.9647 113.479 94.9425 115.377 94.2286C116.302 93.8878 117.34 94.2448 117.827 95.1048L119.158 97.425C120.861 97.1167 122.598 97.1167 124.301 97.425L125.632 95.1048C126.119 94.2448 127.157 93.8878 128.082 94.2286C129.997 94.9425 131.749 95.9647 133.29 97.2465C134.037 97.8631 134.231 98.9502 133.745 99.794L132.414 102.114C133.534 103.412 134.41 104.921 134.994 106.56H137.671C138.645 106.56 139.489 107.258 139.651 108.231C139.975 110.178 139.992 112.223 139.651 114.251C139.489 115.225 138.645 115.939 137.671 115.939H134.994C134.41 117.577 133.534 119.086 132.414 120.384L133.745 122.705C134.231 123.548 134.053 124.636 133.29 125.252C131.749 126.534 129.98 127.556 128.082 128.27C127.157 128.611 126.119 128.254 125.632 127.394L124.301 125.074C122.614 125.382 120.861 125.382 119.158 125.074ZM117.454 115.517C123.701 120.319 130.824 113.196 126.021 106.95C119.774 102.147 112.651 109.27 117.454 115.517V115.517Z" fill="#6855B4" fill-opacity="0.3"/>
<path d="M119.158 76.575L117.827 78.8953C117.34 79.7553 116.302 80.1122 115.377 79.7715C113.463 79.0575 111.71 78.0353 110.169 76.7535C109.422 76.1369 109.228 75.0498 109.714 74.2061L111.045 71.8858C109.925 70.5877 109.049 69.0787 108.465 67.4399H105.788C104.814 67.4399 103.971 66.7422 103.808 65.7687C103.484 63.8216 103.468 61.7772 103.808 59.749C103.971 58.7754 104.814 58.0615 105.788 58.0615H108.465C109.049 56.4227 109.925 54.9137 111.045 53.6157L109.714 51.2954C109.228 50.4516 109.406 49.3645 110.169 48.7479C111.71 47.4661 113.479 46.4439 115.377 45.73C116.302 45.3892 117.34 45.7462 117.827 46.6062L119.158 48.9264C120.861 48.6181 122.598 48.6181 124.301 48.9264L125.632 46.6062C126.119 45.7462 127.157 45.3892 128.082 45.73C129.997 46.4439 131.749 47.4661 133.29 48.7479C134.037 49.3645 134.231 50.4516 133.745 51.2954L132.414 53.6157C133.534 54.9137 134.41 56.4227 134.994 58.0615H137.671C138.645 58.0615 139.489 58.7592 139.651 59.7327C139.975 61.6798 139.992 63.7243 139.651 65.7525C139.489 66.726 138.645 67.4399 137.671 67.4399H134.994C134.41 69.0787 133.534 70.5877 132.414 71.8858L133.745 74.2061C134.231 75.0498 134.053 76.1369 133.29 76.7535C131.749 78.0353 129.98 79.0575 128.082 79.7715C127.157 80.1122 126.119 79.7553 125.632 78.8953L124.301 76.575C122.614 76.8833 120.861 76.8833 119.158 76.575V76.575ZM117.454 67.0343C123.701 71.8371 130.824 64.714 126.021 58.4671C119.774 53.6481 112.651 60.7874 117.454 67.0343V67.0343ZM98.7458 92.0057L104.214 94.7316C105.853 95.6727 106.567 97.6684 105.918 99.4532C104.474 103.38 101.634 106.982 99.0055 110.13C97.8047 111.574 95.7279 111.931 94.0891 110.99L89.3674 108.264C86.7713 110.487 83.7533 112.255 80.4595 113.407V118.859C80.4595 120.741 79.1127 122.364 77.263 122.688C73.2715 123.37 69.0853 123.402 64.9477 122.688C63.0818 122.364 61.7026 120.758 61.7026 118.859V113.407C58.4088 112.239 55.3908 110.487 52.7947 108.264L48.073 110.973C46.4504 111.915 44.3573 111.558 43.1566 110.114C40.528 106.966 37.7534 103.364 36.3094 99.4532C35.6603 97.6846 36.3743 95.6889 38.0131 94.7316L43.4162 92.0057C42.7834 88.6145 42.7834 85.126 43.4162 81.7186L38.0131 78.9764C36.3743 78.0353 35.6441 76.0396 36.3094 74.271C37.7534 70.3444 40.528 66.7422 43.1566 63.5945C44.3573 62.1504 46.4342 61.7934 48.073 62.7345L52.7947 65.4604C55.3908 63.2375 58.4088 61.4689 61.7026 60.3169V54.8488C61.7026 52.9829 63.0331 51.3603 64.8828 51.0358C68.8743 50.3543 73.0768 50.3218 77.2143 51.0195C79.0803 51.3441 80.4595 52.9504 80.4595 54.8488V60.3006C83.7533 61.4689 86.7713 63.2213 89.3674 65.4442L94.0891 62.7183C95.7116 61.7772 97.8047 62.1341 99.0055 63.5782C101.634 66.726 104.392 70.3281 105.836 74.2547C106.485 76.0233 105.853 78.0191 104.214 78.9764L98.7458 81.7023C99.3786 85.1097 99.3786 88.5983 98.7458 92.0057V92.0057ZM79.6644 95.4293C89.27 82.9355 75.0076 68.6731 62.5139 78.2787C52.9082 90.7725 67.1706 105.035 79.6644 95.4293ZM119.158 125.074L117.827 127.394C117.34 128.254 116.302 128.611 115.377 128.27C113.463 127.556 111.71 126.534 110.169 125.252C109.422 124.636 109.228 123.548 109.714 122.705L111.045 120.384C109.925 119.086 109.049 117.577 108.465 115.939H105.788C104.814 115.939 103.971 115.241 103.808 114.267C103.484 112.32 103.468 110.276 103.808 108.248C103.971 107.274 104.814 106.56 105.788 106.56H108.465C109.049 104.921 109.925 103.412 111.045 102.114L109.714 99.794C109.228 98.9502 109.406 97.8631 110.169 97.2465C111.71 95.9647 113.479 94.9425 115.377 94.2286C116.302 93.8878 117.34 94.2448 117.827 95.1048L119.158 97.425C120.861 97.1167 122.598 97.1167 124.301 97.425L125.632 95.1048C126.119 94.2448 127.157 93.8878 128.082 94.2286C129.997 94.9425 131.749 95.9647 133.29 97.2465C134.037 97.8631 134.231 98.9502 133.745 99.794L132.414 102.114C133.534 103.412 134.41 104.921 134.994 106.56H137.671C138.645 106.56 139.489 107.258 139.651 108.231C139.975 110.178 139.992 112.223 139.651 114.251C139.489 115.225 138.645 115.939 137.671 115.939H134.994C134.41 117.577 133.534 119.086 132.414 120.384L133.745 122.705C134.231 123.548 134.053 124.636 133.29 125.252C131.749 126.534 129.98 127.556 128.082 128.27C127.157 128.611 126.119 128.254 125.632 127.394L124.301 125.074C122.614 125.382 120.861 125.382 119.158 125.074ZM117.454 115.517C123.701 120.319 130.824 113.196 126.021 106.95C119.774 102.147 112.651 109.27 117.454 115.517V115.517Z" stroke="#EAE9F2" stroke-opacity="0.3" stroke-width="2" mask="url(#path-2-outside-1_705_6)"/>
</g>
<g opacity="0.75">
<path d="M27.5617 73.4062V99H22.2883V73.4062H27.5617ZM37.757 84.3398V88.4531H26.1203V84.3398H37.757ZM38.9875 73.4062V77.5371H26.1203V73.4062H38.9875ZM48.0535 73.4062V99H42.7977V73.4062H48.0535ZM69.8461 94.8867V99H56.9613V94.8867H69.8461ZM58.6664 73.4062V99H53.393V73.4062H58.6664ZM80.7051 73.4062V99H75.4492V73.4062H80.7051ZM88.5801 73.4062V77.5371H67.6973V73.4062H88.5801ZM109.16 94.8867V99H95.5367V94.8867H109.16ZM97.2594 73.4062V99H91.9859V73.4062H97.2594ZM107.384 83.8301V87.8379H95.5367V83.8301H107.384ZM109.142 73.4062V77.5371H95.5367V73.4062H109.142ZM112.636 73.4062H122.181C124.138 73.4062 125.82 73.6992 127.226 74.2852C128.644 74.8711 129.734 75.7383 130.495 76.8867C131.257 78.0352 131.638 79.4473 131.638 81.123C131.638 82.4941 131.404 83.6719 130.935 84.6562C130.478 85.6289 129.827 86.4434 128.984 87.0996C128.152 87.7441 127.173 88.2598 126.048 88.6465L124.378 89.5254H116.081L116.046 85.4121H122.216C123.142 85.4121 123.909 85.248 124.519 84.9199C125.128 84.5918 125.585 84.1348 125.89 83.5488C126.206 82.9629 126.364 82.2832 126.364 81.5098C126.364 80.6895 126.212 79.9805 125.907 79.3828C125.603 78.7852 125.14 78.3281 124.519 78.0117C123.898 77.6953 123.118 77.5371 122.181 77.5371H117.909V99H112.636V73.4062ZM126.945 99L121.109 87.5918L126.681 87.5566L132.587 98.7539V99H126.945ZM149.423 92.3027C149.423 91.8457 149.352 91.4355 149.212 91.0723C149.083 90.6973 148.837 90.3574 148.473 90.0527C148.11 89.7363 147.6 89.4258 146.944 89.1211C146.288 88.8164 145.438 88.5 144.395 88.1719C143.235 87.7969 142.134 87.375 141.091 86.9062C140.059 86.4375 139.145 85.8926 138.348 85.2715C137.563 84.6387 136.942 83.9062 136.485 83.0742C136.04 82.2422 135.817 81.2754 135.817 80.1738C135.817 79.1074 136.052 78.1406 136.52 77.2734C136.989 76.3945 137.645 75.6445 138.489 75.0234C139.333 74.3906 140.329 73.9043 141.477 73.5645C142.638 73.2246 143.909 73.0547 145.292 73.0547C147.179 73.0547 148.825 73.3945 150.231 74.0742C151.638 74.7539 152.727 75.6855 153.501 76.8691C154.286 78.0527 154.679 79.4062 154.679 80.9297H149.44C149.44 80.1797 149.282 79.5234 148.966 78.9609C148.661 78.3867 148.192 77.9355 147.559 77.6074C146.938 77.2793 146.153 77.1152 145.204 77.1152C144.29 77.1152 143.528 77.2559 142.919 77.5371C142.309 77.8066 141.852 78.1758 141.548 78.6445C141.243 79.1016 141.091 79.6172 141.091 80.1914C141.091 80.625 141.196 81.0176 141.407 81.3691C141.63 81.7207 141.958 82.0488 142.391 82.3535C142.825 82.6582 143.358 82.9453 143.991 83.2148C144.624 83.4844 145.356 83.748 146.188 84.0059C147.583 84.4277 148.807 84.9023 149.862 85.4297C150.929 85.957 151.819 86.5488 152.534 87.2051C153.249 87.8613 153.788 88.6055 154.151 89.4375C154.514 90.2695 154.696 91.2129 154.696 92.2676C154.696 93.3809 154.479 94.377 154.046 95.2559C153.612 96.1348 152.985 96.8789 152.165 97.4883C151.345 98.0977 150.366 98.5605 149.229 98.877C148.093 99.1934 146.821 99.3516 145.415 99.3516C144.149 99.3516 142.901 99.1875 141.671 98.8594C140.44 98.5195 139.321 98.0098 138.313 97.3301C137.317 96.6504 136.52 95.7832 135.923 94.7285C135.325 93.6738 135.026 92.4258 135.026 90.9844H140.317C140.317 91.7812 140.44 92.4551 140.686 93.0059C140.932 93.5566 141.278 94.002 141.723 94.3418C142.18 94.6816 142.72 94.9277 143.341 95.0801C143.973 95.2324 144.665 95.3086 145.415 95.3086C146.329 95.3086 147.079 95.1797 147.665 94.9219C148.263 94.6641 148.702 94.3066 148.983 93.8496C149.276 93.3926 149.423 92.877 149.423 92.3027Z" fill="black"/>
<path d="M27.5617 73.4062H28.0617V72.9062H27.5617V73.4062ZM27.5617 99V99.5H28.0617V99H27.5617ZM22.2883 99H21.7883V99.5H22.2883V99ZM22.2883 73.4062V72.9062H21.7883V73.4062H22.2883ZM37.757 84.3398H38.257V83.8398H37.757V84.3398ZM37.757 88.4531V88.9531H38.257V88.4531H37.757ZM26.1203 88.4531H25.6203V88.9531H26.1203V88.4531ZM26.1203 84.3398V83.8398H25.6203V84.3398H26.1203ZM38.9875 73.4062H39.4875V72.9062H38.9875V73.4062ZM38.9875 77.5371V78.0371H39.4875V77.5371H38.9875ZM26.1203 77.5371H25.6203V78.0371H26.1203V77.5371ZM26.1203 73.4062V72.9062H25.6203V73.4062H26.1203ZM27.0617 73.4062V99H28.0617V73.4062H27.0617ZM27.5617 98.5H22.2883V99.5H27.5617V98.5ZM22.7883 99V73.4062H21.7883V99H22.7883ZM22.2883 73.9062H27.5617V72.9062H22.2883V73.9062ZM37.257 84.3398V88.4531H38.257V84.3398H37.257ZM37.757 87.9531H26.1203V88.9531H37.757V87.9531ZM26.6203 88.4531V84.3398H25.6203V88.4531H26.6203ZM26.1203 84.8398H37.757V83.8398H26.1203V84.8398ZM38.4875 73.4062V77.5371H39.4875V73.4062H38.4875ZM38.9875 77.0371H26.1203V78.0371H38.9875V77.0371ZM26.6203 77.5371V73.4062H25.6203V77.5371H26.6203ZM26.1203 73.9062H38.9875V72.9062H26.1203V73.9062ZM48.0535 73.4062H48.5535V72.9062H48.0535V73.4062ZM48.0535 99V99.5H48.5535V99H48.0535ZM42.7977 99H42.2977V99.5H42.7977V99ZM42.7977 73.4062V72.9062H42.2977V73.4062H42.7977ZM47.5535 73.4062V99H48.5535V73.4062H47.5535ZM48.0535 98.5H42.7977V99.5H48.0535V98.5ZM43.2977 99V73.4062H42.2977V99H43.2977ZM42.7977 73.9062H48.0535V72.9062H42.7977V73.9062ZM69.8461 94.8867H70.3461V94.3867H69.8461V94.8867ZM69.8461 99V99.5H70.3461V99H69.8461ZM56.9613 99H56.4613V99.5H56.9613V99ZM56.9613 94.8867V94.3867H56.4613V94.8867H56.9613ZM58.6664 73.4062H59.1664V72.9062H58.6664V73.4062ZM58.6664 99V99.5H59.1664V99H58.6664ZM53.393 99H52.893V99.5H53.393V99ZM53.393 73.4062V72.9062H52.893V73.4062H53.393ZM69.3461 94.8867V99H70.3461V94.8867H69.3461ZM69.8461 98.5H56.9613V99.5H69.8461V98.5ZM57.4613 99V94.8867H56.4613V99H57.4613ZM56.9613 95.3867H69.8461V94.3867H56.9613V95.3867ZM58.1664 73.4062V99H59.1664V73.4062H58.1664ZM58.6664 98.5H53.393V99.5H58.6664V98.5ZM53.893 99V73.4062H52.893V99H53.893ZM53.393 73.9062H58.6664V72.9062H53.393V73.9062ZM80.7051 73.4062H81.2051V72.9062H80.7051V73.4062ZM80.7051 99V99.5H81.2051V99H80.7051ZM75.4492 99H74.9492V99.5H75.4492V99ZM75.4492 73.4062V72.9062H74.9492V73.4062H75.4492ZM88.5801 73.4062H89.0801V72.9062H88.5801V73.4062ZM88.5801 77.5371V78.0371H89.0801V77.5371H88.5801ZM67.6973 77.5371H67.1973V78.0371H67.6973V77.5371ZM67.6973 73.4062V72.9062H67.1973V73.4062H67.6973ZM80.2051 73.4062V99H81.2051V73.4062H80.2051ZM80.7051 98.5H75.4492V99.5H80.7051V98.5ZM75.9492 99V73.4062H74.9492V99H75.9492ZM75.4492 73.9062H80.7051V72.9062H75.4492V73.9062ZM88.0801 73.4062V77.5371H89.0801V73.4062H88.0801ZM88.5801 77.0371H67.6973V78.0371H88.5801V77.0371ZM68.1973 77.5371V73.4062H67.1973V77.5371H68.1973ZM67.6973 73.9062H88.5801V72.9062H67.6973V73.9062ZM109.16 94.8867H109.66V94.3867H109.16V94.8867ZM109.16 99V99.5H109.66V99H109.16ZM95.5367 99H95.0367V99.5H95.5367V99ZM95.5367 94.8867V94.3867H95.0367V94.8867H95.5367ZM97.2594 73.4062H97.7594V72.9062H97.2594V73.4062ZM97.2594 99V99.5H97.7594V99H97.2594ZM91.9859 99H91.4859V99.5H91.9859V99ZM91.9859 73.4062V72.9062H91.4859V73.4062H91.9859ZM107.384 83.8301H107.884V83.3301H107.384V83.8301ZM107.384 87.8379V88.3379H107.884V87.8379H107.384ZM95.5367 87.8379H95.0367V88.3379H95.5367V87.8379ZM95.5367 83.8301V83.3301H95.0367V83.8301H95.5367ZM109.142 73.4062H109.642V72.9062H109.142V73.4062ZM109.142 77.5371V78.0371H109.642V77.5371H109.142ZM95.5367 77.5371H95.0367V78.0371H95.5367V77.5371ZM95.5367 73.4062V72.9062H95.0367V73.4062H95.5367ZM108.66 94.8867V99H109.66V94.8867H108.66ZM109.16 98.5H95.5367V99.5H109.16V98.5ZM96.0367 99V94.8867H95.0367V99H96.0367ZM95.5367 95.3867H109.16V94.3867H95.5367V95.3867ZM96.7594 73.4062V99H97.7594V73.4062H96.7594ZM97.2594 98.5H91.9859V99.5H97.2594V98.5ZM92.4859 99V73.4062H91.4859V99H92.4859ZM91.9859 73.9062H97.2594V72.9062H91.9859V73.9062ZM106.884 83.8301V87.8379H107.884V83.8301H106.884ZM107.384 87.3379H95.5367V88.3379H107.384V87.3379ZM96.0367 87.8379V83.8301H95.0367V87.8379H96.0367ZM95.5367 84.3301H107.384V83.3301H95.5367V84.3301ZM108.642 73.4062V77.5371H109.642V73.4062H108.642ZM109.142 77.0371H95.5367V78.0371H109.142V77.0371ZM96.0367 77.5371V73.4062H95.0367V77.5371H96.0367ZM95.5367 73.9062H109.142V72.9062H95.5367V73.9062ZM112.636 73.4062V72.9062H112.136V73.4062H112.636ZM127.226 74.2852L127.033 74.7467L127.035 74.7473L127.226 74.2852ZM130.935 84.6562L130.483 84.4413L130.482 84.4436L130.935 84.6562ZM128.984 87.0996L129.29 87.4949L129.291 87.4943L128.984 87.0996ZM126.048 88.6465L125.886 88.1736L125.849 88.1861L125.815 88.204L126.048 88.6465ZM124.378 89.5254V90.0254H124.502L124.611 89.9678L124.378 89.5254ZM116.081 89.5254L115.581 89.5297L115.586 90.0254H116.081V89.5254ZM116.046 85.4121V84.9121H115.542L115.546 85.4164L116.046 85.4121ZM125.89 83.5488L125.45 83.3112L125.446 83.3182L125.89 83.5488ZM117.909 77.5371V77.0371H117.409V77.5371H117.909ZM117.909 99V99.5H118.409V99H117.909ZM112.636 99H112.136V99.5H112.636V99ZM126.945 99L126.499 99.2277L126.639 99.5H126.945V99ZM121.109 87.5918L121.105 87.0918L120.294 87.0969L120.663 87.8195L121.109 87.5918ZM126.681 87.5566L127.123 87.3234L126.981 87.0547L126.678 87.0567L126.681 87.5566ZM132.587 98.7539H133.087V98.6301L133.029 98.5206L132.587 98.7539ZM132.587 99V99.5H133.087V99H132.587ZM112.636 73.9062H122.181V72.9062H112.636V73.9062ZM122.181 73.9062C124.09 73.9062 125.703 74.1923 127.033 74.7467L127.418 73.8236C125.936 73.2062 124.186 72.9062 122.181 72.9062V73.9062ZM127.035 74.7473C128.372 75.2996 129.378 76.1069 130.079 77.1631L130.912 76.6104C130.089 75.3696 128.916 74.4426 127.417 73.8231L127.035 74.7473ZM130.079 77.1631C130.775 78.2134 131.138 79.5241 131.138 81.123H132.138C132.138 79.3704 131.739 77.8569 130.912 76.6104L130.079 77.1631ZM131.138 81.123C131.138 82.4384 130.913 83.5391 130.483 84.4413L131.386 84.8712C131.894 83.8047 132.138 82.5499 132.138 81.123H131.138ZM130.482 84.4436C130.059 85.3454 129.458 86.0973 128.677 86.7049L129.291 87.4943C130.197 86.7894 130.897 85.9124 131.387 84.8689L130.482 84.4436ZM128.677 86.7043C127.894 87.3113 126.965 87.8024 125.886 88.1736L126.211 89.1193C127.381 88.7171 128.409 88.177 129.29 87.4949L128.677 86.7043ZM125.815 88.204L124.145 89.0829L124.611 89.9678L126.281 89.0889L125.815 88.204ZM124.378 89.0254H116.081V90.0254H124.378V89.0254ZM116.581 89.5211L116.546 85.4078L115.546 85.4164L115.581 89.5297L116.581 89.5211ZM116.046 85.9121H122.216V84.9121H116.046V85.9121ZM122.216 85.9121C123.198 85.9121 124.053 85.7385 124.756 85.3602L124.282 84.4797C123.766 84.7576 123.086 84.9121 122.216 84.9121V85.9121ZM124.756 85.3602C125.449 84.9869 125.98 84.4588 126.333 83.7795L125.446 83.3182C125.19 83.8107 124.807 84.1967 124.282 84.4797L124.756 85.3602ZM126.33 83.7864C126.692 83.1165 126.864 82.3527 126.864 81.5098H125.864C125.864 82.2137 125.721 82.8093 125.45 83.3113L126.33 83.7864ZM126.864 81.5098C126.864 80.6278 126.701 79.8377 126.353 79.1557L125.462 79.6099C125.724 80.1233 125.864 80.7511 125.864 81.5098H126.864ZM126.353 79.1557C125.998 78.4602 125.457 77.9285 124.746 77.5662L124.292 78.4572C124.823 78.7277 125.207 79.1101 125.462 79.6099L126.353 79.1557ZM124.746 77.5662C124.034 77.2038 123.171 77.0371 122.181 77.0371V78.0371C123.065 78.0371 123.761 78.1868 124.292 78.4572L124.746 77.5662ZM122.181 77.0371H117.909V78.0371H122.181V77.0371ZM117.409 77.5371V99H118.409V77.5371H117.409ZM117.909 98.5H112.636V99.5H117.909V98.5ZM113.136 99V73.4062H112.136V99H113.136ZM127.39 98.7723L121.554 87.3641L120.663 87.8195L126.499 99.2277L127.39 98.7723ZM121.112 88.0918L126.684 88.0566L126.678 87.0567L121.105 87.0918L121.112 88.0918ZM126.239 87.7899L132.145 98.9872L133.029 98.5206L127.123 87.3234L126.239 87.7899ZM132.087 98.7539V99H133.087V98.7539H132.087ZM132.587 98.5H126.945V99.5H132.587V98.5ZM149.212 91.0723L148.739 91.2348L148.742 91.2438L148.745 91.2528L149.212 91.0723ZM148.473 90.0527L148.145 90.4298L148.152 90.4358L148.473 90.0527ZM144.395 88.1719L144.242 88.6477L144.245 88.6488L144.395 88.1719ZM141.091 86.9062L140.884 87.3614L140.886 87.3623L141.091 86.9062ZM138.348 85.2715L138.035 85.6608L138.041 85.6658L138.348 85.2715ZM136.485 83.0742L136.044 83.3102L136.047 83.3149L136.485 83.0742ZM136.52 77.2734L136.96 77.5112L136.962 77.5087L136.52 77.2734ZM138.489 75.0234L138.785 75.4261L138.789 75.4234L138.489 75.0234ZM141.477 73.5645L141.337 73.0846L141.335 73.085L141.477 73.5645ZM153.501 76.8691L153.082 77.1427L153.084 77.1455L153.501 76.8691ZM154.679 80.9297V81.4297H155.179V80.9297H154.679ZM149.44 80.9297H148.94V81.4297H149.44V80.9297ZM148.966 78.9609L148.524 79.1954L148.53 79.2061L148.966 78.9609ZM147.559 77.6074L147.326 78.0495L147.329 78.0513L147.559 77.6074ZM142.919 77.5371L143.121 77.9944L143.128 77.9911L142.919 77.5371ZM141.548 78.6445L141.964 78.9219L141.967 78.917L141.548 78.6445ZM141.407 81.3691L140.978 81.6265L140.985 81.6367L141.407 81.3691ZM146.188 84.0059L146.04 84.4835L146.044 84.4844L146.188 84.0059ZM149.862 85.4297L149.639 85.8769L149.64 85.8779L149.862 85.4297ZM141.671 98.8594L141.538 99.3413L141.542 99.3425L141.671 98.8594ZM138.313 97.3301L138.031 97.7431L138.034 97.7446L138.313 97.3301ZM135.026 90.9844V90.4844H134.526V90.9844H135.026ZM140.317 90.9844H140.817V90.4844H140.317V90.9844ZM141.723 94.3418L141.42 94.7393L141.425 94.743L141.723 94.3418ZM143.341 95.0801L143.222 95.5657L143.224 95.5662L143.341 95.0801ZM147.665 94.9219L147.467 94.4628L147.463 94.4642L147.665 94.9219ZM148.983 93.8496L148.562 93.5797L148.557 93.5876L148.983 93.8496ZM149.923 92.3027C149.923 91.7945 149.844 91.3217 149.678 90.8918L148.745 91.2528C148.86 91.5494 148.923 91.8969 148.923 92.3027H149.923ZM149.685 90.9097C149.521 90.4333 149.214 90.0212 148.795 89.6696L148.152 90.4358C148.46 90.6936 148.645 90.9612 148.739 91.2348L149.685 90.9097ZM148.802 89.6757C148.39 89.3171 147.835 88.9832 147.155 88.6676L146.734 89.5746C147.366 89.8683 147.83 90.1556 148.145 90.4298L148.802 89.6757ZM147.155 88.6676C146.472 88.3504 145.6 88.0266 144.545 87.6949L144.245 88.6488C145.277 88.9734 146.104 89.2824 146.734 89.5746L147.155 88.6676ZM144.549 87.6961C143.405 87.3264 142.321 86.911 141.296 86.4502L140.886 87.3623C141.946 87.839 143.065 88.2674 144.242 88.6476L144.549 87.6961ZM141.298 86.4511C140.298 85.9966 139.418 85.4714 138.656 84.8771L138.041 85.6658C138.872 86.3138 139.821 86.8784 140.884 87.3614L141.298 86.4511ZM138.662 84.8822C137.925 84.2877 137.347 83.6049 136.923 82.8335L136.047 83.3149C136.537 84.2076 137.202 84.9896 138.035 85.6608L138.662 84.8822ZM136.926 82.8383C136.526 82.0901 136.317 81.2069 136.317 80.1738H135.317C135.317 81.3439 135.554 82.3943 136.044 83.3102L136.926 82.8383ZM136.317 80.1738C136.317 79.1835 136.534 78.2995 136.96 77.5112L136.08 77.0357C135.569 77.9818 135.317 79.0314 135.317 80.1738H136.317ZM136.962 77.5087C137.393 76.6991 137.999 76.0053 138.785 75.4261L138.193 74.6208C137.292 75.2838 136.585 76.0899 136.079 77.0381L136.962 77.5087ZM138.789 75.4234C139.579 74.8308 140.52 74.3691 141.619 74.0439L141.335 73.085C140.138 73.4395 139.086 73.9505 138.189 74.6234L138.789 75.4234ZM141.618 74.0443C142.726 73.7196 143.95 73.5547 145.292 73.5547V72.5547C143.868 72.5547 142.549 72.7296 141.337 73.0846L141.618 74.0443ZM145.292 73.5547C147.119 73.5547 148.688 73.8836 150.014 74.5244L150.449 73.624C148.962 72.9054 147.238 72.5547 145.292 72.5547V73.5547ZM150.014 74.5244C151.347 75.1688 152.364 76.0429 153.082 77.1427L153.919 76.5956C153.091 75.3282 151.928 74.339 150.449 73.624L150.014 74.5244ZM153.084 77.1455C153.811 78.2412 154.179 79.4971 154.179 80.9297H155.179C155.179 79.3154 154.761 77.8643 153.917 76.5927L153.084 77.1455ZM154.679 80.4297H149.44V81.4297H154.679V80.4297ZM149.94 80.9297C149.94 80.1079 149.766 79.3645 149.401 78.7158L148.53 79.2061C148.798 79.6824 148.94 80.2515 148.94 80.9297H149.94ZM149.407 78.7266C149.05 78.054 148.503 77.5337 147.79 77.1635L147.329 78.0513C147.881 78.3374 148.271 78.7194 148.524 79.1953L149.407 78.7266ZM147.793 77.1653C147.079 76.7882 146.207 76.6152 145.204 76.6152V77.6152C146.099 77.6152 146.798 77.7704 147.326 78.0495L147.793 77.1653ZM145.204 76.6152C144.242 76.6152 143.404 76.7627 142.709 77.0831L143.128 77.9911C143.653 77.749 144.337 77.6152 145.204 77.6152V76.6152ZM142.717 77.0798C142.036 77.381 141.495 77.8074 141.128 78.372L141.967 78.917C142.209 78.5441 142.583 78.2323 143.121 77.9944L142.717 77.0798ZM141.132 78.3672C140.77 78.9102 140.591 79.5232 140.591 80.1914H141.591C141.591 79.7112 141.716 79.2929 141.964 78.9219L141.132 78.3672ZM140.591 80.1914C140.591 80.7102 140.718 81.1926 140.978 81.6264L141.836 81.1119C141.674 80.8426 141.591 80.5398 141.591 80.1914H140.591ZM140.985 81.6367C141.251 82.0568 141.631 82.43 142.104 82.7626L142.679 81.9444C142.285 81.6676 142.009 81.3846 141.829 81.1016L140.985 81.6367ZM142.104 82.7626C142.573 83.0924 143.139 83.3954 143.795 83.6749L144.187 82.7548C143.577 82.4952 143.077 82.2241 142.679 81.9444L142.104 82.7626ZM143.795 83.6749C144.447 83.9525 145.196 84.2219 146.04 84.4835L146.336 83.5283C145.516 83.2742 144.801 83.0162 144.187 82.7548L143.795 83.6749ZM146.044 84.4844C147.417 84.8999 148.614 85.3648 149.639 85.8769L150.086 84.9825C149.001 84.4399 147.749 83.9555 146.333 83.5273L146.044 84.4844ZM149.64 85.8779C150.674 86.3888 151.523 86.9554 152.196 87.5734L152.872 86.8368C152.116 86.1422 151.183 85.5253 150.084 84.9815L149.64 85.8779ZM152.196 87.5734C152.863 88.1858 153.359 88.8737 153.693 89.6376L154.609 89.2374C154.216 88.3372 153.635 87.5368 152.872 86.8368L152.196 87.5734ZM153.693 89.6376C154.025 90.3971 154.196 91.2707 154.196 92.2676H155.196C155.196 91.1551 155.004 90.1419 154.609 89.2374L153.693 89.6376ZM154.196 92.2676C154.196 93.3146 153.993 94.2334 153.597 95.0346L154.494 95.4771C154.966 94.5205 155.196 93.4471 155.196 92.2676H154.196ZM153.597 95.0346C153.2 95.8394 152.626 96.5227 151.867 97.0869L152.463 97.8897C153.344 97.2351 154.024 96.4302 154.494 95.4771L153.597 95.0346ZM151.867 97.0869C151.103 97.6545 150.182 98.0928 149.095 98.3953L149.363 99.3586C150.55 99.0283 151.586 98.5408 152.463 97.8897L151.867 97.0869ZM149.095 98.3953C148.01 98.6975 146.784 98.8516 145.415 98.8516V99.8516C146.858 99.8516 148.176 99.6893 149.363 99.3586L149.095 98.3953ZM145.415 98.8516C144.193 98.8516 142.988 98.6932 141.8 98.3763L141.542 99.3425C142.814 99.6818 144.105 99.8516 145.415 99.8516V98.8516ZM141.804 98.3774C140.623 98.0513 139.554 97.5635 138.593 96.9155L138.034 97.7446C139.089 98.456 140.258 98.9878 141.538 99.3413L141.804 98.3774ZM138.595 96.9171C137.662 96.2807 136.918 95.4706 136.358 94.482L135.488 94.975C136.123 96.0958 136.972 97.0201 138.031 97.7431L138.595 96.9171ZM136.358 94.482C135.81 93.5156 135.526 92.3557 135.526 90.9844H134.526C134.526 92.4958 134.84 93.8321 135.488 94.975L136.358 94.482ZM135.026 91.4844H140.317V90.4844H135.026V91.4844ZM139.817 90.9844C139.817 91.8301 139.947 92.5778 140.23 93.2098L141.143 92.8019C140.933 92.3324 140.817 91.7324 140.817 90.9844H139.817ZM140.23 93.2098C140.507 93.8309 140.903 94.3449 141.42 94.7393L142.027 93.9443C141.653 93.659 141.358 93.2824 141.143 92.8019L140.23 93.2098ZM141.425 94.743C141.942 95.1273 142.544 95.3994 143.222 95.5657L143.46 94.5945C142.895 94.4561 142.419 94.236 142.022 93.9406L141.425 94.743ZM143.224 95.5662C143.9 95.729 144.631 95.8086 145.415 95.8086V94.8086C144.698 94.8086 144.047 94.7358 143.458 94.594L143.224 95.5662ZM145.415 95.8086C146.371 95.8086 147.196 95.6745 147.866 95.3795L147.463 94.4642C146.962 94.6848 146.287 94.8086 145.415 94.8086V95.8086ZM147.863 95.381C148.534 95.0913 149.063 94.6734 149.409 94.1117L148.557 93.5876C148.341 93.9398 147.991 94.2369 147.467 94.4628L147.863 95.381ZM149.404 94.1194C149.752 93.5771 149.923 92.9668 149.923 92.3027H148.923C148.923 92.7871 148.801 93.208 148.562 93.5798L149.404 94.1194Z" fill="#E5E5E5"/>
</g>
<defs>
<filter id="filter0_ddd_705_6" x="0" y="0" width="176" height="176" filterUnits="userSpaceOnUse" color-interpolation-filters="sRGB">
<feFlood flood-opacity="0" result="BackgroundImageFix"/>
<feColorMatrix in="SourceAlpha" type="matrix" values="0 0 0 0 0 0 0 0 0 0 0 0 0 0 0 0 0 0 127 0" result="hardAlpha"/>
<feOffset dy="6"/>
<feGaussianBlur stdDeviation="5"/>
<feColorMatrix type="matrix" values="0 0 0 0 0 0 0 0 0 0 0 0 0 0 0 0 0 0 0.14 0"/>
<feBlend mode="normal" in2="BackgroundImageFix" result="effect1_dropShadow_705_6"/>
<feColorMatrix in="SourceAlpha" type="matrix" values="0 0 0 0 0 0 0 0 0 0 0 0 0 0 0 0 0 0 127 0" result="hardAlpha"/>
<feOffset dy="1"/>
<feGaussianBlur stdDeviation="9"/>
<feColorMatrix type="matrix" values="0 0 0 0 0 0 0 0 0 0 0 0 0 0 0 0 0 0 0.12 0"/>
<feBlend mode="normal" in2="effect1_dropShadow_705_6" result="effect2_dropShadow_705_6"/>
<feColorMatrix in="SourceAlpha" type="matrix" values="0 0 0 0 0 0 0 0 0 0 0 0 0 0 0 0 0 0 127 0" result="hardAlpha"/>
<feOffset dy="3"/>
<feGaussianBlur stdDeviation="2.5"/>
<feColorMatrix type="matrix" values="0 0 0 0 0 0 0 0 0 0 0 0 0 0 0 0 0 0 0.2 0"/>
<feBlend mode="normal" in2="effect2_dropShadow_705_6" result="effect3_dropShadow_705_6"/>
<feBlend mode="normal" in="SourceGraphic" in2="effect3_dropShadow_705_6" result="shape"/>
</filter>
<filter id="filter1_d_705_6" x="31.064" y="44.6025" width="113.836" height="92.7949" filterUnits="userSpaceOnUse" color-interpolation-filters="sRGB">
<feFlood flood-opacity="0" result="BackgroundImageFix"/>
<feColorMatrix in="SourceAlpha" type="matrix" values="0 0 0 0 0 0 0 0 0 0 0 0 0 0 0 0 0 0 127 0" result="hardAlpha"/>
<feOffset dy="4"/>
<feGaussianBlur stdDeviation="2"/>
<feComposite in2="hardAlpha" operator="out"/>
<feColorMatrix type="matrix" values="0 0 0 0 0 0 0 0 0 0 0 0 0 0 0 0 0 0 0.25 0"/>
<feBlend mode="normal" in2="BackgroundImageFix" result="effect1_dropShadow_705_6"/>
<feBlend mode="normal" in="SourceGraphic" in2="effect1_dropShadow_705_6" result="shape"/>
</filter>
</defs>
</svg>
