<svg width="120" height="48" viewBox="0 0 120 48" fill="none" xmlns="http://www.w3.org/2000/svg">
<rect y="4" width="120" height="40" rx="4" fill="#211551"/>
<path d="M23.1406 26.0703C23.1406 25.8359 23.1042 25.6276 23.0312 25.4453C22.9635 25.263 22.8411 25.0964 22.6641 24.9453C22.487 24.7943 22.237 24.6484 21.9141 24.5078C21.5964 24.362 21.1901 24.2135 20.6953 24.0625C20.1536 23.8958 19.6536 23.7109 19.1953 23.5078C18.7422 23.2995 18.3464 23.0599 18.0078 22.7891C17.6693 22.513 17.4062 22.1979 17.2188 21.8438C17.0312 21.4844 16.9375 21.0703 16.9375 20.6016C16.9375 20.138 17.0339 19.7161 17.2266 19.3359C17.4245 18.9557 17.7031 18.6276 18.0625 18.3516C18.4271 18.0703 18.8568 17.8542 19.3516 17.7031C19.8464 17.5469 20.3932 17.4688 20.9922 17.4688C21.8359 17.4688 22.5625 17.625 23.1719 17.9375C23.7865 18.25 24.2578 18.6693 24.5859 19.1953C24.9193 19.7214 25.0859 20.3021 25.0859 20.9375H23.1406C23.1406 20.5625 23.0599 20.2318 22.8984 19.9453C22.7422 19.6536 22.5026 19.4245 22.1797 19.2578C21.862 19.0911 21.4583 19.0078 20.9688 19.0078C20.5052 19.0078 20.1198 19.0781 19.8125 19.2188C19.5052 19.3594 19.276 19.5495 19.125 19.7891C18.974 20.0286 18.8984 20.2995 18.8984 20.6016C18.8984 20.8151 18.9479 21.0104 19.0469 21.1875C19.1458 21.3594 19.2969 21.5208 19.5 21.6719C19.7031 21.8177 19.9583 21.9557 20.2656 22.0859C20.5729 22.2161 20.9349 22.3411 21.3516 22.4609C21.9818 22.6484 22.5312 22.8568 23 23.0859C23.4688 23.3099 23.8594 23.5651 24.1719 23.8516C24.4844 24.138 24.7188 24.4635 24.875 24.8281C25.0312 25.1875 25.1094 25.5964 25.1094 26.0547C25.1094 26.5339 25.013 26.9661 24.8203 27.3516C24.6276 27.7318 24.3516 28.0573 23.9922 28.3281C23.638 28.5938 23.2109 28.7995 22.7109 28.9453C22.2161 29.0859 21.6641 29.1562 21.0547 29.1562C20.5078 29.1562 19.9688 29.0833 19.4375 28.9375C18.9115 28.7917 18.4323 28.5703 18 28.2734C17.5677 27.9714 17.224 27.5964 16.9688 27.1484C16.7135 26.6953 16.5859 26.1667 16.5859 25.5625H18.5469C18.5469 25.9323 18.6094 26.2474 18.7344 26.5078C18.8646 26.7682 19.0443 26.9818 19.2734 27.1484C19.5026 27.3099 19.7682 27.4297 20.0703 27.5078C20.3776 27.5859 20.7057 27.625 21.0547 27.625C21.513 27.625 21.8958 27.5599 22.2031 27.4297C22.5156 27.2995 22.75 27.1172 22.9062 26.8828C23.0625 26.6484 23.1406 26.3776 23.1406 26.0703ZM31.7422 27.0078V20.5469H33.6328V29H31.8516L31.7422 27.0078ZM32.0078 25.25L32.6406 25.2344C32.6406 25.8021 32.5781 26.3255 32.4531 26.8047C32.3281 27.2786 32.1354 27.6927 31.875 28.0469C31.6146 28.3958 31.2812 28.6693 30.875 28.8672C30.4688 29.0599 29.9818 29.1562 29.4141 29.1562C29.0026 29.1562 28.625 29.0964 28.2812 28.9766C27.9375 28.8568 27.6406 28.6719 27.3906 28.4219C27.1458 28.1719 26.9557 27.8464 26.8203 27.4453C26.6849 27.0443 26.6172 26.5651 26.6172 26.0078V20.5469H28.5V26.0234C28.5 26.3307 28.5365 26.5885 28.6094 26.7969C28.6823 27 28.7812 27.1641 28.9062 27.2891C29.0312 27.4141 29.1771 27.5026 29.3438 27.5547C29.5104 27.6068 29.6875 27.6328 29.875 27.6328C30.4115 27.6328 30.8333 27.5286 31.1406 27.3203C31.4531 27.1068 31.6745 26.8203 31.8047 26.4609C31.9401 26.1016 32.0078 25.6979 32.0078 25.25ZM37.4453 22.2656V29H35.5625V20.5469H37.3359L37.4453 22.2656ZM37.1406 24.4609L36.5 24.4531C36.5 23.8698 36.5729 23.3307 36.7188 22.8359C36.8646 22.3411 37.0781 21.9115 37.3594 21.5469C37.6406 21.1771 37.9896 20.8932 38.4062 20.6953C38.8281 20.4922 39.3151 20.3906 39.8672 20.3906C40.2526 20.3906 40.6042 20.4479 40.9219 20.5625C41.2448 20.6719 41.5234 20.8464 41.7578 21.0859C41.9974 21.3255 42.1797 21.6328 42.3047 22.0078C42.4349 22.3828 42.5 22.8359 42.5 23.3672V29H40.6172V23.5312C40.6172 23.1198 40.5547 22.7969 40.4297 22.5625C40.3099 22.3281 40.1354 22.1615 39.9062 22.0625C39.6823 21.9583 39.4141 21.9062 39.1016 21.9062C38.7474 21.9062 38.4453 21.974 38.1953 22.1094C37.9505 22.2448 37.75 22.4297 37.5938 22.6641C37.4375 22.8984 37.3229 23.1693 37.25 23.4766C37.1771 23.7839 37.1406 24.112 37.1406 24.4609ZM42.3828 23.9609L41.5 24.1562C41.5 23.6458 41.5703 23.1641 41.7109 22.7109C41.8568 22.2526 42.0677 21.8516 42.3438 21.5078C42.625 21.1589 42.9714 20.8854 43.3828 20.6875C43.7943 20.4896 44.2656 20.3906 44.7969 20.3906C45.2292 20.3906 45.6146 20.4505 45.9531 20.5703C46.2969 20.6849 46.5885 20.8672 46.8281 21.1172C47.0677 21.3672 47.25 21.6927 47.375 22.0938C47.5 22.4896 47.5625 22.9688 47.5625 23.5312V29H45.6719V23.5234C45.6719 23.0964 45.6094 22.7656 45.4844 22.5312C45.3646 22.2969 45.1927 22.1354 44.9688 22.0469C44.7448 21.9531 44.4766 21.9062 44.1641 21.9062C43.8724 21.9062 43.6146 21.9609 43.3906 22.0703C43.1719 22.1745 42.987 22.3229 42.8359 22.5156C42.6849 22.7031 42.5703 22.9193 42.4922 23.1641C42.4193 23.4089 42.3828 23.6745 42.3828 23.9609ZM51.3828 22.2656V29H49.5V20.5469H51.2734L51.3828 22.2656ZM51.0781 24.4609L50.4375 24.4531C50.4375 23.8698 50.5104 23.3307 50.6562 22.8359C50.8021 22.3411 51.0156 21.9115 51.2969 21.5469C51.5781 21.1771 51.9271 20.8932 52.3438 20.6953C52.7656 20.4922 53.2526 20.3906 53.8047 20.3906C54.1901 20.3906 54.5417 20.4479 54.8594 20.5625C55.1823 20.6719 55.4609 20.8464 55.6953 21.0859C55.9349 21.3255 56.1172 21.6328 56.2422 22.0078C56.3724 22.3828 56.4375 22.8359 56.4375 23.3672V29H54.5547V23.5312C54.5547 23.1198 54.4922 22.7969 54.3672 22.5625C54.2474 22.3281 54.0729 22.1615 53.8438 22.0625C53.6198 21.9583 53.3516 21.9062 53.0391 21.9062C52.6849 21.9062 52.3828 21.974 52.1328 22.1094C51.888 22.2448 51.6875 22.4297 51.5312 22.6641C51.375 22.8984 51.2604 23.1693 51.1875 23.4766C51.1146 23.7839 51.0781 24.112 51.0781 24.4609ZM56.3203 23.9609L55.4375 24.1562C55.4375 23.6458 55.5078 23.1641 55.6484 22.7109C55.7943 22.2526 56.0052 21.8516 56.2812 21.5078C56.5625 21.1589 56.9089 20.8854 57.3203 20.6875C57.7318 20.4896 58.2031 20.3906 58.7344 20.3906C59.1667 20.3906 59.5521 20.4505 59.8906 20.5703C60.2344 20.6849 60.526 20.8672 60.7656 21.1172C61.0052 21.3672 61.1875 21.6927 61.3125 22.0938C61.4375 22.4896 61.5 22.9688 61.5 23.5312V29H59.6094V23.5234C59.6094 23.0964 59.5469 22.7656 59.4219 22.5312C59.3021 22.2969 59.1302 22.1354 58.9062 22.0469C58.6823 21.9531 58.4141 21.9062 58.1016 21.9062C57.8099 21.9062 57.5521 21.9609 57.3281 22.0703C57.1094 22.1745 56.9245 22.3229 56.7734 22.5156C56.6224 22.7031 56.5078 22.9193 56.4297 23.1641C56.3568 23.4089 56.3203 23.6745 56.3203 23.9609ZM68.2031 27.3047V23.2734C68.2031 22.9714 68.1484 22.7109 68.0391 22.4922C67.9297 22.2734 67.763 22.1042 67.5391 21.9844C67.3203 21.8646 67.0443 21.8047 66.7109 21.8047C66.4036 21.8047 66.138 21.8568 65.9141 21.9609C65.6901 22.0651 65.5156 22.2057 65.3906 22.3828C65.2656 22.5599 65.2031 22.7604 65.2031 22.9844H63.3281C63.3281 22.651 63.4089 22.3281 63.5703 22.0156C63.7318 21.7031 63.9661 21.4245 64.2734 21.1797C64.5807 20.9349 64.9479 20.7422 65.375 20.6016C65.8021 20.4609 66.2812 20.3906 66.8125 20.3906C67.4479 20.3906 68.0104 20.4974 68.5 20.7109C68.9948 20.9245 69.3828 21.2474 69.6641 21.6797C69.9505 22.1068 70.0938 22.6432 70.0938 23.2891V27.0469C70.0938 27.4323 70.1198 27.7786 70.1719 28.0859C70.2292 28.388 70.3099 28.651 70.4141 28.875V29H68.4844C68.3958 28.7969 68.3255 28.5391 68.2734 28.2266C68.2266 27.9089 68.2031 27.6016 68.2031 27.3047ZM68.4766 23.8594L68.4922 25.0234H67.1406C66.7917 25.0234 66.4844 25.0573 66.2188 25.125C65.9531 25.1875 65.7318 25.2812 65.5547 25.4062C65.3776 25.5312 65.2448 25.6823 65.1562 25.8594C65.0677 26.0365 65.0234 26.237 65.0234 26.4609C65.0234 26.6849 65.0755 26.8906 65.1797 27.0781C65.2839 27.2604 65.4349 27.4036 65.6328 27.5078C65.8359 27.612 66.0807 27.6641 66.3672 27.6641C66.7526 27.6641 67.0885 27.5859 67.375 27.4297C67.6667 27.2682 67.8958 27.0729 68.0625 26.8438C68.2292 26.6094 68.3177 26.388 68.3281 26.1797L68.9375 27.0156C68.875 27.2292 68.7682 27.4583 68.6172 27.7031C68.4661 27.9479 68.2682 28.1823 68.0234 28.4062C67.7839 28.625 67.4948 28.8047 67.1562 28.9453C66.8229 29.0859 66.4375 29.1562 66 29.1562C65.4479 29.1562 64.9557 29.0469 64.5234 28.8281C64.0911 28.6042 63.7526 28.3047 63.5078 27.9297C63.263 27.5495 63.1406 27.1198 63.1406 26.6406C63.1406 26.1927 63.224 25.7969 63.3906 25.4531C63.5625 25.1042 63.8125 24.8125 64.1406 24.5781C64.474 24.3438 64.8802 24.1667 65.3594 24.0469C65.8385 23.9219 66.3854 23.8594 67 23.8594H68.4766ZM73.9531 22.1562V29H72.0703V20.5469H73.8672L73.9531 22.1562ZM76.5391 20.4922L76.5234 22.2422C76.4089 22.2214 76.2839 22.2057 76.1484 22.1953C76.0182 22.1849 75.888 22.1797 75.7578 22.1797C75.4349 22.1797 75.151 22.2266 74.9062 22.3203C74.6615 22.4089 74.4557 22.5391 74.2891 22.7109C74.1276 22.8776 74.0026 23.0807 73.9141 23.3203C73.8255 23.5599 73.7734 23.8281 73.7578 24.125L73.3281 24.1562C73.3281 23.625 73.3802 23.1328 73.4844 22.6797C73.5885 22.2266 73.7448 21.8281 73.9531 21.4844C74.1667 21.1406 74.4323 20.8724 74.75 20.6797C75.0729 20.487 75.4453 20.3906 75.8672 20.3906C75.9818 20.3906 76.1042 20.401 76.2344 20.4219C76.3698 20.4427 76.4714 20.4661 76.5391 20.4922ZM80.3125 28.0781L82.6094 20.5469H84.625L81.2344 30.2891C81.1562 30.4974 81.0547 30.724 80.9297 30.9688C80.8047 31.2135 80.6406 31.4453 80.4375 31.6641C80.2396 31.888 79.9922 32.0677 79.6953 32.2031C79.3984 32.3438 79.0391 32.4141 78.6172 32.4141C78.4505 32.4141 78.2891 32.3984 78.1328 32.3672C77.9818 32.3411 77.8385 32.3125 77.7031 32.2812L77.6953 30.8438C77.7474 30.849 77.8099 30.8542 77.8828 30.8594C77.9609 30.8646 78.0234 30.8672 78.0703 30.8672C78.3828 30.8672 78.6432 30.8281 78.8516 30.75C79.0599 30.6771 79.2292 30.5573 79.3594 30.3906C79.4948 30.224 79.6094 30 79.7031 29.7188L80.3125 28.0781ZM79.0156 20.5469L81.0234 26.875L81.3594 28.8594L80.0547 29.1953L76.9844 20.5469H79.0156Z" fill="white"/>
<path d="M94.0719 22.2804L98.7858 26.7801C98.7859 26.7802 98.7856 26.78 98.7858 26.7801C99.0926 27.073 99.5905 27.0734 99.8974 26.7805C99.8976 26.7803 99.8979 26.78 99.8982 26.7798L104.612 22.2804C104.919 21.9875 104.919 21.5126 104.612 21.2197C104.305 20.9268 103.807 20.9268 103.5 21.2197L99.3418 25.1895L95.1831 21.2197C94.8763 20.9268 94.3788 20.9268 94.0719 21.2197C93.7651 21.5126 93.7651 21.9875 94.0719 22.2804Z" fill="white"/>
</svg>
