<svg width="148" height="72" viewBox="0 0 148 72" fill="none" xmlns="http://www.w3.org/2000/svg">
<g filter="url(#filter0_dddd_120_898)">
<rect x="16" y="8" width="116" height="40" rx="4" fill="#EAE9F2"/>
<path d="M42.2266 27V27.625C42.2266 28.4844 42.1146 29.2552 41.8906 29.9375C41.6667 30.6198 41.3464 31.2005 40.9297 31.6797C40.5182 32.1589 40.0234 32.526 39.4453 32.7812C38.8672 33.0312 38.2266 33.1562 37.5234 33.1562C36.8255 33.1562 36.1875 33.0312 35.6094 32.7812C35.0365 32.526 34.5391 32.1589 34.1172 31.6797C33.6953 31.2005 33.3672 30.6198 33.1328 29.9375C32.9036 29.2552 32.7891 28.4844 32.7891 27.625V27C32.7891 26.1406 32.9036 25.3724 33.1328 24.6953C33.362 24.013 33.6849 23.4323 34.1016 22.9531C34.5234 22.4688 35.0208 22.1016 35.5938 21.8516C36.1719 21.5964 36.8099 21.4688 37.5078 21.4688C38.2109 21.4688 38.8516 21.5964 39.4297 21.8516C40.0078 22.1016 40.5052 22.4688 40.9219 22.9531C41.3385 23.4323 41.6589 24.013 41.8828 24.6953C42.112 25.3724 42.2266 26.1406 42.2266 27ZM40.2656 27.625V26.9844C40.2656 26.349 40.2031 25.7891 40.0781 25.3047C39.9583 24.8151 39.7786 24.4062 39.5391 24.0781C39.3047 23.7448 39.0156 23.4948 38.6719 23.3281C38.3281 23.1562 37.9401 23.0703 37.5078 23.0703C37.0755 23.0703 36.6901 23.1562 36.3516 23.3281C36.013 23.4948 35.724 23.7448 35.4844 24.0781C35.25 24.4062 35.0703 24.8151 34.9453 25.3047C34.8203 25.7891 34.7578 26.349 34.7578 26.9844V27.625C34.7578 28.2604 34.8203 28.8229 34.9453 29.3125C35.0703 29.8021 35.2526 30.2161 35.4922 30.5547C35.737 30.888 36.0286 31.1406 36.3672 31.3125C36.7057 31.4792 37.0911 31.5625 37.5234 31.5625C37.9609 31.5625 38.349 31.4792 38.6875 31.3125C39.026 31.1406 39.3125 30.888 39.5469 30.5547C39.7812 30.2161 39.9583 29.8021 40.0781 29.3125C40.2031 28.8229 40.2656 28.2604 40.2656 27.625ZM45.8906 26.1719V36.25H44.0078V24.5469H45.7422L45.8906 26.1719ZM51.3984 28.6953V28.8594C51.3984 29.474 51.3255 30.0443 51.1797 30.5703C51.0391 31.0911 50.8281 31.5469 50.5469 31.9375C50.2708 32.3229 49.9297 32.6224 49.5234 32.8359C49.1172 33.0495 48.6484 33.1562 48.1172 33.1562C47.5911 33.1562 47.1302 33.0599 46.7344 32.8672C46.3438 32.6693 46.013 32.3906 45.7422 32.0312C45.4714 31.6719 45.2526 31.25 45.0859 30.7656C44.9245 30.276 44.8099 29.7396 44.7422 29.1562V28.5234C44.8099 27.9036 44.9245 27.3411 45.0859 26.8359C45.2526 26.3307 45.4714 25.8958 45.7422 25.5312C46.013 25.1667 46.3438 24.8854 46.7344 24.6875C47.125 24.4896 47.5807 24.3906 48.1016 24.3906C48.6328 24.3906 49.1042 24.4948 49.5156 24.7031C49.9271 24.9062 50.2734 25.1979 50.5547 25.5781C50.8359 25.9531 51.0469 26.4062 51.1875 26.9375C51.3281 27.4635 51.3984 28.0495 51.3984 28.6953ZM49.5156 28.8594V28.6953C49.5156 28.3047 49.4792 27.9427 49.4062 27.6094C49.3333 27.2708 49.2188 26.974 49.0625 26.7188C48.9062 26.4635 48.7057 26.2656 48.4609 26.125C48.2214 25.9792 47.9323 25.9062 47.5938 25.9062C47.2604 25.9062 46.974 25.9635 46.7344 26.0781C46.4948 26.1875 46.2943 26.3411 46.1328 26.5391C45.9714 26.737 45.8464 26.9688 45.7578 27.2344C45.6693 27.4948 45.6068 27.7786 45.5703 28.0859V29.6016C45.6328 29.9766 45.7396 30.3203 45.8906 30.6328C46.0417 30.9453 46.2552 31.1953 46.5312 31.3828C46.8125 31.5651 47.1719 31.6562 47.6094 31.6562C47.9479 31.6562 48.237 31.5833 48.4766 31.4375C48.7161 31.2917 48.9115 31.0911 49.0625 30.8359C49.2188 30.5755 49.3333 30.276 49.4062 29.9375C49.4792 29.599 49.5156 29.2396 49.5156 28.8594ZM57.7422 30.7109C57.7422 30.5234 57.6953 30.3542 57.6016 30.2031C57.5078 30.0469 57.3281 29.9062 57.0625 29.7812C56.8021 29.6562 56.4167 29.5417 55.9062 29.4375C55.4583 29.3385 55.0469 29.2214 54.6719 29.0859C54.3021 28.9453 53.9844 28.776 53.7188 28.5781C53.4531 28.3802 53.2474 28.1458 53.1016 27.875C52.9557 27.6042 52.8828 27.2917 52.8828 26.9375C52.8828 26.5938 52.9583 26.2682 53.1094 25.9609C53.2604 25.6536 53.4766 25.3828 53.7578 25.1484C54.0391 24.9141 54.3802 24.7292 54.7812 24.5938C55.1875 24.4583 55.6406 24.3906 56.1406 24.3906C56.849 24.3906 57.4557 24.5104 57.9609 24.75C58.4714 24.9844 58.862 25.3047 59.1328 25.7109C59.4036 26.112 59.5391 26.5651 59.5391 27.0703H57.6562C57.6562 26.8464 57.599 26.638 57.4844 26.4453C57.375 26.2474 57.2083 26.0885 56.9844 25.9688C56.7604 25.8438 56.4792 25.7812 56.1406 25.7812C55.8177 25.7812 55.5495 25.8333 55.3359 25.9375C55.1276 26.0365 54.9714 26.1667 54.8672 26.3281C54.7682 26.4896 54.7188 26.6667 54.7188 26.8594C54.7188 27 54.7448 27.1276 54.7969 27.2422C54.8542 27.3516 54.9479 27.4531 55.0781 27.5469C55.2083 27.6354 55.3854 27.7188 55.6094 27.7969C55.8385 27.875 56.125 27.9505 56.4688 28.0234C57.1146 28.1589 57.6693 28.3333 58.1328 28.5469C58.6016 28.7552 58.9609 29.026 59.2109 29.3594C59.4609 29.6875 59.5859 30.1042 59.5859 30.6094C59.5859 30.9844 59.5052 31.3281 59.3438 31.6406C59.1875 31.9479 58.9583 32.2161 58.6562 32.4453C58.3542 32.6693 57.9922 32.8438 57.5703 32.9688C57.1536 33.0938 56.6849 33.1562 56.1641 33.1562C55.3984 33.1562 54.75 33.0208 54.2188 32.75C53.6875 32.474 53.2839 32.1224 53.0078 31.6953C52.737 31.263 52.6016 30.8151 52.6016 30.3516H54.4219C54.4427 30.7005 54.5391 30.9792 54.7109 31.1875C54.888 31.3906 55.1068 31.5391 55.3672 31.6328C55.6328 31.7214 55.9062 31.7656 56.1875 31.7656C56.526 31.7656 56.8099 31.7214 57.0391 31.6328C57.2682 31.5391 57.4427 31.4141 57.5625 31.2578C57.6823 31.0964 57.7422 30.9141 57.7422 30.7109ZM68.7109 33H66.2812L66.2969 31.4453H68.7109C69.4141 31.4453 70.0026 31.2917 70.4766 30.9844C70.9557 30.6771 71.3151 30.237 71.5547 29.6641C71.7995 29.0911 71.9219 28.4089 71.9219 27.6172V27C71.9219 26.3854 71.8516 25.8411 71.7109 25.3672C71.5755 24.8932 71.3724 24.4948 71.1016 24.1719C70.8359 23.849 70.5078 23.6042 70.1172 23.4375C69.7318 23.2708 69.2865 23.1875 68.7812 23.1875H66.2344V21.625H68.7812C69.5365 21.625 70.2266 21.7526 70.8516 22.0078C71.4766 22.2578 72.0156 22.6198 72.4688 23.0938C72.9271 23.5677 73.2786 24.1354 73.5234 24.7969C73.7682 25.4583 73.8906 26.1979 73.8906 27.0156V27.6172C73.8906 28.4349 73.7682 29.1745 73.5234 29.8359C73.2786 30.4974 72.9271 31.0651 72.4688 31.5391C72.0104 32.0078 71.4635 32.3698 70.8281 32.625C70.1979 32.875 69.4922 33 68.7109 33ZM67.3672 21.625V33H65.4062V21.625H67.3672ZM80.4375 31.3047V27.2734C80.4375 26.9714 80.3828 26.7109 80.2734 26.4922C80.1641 26.2734 79.9974 26.1042 79.7734 25.9844C79.5547 25.8646 79.2786 25.8047 78.9453 25.8047C78.638 25.8047 78.3724 25.8568 78.1484 25.9609C77.9245 26.0651 77.75 26.2057 77.625 26.3828C77.5 26.5599 77.4375 26.7604 77.4375 26.9844H75.5625C75.5625 26.651 75.6432 26.3281 75.8047 26.0156C75.9661 25.7031 76.2005 25.4245 76.5078 25.1797C76.8151 24.9349 77.1823 24.7422 77.6094 24.6016C78.0365 24.4609 78.5156 24.3906 79.0469 24.3906C79.6823 24.3906 80.2448 24.4974 80.7344 24.7109C81.2292 24.9245 81.6172 25.2474 81.8984 25.6797C82.1849 26.1068 82.3281 26.6432 82.3281 27.2891V31.0469C82.3281 31.4323 82.3542 31.7786 82.4062 32.0859C82.4635 32.388 82.5443 32.651 82.6484 32.875V33H80.7188C80.6302 32.7969 80.5599 32.5391 80.5078 32.2266C80.4609 31.9089 80.4375 31.6016 80.4375 31.3047ZM80.7109 27.8594L80.7266 29.0234H79.375C79.026 29.0234 78.7188 29.0573 78.4531 29.125C78.1875 29.1875 77.9661 29.2812 77.7891 29.4062C77.612 29.5312 77.4792 29.6823 77.3906 29.8594C77.3021 30.0365 77.2578 30.237 77.2578 30.4609C77.2578 30.6849 77.3099 30.8906 77.4141 31.0781C77.5182 31.2604 77.6693 31.4036 77.8672 31.5078C78.0703 31.612 78.3151 31.6641 78.6016 31.6641C78.987 31.6641 79.3229 31.5859 79.6094 31.4297C79.901 31.2682 80.1302 31.0729 80.2969 30.8438C80.4635 30.6094 80.5521 30.388 80.5625 30.1797L81.1719 31.0156C81.1094 31.2292 81.0026 31.4583 80.8516 31.7031C80.7005 31.9479 80.5026 32.1823 80.2578 32.4062C80.0182 32.625 79.7292 32.8047 79.3906 32.9453C79.0573 33.0859 78.6719 33.1562 78.2344 33.1562C77.6823 33.1562 77.1901 33.0469 76.7578 32.8281C76.3255 32.6042 75.987 32.3047 75.7422 31.9297C75.4974 31.5495 75.375 31.1198 75.375 30.6406C75.375 30.1927 75.4583 29.7969 75.625 29.4531C75.7969 29.1042 76.0469 28.8125 76.375 28.5781C76.7083 28.3438 77.1146 28.1667 77.5938 28.0469C78.0729 27.9219 78.6198 27.8594 79.2344 27.8594H80.7109ZM88.1719 24.5469V25.9219H83.4062V24.5469H88.1719ZM84.7812 22.4766H86.6641V30.6641C86.6641 30.9245 86.7005 31.125 86.7734 31.2656C86.8516 31.401 86.9583 31.4922 87.0938 31.5391C87.2292 31.5859 87.388 31.6094 87.5703 31.6094C87.7005 31.6094 87.8255 31.6016 87.9453 31.5859C88.0651 31.5703 88.1615 31.5547 88.2344 31.5391L88.2422 32.9766C88.0859 33.0234 87.9036 33.0651 87.6953 33.1016C87.4922 33.138 87.2578 33.1562 86.9922 33.1562C86.5599 33.1562 86.1771 33.0807 85.8438 32.9297C85.5104 32.7734 85.25 32.5208 85.0625 32.1719C84.875 31.8229 84.7812 31.3594 84.7812 30.7812V22.4766ZM94.3906 31.3047V27.2734C94.3906 26.9714 94.3359 26.7109 94.2266 26.4922C94.1172 26.2734 93.9505 26.1042 93.7266 25.9844C93.5078 25.8646 93.2318 25.8047 92.8984 25.8047C92.5911 25.8047 92.3255 25.8568 92.1016 25.9609C91.8776 26.0651 91.7031 26.2057 91.5781 26.3828C91.4531 26.5599 91.3906 26.7604 91.3906 26.9844H89.5156C89.5156 26.651 89.5964 26.3281 89.7578 26.0156C89.9193 25.7031 90.1536 25.4245 90.4609 25.1797C90.7682 24.9349 91.1354 24.7422 91.5625 24.6016C91.9896 24.4609 92.4688 24.3906 93 24.3906C93.6354 24.3906 94.1979 24.4974 94.6875 24.7109C95.1823 24.9245 95.5703 25.2474 95.8516 25.6797C96.138 26.1068 96.2812 26.6432 96.2812 27.2891V31.0469C96.2812 31.4323 96.3073 31.7786 96.3594 32.0859C96.4167 32.388 96.4974 32.651 96.6016 32.875V33H94.6719C94.5833 32.7969 94.513 32.5391 94.4609 32.2266C94.4141 31.9089 94.3906 31.6016 94.3906 31.3047ZM94.6641 27.8594L94.6797 29.0234H93.3281C92.9792 29.0234 92.6719 29.0573 92.4062 29.125C92.1406 29.1875 91.9193 29.2812 91.7422 29.4062C91.5651 29.5312 91.4323 29.6823 91.3438 29.8594C91.2552 30.0365 91.2109 30.237 91.2109 30.4609C91.2109 30.6849 91.263 30.8906 91.3672 31.0781C91.4714 31.2604 91.6224 31.4036 91.8203 31.5078C92.0234 31.612 92.2682 31.6641 92.5547 31.6641C92.9401 31.6641 93.276 31.5859 93.5625 31.4297C93.8542 31.2682 94.0833 31.0729 94.25 30.8438C94.4167 30.6094 94.5052 30.388 94.5156 30.1797L95.125 31.0156C95.0625 31.2292 94.9557 31.4583 94.8047 31.7031C94.6536 31.9479 94.4557 32.1823 94.2109 32.4062C93.9714 32.625 93.6823 32.8047 93.3438 32.9453C93.0104 33.0859 92.625 33.1562 92.1875 33.1562C91.6354 33.1562 91.1432 33.0469 90.7109 32.8281C90.2786 32.6042 89.9401 32.3047 89.6953 31.9297C89.4505 31.5495 89.3281 31.1198 89.3281 30.6406C89.3281 30.1927 89.4115 29.7969 89.5781 29.4531C89.75 29.1042 90 28.8125 90.3281 28.5781C90.6615 28.3438 91.0677 28.1667 91.5469 28.0469C92.026 27.9219 92.5729 27.8594 93.1875 27.8594H94.6641Z" fill="#6855B4"/>
<path d="M107.072 26.2804L111.786 30.7801C111.786 30.7802 111.786 30.78 111.786 30.7801C112.093 31.073 112.591 31.0734 112.897 30.7805C112.898 30.7803 112.898 30.78 112.898 30.7798L117.612 26.2804C117.919 25.9875 117.919 25.5126 117.612 25.2197C117.305 24.9268 116.807 24.9268 116.5 25.2197L112.342 29.1895L108.183 25.2197C107.876 24.9268 107.379 24.9268 107.072 25.2197C106.765 25.5126 106.765 25.9875 107.072 26.2804Z" fill="#6855B4"/>
</g>
<defs>
<filter id="filter0_dddd_120_898" x="0" y="0" width="148" height="72" filterUnits="userSpaceOnUse" color-interpolation-filters="sRGB">
<feFlood flood-opacity="0" result="BackgroundImageFix"/>
<feColorMatrix in="SourceAlpha" type="matrix" values="0 0 0 0 0 0 0 0 0 0 0 0 0 0 0 0 0 0 127 0" result="hardAlpha"/>
<feOffset dy="1"/>
<feGaussianBlur stdDeviation="1"/>
<feColorMatrix type="matrix" values="0 0 0 0 0.129412 0 0 0 0 0.0823529 0 0 0 0 0.317647 0 0 0 0.08 0"/>
<feBlend mode="normal" in2="BackgroundImageFix" result="effect1_dropShadow_120_898"/>
<feColorMatrix in="SourceAlpha" type="matrix" values="0 0 0 0 0 0 0 0 0 0 0 0 0 0 0 0 0 0 127 0" result="hardAlpha"/>
<feOffset dy="2"/>
<feGaussianBlur stdDeviation="2"/>
<feColorMatrix type="matrix" values="0 0 0 0 0.129412 0 0 0 0 0.0823529 0 0 0 0 0.317647 0 0 0 0.12 0"/>
<feBlend mode="normal" in2="effect1_dropShadow_120_898" result="effect2_dropShadow_120_898"/>
<feColorMatrix in="SourceAlpha" type="matrix" values="0 0 0 0 0 0 0 0 0 0 0 0 0 0 0 0 0 0 127 0" result="hardAlpha"/>
<feOffset dy="4"/>
<feGaussianBlur stdDeviation="4"/>
<feColorMatrix type="matrix" values="0 0 0 0 0.129412 0 0 0 0 0.0823529 0 0 0 0 0.317647 0 0 0 0.16 0"/>
<feBlend mode="normal" in2="effect2_dropShadow_120_898" result="effect3_dropShadow_120_898"/>
<feColorMatrix in="SourceAlpha" type="matrix" values="0 0 0 0 0 0 0 0 0 0 0 0 0 0 0 0 0 0 127 0" result="hardAlpha"/>
<feOffset dy="8"/>
<feGaussianBlur stdDeviation="8"/>
<feColorMatrix type="matrix" values="0 0 0 0 0.129412 0 0 0 0 0.0823529 0 0 0 0 0.317647 0 0 0 0.2 0"/>
<feBlend mode="normal" in2="effect3_dropShadow_120_898" result="effect4_dropShadow_120_898"/>
<feBlend mode="normal" in="SourceGraphic" in2="effect4_dropShadow_120_898" result="shape"/>
</filter>
</defs>
</svg>
