<svg width="150" height="72" viewBox="0 0 150 72" fill="none" xmlns="http://www.w3.org/2000/svg">
<g filter="url(#filter0_dddd_120_931)">
<rect x="16" y="8" width="118" height="40" rx="4" fill="#EAE9F2"/>
<path d="M33.1562 21.625H37.1797C38.0443 21.625 38.7812 21.7552 39.3906 22.0156C40 22.276 40.4661 22.6615 40.7891 23.1719C41.1172 23.6771 41.2812 24.3021 41.2812 25.0469C41.2812 25.6146 41.1771 26.1146 40.9688 26.5469C40.7604 26.9792 40.4661 27.3438 40.0859 27.6406C39.7057 27.9323 39.2526 28.1589 38.7266 28.3203L38.1328 28.6094H34.5156L34.5 27.0547H37.2109C37.6797 27.0547 38.0703 26.9714 38.3828 26.8047C38.6953 26.638 38.9297 26.4115 39.0859 26.125C39.2474 25.8333 39.3281 25.5052 39.3281 25.1406C39.3281 24.7448 39.25 24.401 39.0938 24.1094C38.9427 23.8125 38.7083 23.5859 38.3906 23.4297C38.0729 23.2682 37.6693 23.1875 37.1797 23.1875H35.1172V33H33.1562V21.625ZM39.6484 33L36.9766 27.8906L39.0312 27.8828L41.7422 32.8984V33H39.6484ZM47.8125 31.3047V27.2734C47.8125 26.9714 47.7578 26.7109 47.6484 26.4922C47.5391 26.2734 47.3724 26.1042 47.1484 25.9844C46.9297 25.8646 46.6536 25.8047 46.3203 25.8047C46.013 25.8047 45.7474 25.8568 45.5234 25.9609C45.2995 26.0651 45.125 26.2057 45 26.3828C44.875 26.5599 44.8125 26.7604 44.8125 26.9844H42.9375C42.9375 26.651 43.0182 26.3281 43.1797 26.0156C43.3411 25.7031 43.5755 25.4245 43.8828 25.1797C44.1901 24.9349 44.5573 24.7422 44.9844 24.6016C45.4115 24.4609 45.8906 24.3906 46.4219 24.3906C47.0573 24.3906 47.6198 24.4974 48.1094 24.7109C48.6042 24.9245 48.9922 25.2474 49.2734 25.6797C49.5599 26.1068 49.7031 26.6432 49.7031 27.2891V31.0469C49.7031 31.4323 49.7292 31.7786 49.7812 32.0859C49.8385 32.388 49.9193 32.651 50.0234 32.875V33H48.0938C48.0052 32.7969 47.9349 32.5391 47.8828 32.2266C47.8359 31.9089 47.8125 31.6016 47.8125 31.3047ZM48.0859 27.8594L48.1016 29.0234H46.75C46.401 29.0234 46.0938 29.0573 45.8281 29.125C45.5625 29.1875 45.3411 29.2812 45.1641 29.4062C44.987 29.5312 44.8542 29.6823 44.7656 29.8594C44.6771 30.0365 44.6328 30.237 44.6328 30.4609C44.6328 30.6849 44.6849 30.8906 44.7891 31.0781C44.8932 31.2604 45.0443 31.4036 45.2422 31.5078C45.4453 31.612 45.6901 31.6641 45.9766 31.6641C46.362 31.6641 46.6979 31.5859 46.9844 31.4297C47.276 31.2682 47.5052 31.0729 47.6719 30.8438C47.8385 30.6094 47.9271 30.388 47.9375 30.1797L48.5469 31.0156C48.4844 31.2292 48.3776 31.4583 48.2266 31.7031C48.0755 31.9479 47.8776 32.1823 47.6328 32.4062C47.3932 32.625 47.1042 32.8047 46.7656 32.9453C46.4323 33.0859 46.0469 33.1562 45.6094 33.1562C45.0573 33.1562 44.5651 33.0469 44.1328 32.8281C43.7005 32.6042 43.362 32.3047 43.1172 31.9297C42.8724 31.5495 42.75 31.1198 42.75 30.6406C42.75 30.1927 42.8333 29.7969 43 29.4531C43.1719 29.1042 43.4219 28.8125 43.75 28.5781C44.0833 28.3438 44.4896 28.1667 44.9688 28.0469C45.4479 27.9219 45.9948 27.8594 46.6094 27.8594H48.0859ZM53.9688 31.125L55.9219 24.5469H57.125L56.7969 26.5156L54.8281 33H53.75L53.9688 31.125ZM52.8203 24.5469L54.3438 31.1562L54.4688 33H53.2656L50.9766 24.5469H52.8203ZM58.9531 31.0781L60.4297 24.5469H62.2656L59.9844 33H58.7812L58.9531 31.0781ZM57.3281 24.5469L59.2578 31.0469L59.5 33H58.4219L56.4297 26.5078L56.1016 24.5469H57.3281ZM71.0234 33H68.5938L68.6094 31.4453H71.0234C71.7266 31.4453 72.3151 31.2917 72.7891 30.9844C73.2682 30.6771 73.6276 30.237 73.8672 29.6641C74.112 29.0911 74.2344 28.4089 74.2344 27.6172V27C74.2344 26.3854 74.1641 25.8411 74.0234 25.3672C73.888 24.8932 73.6849 24.4948 73.4141 24.1719C73.1484 23.849 72.8203 23.6042 72.4297 23.4375C72.0443 23.2708 71.599 23.1875 71.0938 23.1875H68.5469V21.625H71.0938C71.849 21.625 72.5391 21.7526 73.1641 22.0078C73.7891 22.2578 74.3281 22.6198 74.7812 23.0938C75.2396 23.5677 75.5911 24.1354 75.8359 24.7969C76.0807 25.4583 76.2031 26.1979 76.2031 27.0156V27.6172C76.2031 28.4349 76.0807 29.1745 75.8359 29.8359C75.5911 30.4974 75.2396 31.0651 74.7812 31.5391C74.3229 32.0078 73.776 32.3698 73.1406 32.625C72.5104 32.875 71.8047 33 71.0234 33ZM69.6797 21.625V33H67.7188V21.625H69.6797ZM82.75 31.3047V27.2734C82.75 26.9714 82.6953 26.7109 82.5859 26.4922C82.4766 26.2734 82.3099 26.1042 82.0859 25.9844C81.8672 25.8646 81.5911 25.8047 81.2578 25.8047C80.9505 25.8047 80.6849 25.8568 80.4609 25.9609C80.237 26.0651 80.0625 26.2057 79.9375 26.3828C79.8125 26.5599 79.75 26.7604 79.75 26.9844H77.875C77.875 26.651 77.9557 26.3281 78.1172 26.0156C78.2786 25.7031 78.513 25.4245 78.8203 25.1797C79.1276 24.9349 79.4948 24.7422 79.9219 24.6016C80.349 24.4609 80.8281 24.3906 81.3594 24.3906C81.9948 24.3906 82.5573 24.4974 83.0469 24.7109C83.5417 24.9245 83.9297 25.2474 84.2109 25.6797C84.4974 26.1068 84.6406 26.6432 84.6406 27.2891V31.0469C84.6406 31.4323 84.6667 31.7786 84.7188 32.0859C84.776 32.388 84.8568 32.651 84.9609 32.875V33H83.0312C82.9427 32.7969 82.8724 32.5391 82.8203 32.2266C82.7734 31.9089 82.75 31.6016 82.75 31.3047ZM83.0234 27.8594L83.0391 29.0234H81.6875C81.3385 29.0234 81.0312 29.0573 80.7656 29.125C80.5 29.1875 80.2786 29.2812 80.1016 29.4062C79.9245 29.5312 79.7917 29.6823 79.7031 29.8594C79.6146 30.0365 79.5703 30.237 79.5703 30.4609C79.5703 30.6849 79.6224 30.8906 79.7266 31.0781C79.8307 31.2604 79.9818 31.4036 80.1797 31.5078C80.3828 31.612 80.6276 31.6641 80.9141 31.6641C81.2995 31.6641 81.6354 31.5859 81.9219 31.4297C82.2135 31.2682 82.4427 31.0729 82.6094 30.8438C82.776 30.6094 82.8646 30.388 82.875 30.1797L83.4844 31.0156C83.4219 31.2292 83.3151 31.4583 83.1641 31.7031C83.013 31.9479 82.8151 32.1823 82.5703 32.4062C82.3307 32.625 82.0417 32.8047 81.7031 32.9453C81.3698 33.0859 80.9844 33.1562 80.5469 33.1562C79.9948 33.1562 79.5026 33.0469 79.0703 32.8281C78.638 32.6042 78.2995 32.3047 78.0547 31.9297C77.8099 31.5495 77.6875 31.1198 77.6875 30.6406C77.6875 30.1927 77.7708 29.7969 77.9375 29.4531C78.1094 29.1042 78.3594 28.8125 78.6875 28.5781C79.0208 28.3438 79.4271 28.1667 79.9062 28.0469C80.3854 27.9219 80.9323 27.8594 81.5469 27.8594H83.0234ZM90.4844 24.5469V25.9219H85.7188V24.5469H90.4844ZM87.0938 22.4766H88.9766V30.6641C88.9766 30.9245 89.013 31.125 89.0859 31.2656C89.1641 31.401 89.2708 31.4922 89.4062 31.5391C89.5417 31.5859 89.7005 31.6094 89.8828 31.6094C90.013 31.6094 90.138 31.6016 90.2578 31.5859C90.3776 31.5703 90.474 31.5547 90.5469 31.5391L90.5547 32.9766C90.3984 33.0234 90.2161 33.0651 90.0078 33.1016C89.8047 33.138 89.5703 33.1562 89.3047 33.1562C88.8724 33.1562 88.4896 33.0807 88.1562 32.9297C87.8229 32.7734 87.5625 32.5208 87.375 32.1719C87.1875 31.8229 87.0938 31.3594 87.0938 30.7812V22.4766ZM96.7031 31.3047V27.2734C96.7031 26.9714 96.6484 26.7109 96.5391 26.4922C96.4297 26.2734 96.263 26.1042 96.0391 25.9844C95.8203 25.8646 95.5443 25.8047 95.2109 25.8047C94.9036 25.8047 94.638 25.8568 94.4141 25.9609C94.1901 26.0651 94.0156 26.2057 93.8906 26.3828C93.7656 26.5599 93.7031 26.7604 93.7031 26.9844H91.8281C91.8281 26.651 91.9089 26.3281 92.0703 26.0156C92.2318 25.7031 92.4661 25.4245 92.7734 25.1797C93.0807 24.9349 93.4479 24.7422 93.875 24.6016C94.3021 24.4609 94.7812 24.3906 95.3125 24.3906C95.9479 24.3906 96.5104 24.4974 97 24.7109C97.4948 24.9245 97.8828 25.2474 98.1641 25.6797C98.4505 26.1068 98.5938 26.6432 98.5938 27.2891V31.0469C98.5938 31.4323 98.6198 31.7786 98.6719 32.0859C98.7292 32.388 98.8099 32.651 98.9141 32.875V33H96.9844C96.8958 32.7969 96.8255 32.5391 96.7734 32.2266C96.7266 31.9089 96.7031 31.6016 96.7031 31.3047ZM96.9766 27.8594L96.9922 29.0234H95.6406C95.2917 29.0234 94.9844 29.0573 94.7188 29.125C94.4531 29.1875 94.2318 29.2812 94.0547 29.4062C93.8776 29.5312 93.7448 29.6823 93.6562 29.8594C93.5677 30.0365 93.5234 30.237 93.5234 30.4609C93.5234 30.6849 93.5755 30.8906 93.6797 31.0781C93.7839 31.2604 93.9349 31.4036 94.1328 31.5078C94.3359 31.612 94.5807 31.6641 94.8672 31.6641C95.2526 31.6641 95.5885 31.5859 95.875 31.4297C96.1667 31.2682 96.3958 31.0729 96.5625 30.8438C96.7292 30.6094 96.8177 30.388 96.8281 30.1797L97.4375 31.0156C97.375 31.2292 97.2682 31.4583 97.1172 31.7031C96.9661 31.9479 96.7682 32.1823 96.5234 32.4062C96.2839 32.625 95.9948 32.8047 95.6562 32.9453C95.3229 33.0859 94.9375 33.1562 94.5 33.1562C93.9479 33.1562 93.4557 33.0469 93.0234 32.8281C92.5911 32.6042 92.2526 32.3047 92.0078 31.9297C91.763 31.5495 91.6406 31.1198 91.6406 30.6406C91.6406 30.1927 91.724 29.7969 91.8906 29.4531C92.0625 29.1042 92.3125 28.8125 92.6406 28.5781C92.974 28.3438 93.3802 28.1667 93.8594 28.0469C94.3385 27.9219 94.8854 27.8594 95.5 27.8594H96.9766Z" fill="#6855B4"/>
<path d="M109.072 26.2804L113.786 30.7801C113.786 30.7802 113.786 30.78 113.786 30.7801C114.093 31.073 114.591 31.0734 114.897 30.7805C114.898 30.7803 114.898 30.78 114.898 30.7798L119.612 26.2804C119.919 25.9875 119.919 25.5126 119.612 25.2197C119.305 24.9268 118.807 24.9268 118.5 25.2197L114.342 29.1895L110.183 25.2197C109.876 24.9268 109.379 24.9268 109.072 25.2197C108.765 25.5126 108.765 25.9875 109.072 26.2804Z" fill="#6855B4"/>
</g>
<defs>
<filter id="filter0_dddd_120_931" x="0" y="0" width="150" height="72" filterUnits="userSpaceOnUse" color-interpolation-filters="sRGB">
<feFlood flood-opacity="0" result="BackgroundImageFix"/>
<feColorMatrix in="SourceAlpha" type="matrix" values="0 0 0 0 0 0 0 0 0 0 0 0 0 0 0 0 0 0 127 0" result="hardAlpha"/>
<feOffset dy="1"/>
<feGaussianBlur stdDeviation="1"/>
<feColorMatrix type="matrix" values="0 0 0 0 0.129412 0 0 0 0 0.0823529 0 0 0 0 0.317647 0 0 0 0.08 0"/>
<feBlend mode="normal" in2="BackgroundImageFix" result="effect1_dropShadow_120_931"/>
<feColorMatrix in="SourceAlpha" type="matrix" values="0 0 0 0 0 0 0 0 0 0 0 0 0 0 0 0 0 0 127 0" result="hardAlpha"/>
<feOffset dy="2"/>
<feGaussianBlur stdDeviation="2"/>
<feColorMatrix type="matrix" values="0 0 0 0 0.129412 0 0 0 0 0.0823529 0 0 0 0 0.317647 0 0 0 0.12 0"/>
<feBlend mode="normal" in2="effect1_dropShadow_120_931" result="effect2_dropShadow_120_931"/>
<feColorMatrix in="SourceAlpha" type="matrix" values="0 0 0 0 0 0 0 0 0 0 0 0 0 0 0 0 0 0 127 0" result="hardAlpha"/>
<feOffset dy="4"/>
<feGaussianBlur stdDeviation="4"/>
<feColorMatrix type="matrix" values="0 0 0 0 0.129412 0 0 0 0 0.0823529 0 0 0 0 0.317647 0 0 0 0.16 0"/>
<feBlend mode="normal" in2="effect2_dropShadow_120_931" result="effect3_dropShadow_120_931"/>
<feColorMatrix in="SourceAlpha" type="matrix" values="0 0 0 0 0 0 0 0 0 0 0 0 0 0 0 0 0 0 127 0" result="hardAlpha"/>
<feOffset dy="8"/>
<feGaussianBlur stdDeviation="8"/>
<feColorMatrix type="matrix" values="0 0 0 0 0.129412 0 0 0 0 0.0823529 0 0 0 0 0.317647 0 0 0 0.2 0"/>
<feBlend mode="normal" in2="effect3_dropShadow_120_931" result="effect4_dropShadow_120_931"/>
<feBlend mode="normal" in="SourceGraphic" in2="effect4_dropShadow_120_931" result="shape"/>
</filter>
</defs>
</svg>
