<svg width="120" height="48" viewBox="0 0 120 48" fill="none" xmlns="http://www.w3.org/2000/svg">
<rect y="4" width="120" height="40" rx="4" fill="#EAE9F2"/>
<path d="M17.1562 17.625H21.1797C22.0443 17.625 22.7812 17.7552 23.3906 18.0156C24 18.276 24.4661 18.6615 24.7891 19.1719C25.1172 19.6771 25.2812 20.3021 25.2812 21.0469C25.2812 21.6146 25.1771 22.1146 24.9688 22.5469C24.7604 22.9792 24.4661 23.3438 24.0859 23.6406C23.7057 23.9323 23.2526 24.1589 22.7266 24.3203L22.1328 24.6094H18.5156L18.5 23.0547H21.2109C21.6797 23.0547 22.0703 22.9714 22.3828 22.8047C22.6953 22.638 22.9297 22.4115 23.0859 22.125C23.2474 21.8333 23.3281 21.5052 23.3281 21.1406C23.3281 20.7448 23.25 20.401 23.0938 20.1094C22.9427 19.8125 22.7083 19.5859 22.3906 19.4297C22.0729 19.2682 21.6693 19.1875 21.1797 19.1875H19.1172V29H17.1562V17.625ZM23.6484 29L20.9766 23.8906L23.0312 23.8828L25.7422 28.8984V29H23.6484ZM31.8125 27.3047V23.2734C31.8125 22.9714 31.7578 22.7109 31.6484 22.4922C31.5391 22.2734 31.3724 22.1042 31.1484 21.9844C30.9297 21.8646 30.6536 21.8047 30.3203 21.8047C30.013 21.8047 29.7474 21.8568 29.5234 21.9609C29.2995 22.0651 29.125 22.2057 29 22.3828C28.875 22.5599 28.8125 22.7604 28.8125 22.9844H26.9375C26.9375 22.651 27.0182 22.3281 27.1797 22.0156C27.3411 21.7031 27.5755 21.4245 27.8828 21.1797C28.1901 20.9349 28.5573 20.7422 28.9844 20.6016C29.4115 20.4609 29.8906 20.3906 30.4219 20.3906C31.0573 20.3906 31.6198 20.4974 32.1094 20.7109C32.6042 20.9245 32.9922 21.2474 33.2734 21.6797C33.5599 22.1068 33.7031 22.6432 33.7031 23.2891V27.0469C33.7031 27.4323 33.7292 27.7786 33.7812 28.0859C33.8385 28.388 33.9193 28.651 34.0234 28.875V29H32.0938C32.0052 28.7969 31.9349 28.5391 31.8828 28.2266C31.8359 27.9089 31.8125 27.6016 31.8125 27.3047ZM32.0859 23.8594L32.1016 25.0234H30.75C30.401 25.0234 30.0938 25.0573 29.8281 25.125C29.5625 25.1875 29.3411 25.2812 29.1641 25.4062C28.987 25.5312 28.8542 25.6823 28.7656 25.8594C28.6771 26.0365 28.6328 26.237 28.6328 26.4609C28.6328 26.6849 28.6849 26.8906 28.7891 27.0781C28.8932 27.2604 29.0443 27.4036 29.2422 27.5078C29.4453 27.612 29.6901 27.6641 29.9766 27.6641C30.362 27.6641 30.6979 27.5859 30.9844 27.4297C31.276 27.2682 31.5052 27.0729 31.6719 26.8438C31.8385 26.6094 31.9271 26.388 31.9375 26.1797L32.5469 27.0156C32.4844 27.2292 32.3776 27.4583 32.2266 27.7031C32.0755 27.9479 31.8776 28.1823 31.6328 28.4062C31.3932 28.625 31.1042 28.8047 30.7656 28.9453C30.4323 29.0859 30.0469 29.1562 29.6094 29.1562C29.0573 29.1562 28.5651 29.0469 28.1328 28.8281C27.7005 28.6042 27.362 28.3047 27.1172 27.9297C26.8724 27.5495 26.75 27.1198 26.75 26.6406C26.75 26.1927 26.8333 25.7969 27 25.4531C27.1719 25.1042 27.4219 24.8125 27.75 24.5781C28.0833 24.3438 28.4896 24.1667 28.9688 24.0469C29.4479 23.9219 29.9948 23.8594 30.6094 23.8594H32.0859ZM37.9688 27.125L39.9219 20.5469H41.125L40.7969 22.5156L38.8281 29H37.75L37.9688 27.125ZM36.8203 20.5469L38.3438 27.1562L38.4688 29H37.2656L34.9766 20.5469H36.8203ZM42.9531 27.0781L44.4297 20.5469H46.2656L43.9844 29H42.7812L42.9531 27.0781ZM41.3281 20.5469L43.2578 27.0469L43.5 29H42.4219L40.4297 22.5078L40.1016 20.5469H41.3281ZM55.0234 29H52.5938L52.6094 27.4453H55.0234C55.7266 27.4453 56.3151 27.2917 56.7891 26.9844C57.2682 26.6771 57.6276 26.237 57.8672 25.6641C58.112 25.0911 58.2344 24.4089 58.2344 23.6172V23C58.2344 22.3854 58.1641 21.8411 58.0234 21.3672C57.888 20.8932 57.6849 20.4948 57.4141 20.1719C57.1484 19.849 56.8203 19.6042 56.4297 19.4375C56.0443 19.2708 55.599 19.1875 55.0938 19.1875H52.5469V17.625H55.0938C55.849 17.625 56.5391 17.7526 57.1641 18.0078C57.7891 18.2578 58.3281 18.6198 58.7812 19.0938C59.2396 19.5677 59.5911 20.1354 59.8359 20.7969C60.0807 21.4583 60.2031 22.1979 60.2031 23.0156V23.6172C60.2031 24.4349 60.0807 25.1745 59.8359 25.8359C59.5911 26.4974 59.2396 27.0651 58.7812 27.5391C58.3229 28.0078 57.776 28.3698 57.1406 28.625C56.5104 28.875 55.8047 29 55.0234 29ZM53.6797 17.625V29H51.7188V17.625H53.6797ZM66.75 27.3047V23.2734C66.75 22.9714 66.6953 22.7109 66.5859 22.4922C66.4766 22.2734 66.3099 22.1042 66.0859 21.9844C65.8672 21.8646 65.5911 21.8047 65.2578 21.8047C64.9505 21.8047 64.6849 21.8568 64.4609 21.9609C64.237 22.0651 64.0625 22.2057 63.9375 22.3828C63.8125 22.5599 63.75 22.7604 63.75 22.9844H61.875C61.875 22.651 61.9557 22.3281 62.1172 22.0156C62.2786 21.7031 62.513 21.4245 62.8203 21.1797C63.1276 20.9349 63.4948 20.7422 63.9219 20.6016C64.349 20.4609 64.8281 20.3906 65.3594 20.3906C65.9948 20.3906 66.5573 20.4974 67.0469 20.7109C67.5417 20.9245 67.9297 21.2474 68.2109 21.6797C68.4974 22.1068 68.6406 22.6432 68.6406 23.2891V27.0469C68.6406 27.4323 68.6667 27.7786 68.7188 28.0859C68.776 28.388 68.8568 28.651 68.9609 28.875V29H67.0312C66.9427 28.7969 66.8724 28.5391 66.8203 28.2266C66.7734 27.9089 66.75 27.6016 66.75 27.3047ZM67.0234 23.8594L67.0391 25.0234H65.6875C65.3385 25.0234 65.0312 25.0573 64.7656 25.125C64.5 25.1875 64.2786 25.2812 64.1016 25.4062C63.9245 25.5312 63.7917 25.6823 63.7031 25.8594C63.6146 26.0365 63.5703 26.237 63.5703 26.4609C63.5703 26.6849 63.6224 26.8906 63.7266 27.0781C63.8307 27.2604 63.9818 27.4036 64.1797 27.5078C64.3828 27.612 64.6276 27.6641 64.9141 27.6641C65.2995 27.6641 65.6354 27.5859 65.9219 27.4297C66.2135 27.2682 66.4427 27.0729 66.6094 26.8438C66.776 26.6094 66.8646 26.388 66.875 26.1797L67.4844 27.0156C67.4219 27.2292 67.3151 27.4583 67.1641 27.7031C67.013 27.9479 66.8151 28.1823 66.5703 28.4062C66.3307 28.625 66.0417 28.8047 65.7031 28.9453C65.3698 29.0859 64.9844 29.1562 64.5469 29.1562C63.9948 29.1562 63.5026 29.0469 63.0703 28.8281C62.638 28.6042 62.2995 28.3047 62.0547 27.9297C61.8099 27.5495 61.6875 27.1198 61.6875 26.6406C61.6875 26.1927 61.7708 25.7969 61.9375 25.4531C62.1094 25.1042 62.3594 24.8125 62.6875 24.5781C63.0208 24.3438 63.4271 24.1667 63.9062 24.0469C64.3854 23.9219 64.9323 23.8594 65.5469 23.8594H67.0234ZM74.4844 20.5469V21.9219H69.7188V20.5469H74.4844ZM71.0938 18.4766H72.9766V26.6641C72.9766 26.9245 73.013 27.125 73.0859 27.2656C73.1641 27.401 73.2708 27.4922 73.4062 27.5391C73.5417 27.5859 73.7005 27.6094 73.8828 27.6094C74.013 27.6094 74.138 27.6016 74.2578 27.5859C74.3776 27.5703 74.474 27.5547 74.5469 27.5391L74.5547 28.9766C74.3984 29.0234 74.2161 29.0651 74.0078 29.1016C73.8047 29.138 73.5703 29.1562 73.3047 29.1562C72.8724 29.1562 72.4896 29.0807 72.1562 28.9297C71.8229 28.7734 71.5625 28.5208 71.375 28.1719C71.1875 27.8229 71.0938 27.3594 71.0938 26.7812V18.4766ZM80.7031 27.3047V23.2734C80.7031 22.9714 80.6484 22.7109 80.5391 22.4922C80.4297 22.2734 80.263 22.1042 80.0391 21.9844C79.8203 21.8646 79.5443 21.8047 79.2109 21.8047C78.9036 21.8047 78.638 21.8568 78.4141 21.9609C78.1901 22.0651 78.0156 22.2057 77.8906 22.3828C77.7656 22.5599 77.7031 22.7604 77.7031 22.9844H75.8281C75.8281 22.651 75.9089 22.3281 76.0703 22.0156C76.2318 21.7031 76.4661 21.4245 76.7734 21.1797C77.0807 20.9349 77.4479 20.7422 77.875 20.6016C78.3021 20.4609 78.7812 20.3906 79.3125 20.3906C79.9479 20.3906 80.5104 20.4974 81 20.7109C81.4948 20.9245 81.8828 21.2474 82.1641 21.6797C82.4505 22.1068 82.5938 22.6432 82.5938 23.2891V27.0469C82.5938 27.4323 82.6198 27.7786 82.6719 28.0859C82.7292 28.388 82.8099 28.651 82.9141 28.875V29H80.9844C80.8958 28.7969 80.8255 28.5391 80.7734 28.2266C80.7266 27.9089 80.7031 27.6016 80.7031 27.3047ZM80.9766 23.8594L80.9922 25.0234H79.6406C79.2917 25.0234 78.9844 25.0573 78.7188 25.125C78.4531 25.1875 78.2318 25.2812 78.0547 25.4062C77.8776 25.5312 77.7448 25.6823 77.6562 25.8594C77.5677 26.0365 77.5234 26.237 77.5234 26.4609C77.5234 26.6849 77.5755 26.8906 77.6797 27.0781C77.7839 27.2604 77.9349 27.4036 78.1328 27.5078C78.3359 27.612 78.5807 27.6641 78.8672 27.6641C79.2526 27.6641 79.5885 27.5859 79.875 27.4297C80.1667 27.2682 80.3958 27.0729 80.5625 26.8438C80.7292 26.6094 80.8177 26.388 80.8281 26.1797L81.4375 27.0156C81.375 27.2292 81.2682 27.4583 81.1172 27.7031C80.9661 27.9479 80.7682 28.1823 80.5234 28.4062C80.2839 28.625 79.9948 28.8047 79.6562 28.9453C79.3229 29.0859 78.9375 29.1562 78.5 29.1562C77.9479 29.1562 77.4557 29.0469 77.0234 28.8281C76.5911 28.6042 76.2526 28.3047 76.0078 27.9297C75.763 27.5495 75.6406 27.1198 75.6406 26.6406C75.6406 26.1927 75.724 25.7969 75.8906 25.4531C76.0625 25.1042 76.3125 24.8125 76.6406 24.5781C76.974 24.3438 77.3802 24.1667 77.8594 24.0469C78.3385 23.9219 78.8854 23.8594 79.5 23.8594H80.9766Z" fill="#6855B4"/>
<path d="M96.6222 18.7301L101.122 23.444C101.122 23.4441 101.122 23.4438 101.122 23.444C101.415 23.7508 101.415 24.2487 101.122 24.5556C101.122 24.5559 101.122 24.5561 101.122 24.5564L96.6222 29.2699C96.3293 29.5767 95.8544 29.5767 95.5615 29.2699C95.2686 28.963 95.2686 28.4655 95.5615 28.1587L99.5313 24L95.5615 19.8413C95.2686 19.5345 95.2686 19.037 95.5615 18.7301C95.8544 18.4233 96.3293 18.4233 96.6222 18.7301Z" fill="#6855B4"/>
</svg>
