<svg width="151" height="72" viewBox="0 0 151 72" fill="none" xmlns="http://www.w3.org/2000/svg">
<g filter="url(#filter0_dddd_120_889)">
<rect x="16" y="8" width="119" height="40" rx="4" fill="#EAE9F2"/>
<path d="M39.1406 30.0703C39.1406 29.8359 39.1042 29.6276 39.0312 29.4453C38.9635 29.263 38.8411 29.0964 38.6641 28.9453C38.487 28.7943 38.237 28.6484 37.9141 28.5078C37.5964 28.362 37.1901 28.2135 36.6953 28.0625C36.1536 27.8958 35.6536 27.7109 35.1953 27.5078C34.7422 27.2995 34.3464 27.0599 34.0078 26.7891C33.6693 26.513 33.4062 26.1979 33.2188 25.8438C33.0312 25.4844 32.9375 25.0703 32.9375 24.6016C32.9375 24.138 33.0339 23.7161 33.2266 23.3359C33.4245 22.9557 33.7031 22.6276 34.0625 22.3516C34.4271 22.0703 34.8568 21.8542 35.3516 21.7031C35.8464 21.5469 36.3932 21.4688 36.9922 21.4688C37.8359 21.4688 38.5625 21.625 39.1719 21.9375C39.7865 22.25 40.2578 22.6693 40.5859 23.1953C40.9193 23.7214 41.0859 24.3021 41.0859 24.9375H39.1406C39.1406 24.5625 39.0599 24.2318 38.8984 23.9453C38.7422 23.6536 38.5026 23.4245 38.1797 23.2578C37.862 23.0911 37.4583 23.0078 36.9688 23.0078C36.5052 23.0078 36.1198 23.0781 35.8125 23.2188C35.5052 23.3594 35.276 23.5495 35.125 23.7891C34.974 24.0286 34.8984 24.2995 34.8984 24.6016C34.8984 24.8151 34.9479 25.0104 35.0469 25.1875C35.1458 25.3594 35.2969 25.5208 35.5 25.6719C35.7031 25.8177 35.9583 25.9557 36.2656 26.0859C36.5729 26.2161 36.9349 26.3411 37.3516 26.4609C37.9818 26.6484 38.5312 26.8568 39 27.0859C39.4688 27.3099 39.8594 27.5651 40.1719 27.8516C40.4844 28.138 40.7188 28.4635 40.875 28.8281C41.0312 29.1875 41.1094 29.5964 41.1094 30.0547C41.1094 30.5339 41.013 30.9661 40.8203 31.3516C40.6276 31.7318 40.3516 32.0573 39.9922 32.3281C39.638 32.5938 39.2109 32.7995 38.7109 32.9453C38.2161 33.0859 37.6641 33.1562 37.0547 33.1562C36.5078 33.1562 35.9688 33.0833 35.4375 32.9375C34.9115 32.7917 34.4323 32.5703 34 32.2734C33.5677 31.9714 33.224 31.5964 32.9688 31.1484C32.7135 30.6953 32.5859 30.1667 32.5859 29.5625H34.5469C34.5469 29.9323 34.6094 30.2474 34.7344 30.5078C34.8646 30.7682 35.0443 30.9818 35.2734 31.1484C35.5026 31.3099 35.7682 31.4297 36.0703 31.5078C36.3776 31.5859 36.7057 31.625 37.0547 31.625C37.513 31.625 37.8958 31.5599 38.2031 31.4297C38.5156 31.2995 38.75 31.1172 38.9062 30.8828C39.0625 30.6484 39.1406 30.3776 39.1406 30.0703ZM47.7422 31.0078V24.5469H49.6328V33H47.8516L47.7422 31.0078ZM48.0078 29.25L48.6406 29.2344C48.6406 29.8021 48.5781 30.3255 48.4531 30.8047C48.3281 31.2786 48.1354 31.6927 47.875 32.0469C47.6146 32.3958 47.2812 32.6693 46.875 32.8672C46.4688 33.0599 45.9818 33.1562 45.4141 33.1562C45.0026 33.1562 44.625 33.0964 44.2812 32.9766C43.9375 32.8568 43.6406 32.6719 43.3906 32.4219C43.1458 32.1719 42.9557 31.8464 42.8203 31.4453C42.6849 31.0443 42.6172 30.5651 42.6172 30.0078V24.5469H44.5V30.0234C44.5 30.3307 44.5365 30.5885 44.6094 30.7969C44.6823 31 44.7812 31.1641 44.9062 31.2891C45.0312 31.4141 45.1771 31.5026 45.3438 31.5547C45.5104 31.6068 45.6875 31.6328 45.875 31.6328C46.4115 31.6328 46.8333 31.5286 47.1406 31.3203C47.4531 31.1068 47.6745 30.8203 47.8047 30.4609C47.9401 30.1016 48.0078 29.6979 48.0078 29.25ZM53.4453 26.2656V33H51.5625V24.5469H53.3359L53.4453 26.2656ZM53.1406 28.4609L52.5 28.4531C52.5 27.8698 52.5729 27.3307 52.7188 26.8359C52.8646 26.3411 53.0781 25.9115 53.3594 25.5469C53.6406 25.1771 53.9896 24.8932 54.4062 24.6953C54.8281 24.4922 55.3151 24.3906 55.8672 24.3906C56.2526 24.3906 56.6042 24.4479 56.9219 24.5625C57.2448 24.6719 57.5234 24.8464 57.7578 25.0859C57.9974 25.3255 58.1797 25.6328 58.3047 26.0078C58.4349 26.3828 58.5 26.8359 58.5 27.3672V33H56.6172V27.5312C56.6172 27.1198 56.5547 26.7969 56.4297 26.5625C56.3099 26.3281 56.1354 26.1615 55.9062 26.0625C55.6823 25.9583 55.4141 25.9062 55.1016 25.9062C54.7474 25.9062 54.4453 25.974 54.1953 26.1094C53.9505 26.2448 53.75 26.4297 53.5938 26.6641C53.4375 26.8984 53.3229 27.1693 53.25 27.4766C53.1771 27.7839 53.1406 28.112 53.1406 28.4609ZM58.3828 27.9609L57.5 28.1562C57.5 27.6458 57.5703 27.1641 57.7109 26.7109C57.8568 26.2526 58.0677 25.8516 58.3438 25.5078C58.625 25.1589 58.9714 24.8854 59.3828 24.6875C59.7943 24.4896 60.2656 24.3906 60.7969 24.3906C61.2292 24.3906 61.6146 24.4505 61.9531 24.5703C62.2969 24.6849 62.5885 24.8672 62.8281 25.1172C63.0677 25.3672 63.25 25.6927 63.375 26.0938C63.5 26.4896 63.5625 26.9688 63.5625 27.5312V33H61.6719V27.5234C61.6719 27.0964 61.6094 26.7656 61.4844 26.5312C61.3646 26.2969 61.1927 26.1354 60.9688 26.0469C60.7448 25.9531 60.4766 25.9062 60.1641 25.9062C59.8724 25.9062 59.6146 25.9609 59.3906 26.0703C59.1719 26.1745 58.987 26.3229 58.8359 26.5156C58.6849 26.7031 58.5703 26.9193 58.4922 27.1641C58.4193 27.4089 58.3828 27.6745 58.3828 27.9609ZM67.3828 26.2656V33H65.5V24.5469H67.2734L67.3828 26.2656ZM67.0781 28.4609L66.4375 28.4531C66.4375 27.8698 66.5104 27.3307 66.6562 26.8359C66.8021 26.3411 67.0156 25.9115 67.2969 25.5469C67.5781 25.1771 67.9271 24.8932 68.3438 24.6953C68.7656 24.4922 69.2526 24.3906 69.8047 24.3906C70.1901 24.3906 70.5417 24.4479 70.8594 24.5625C71.1823 24.6719 71.4609 24.8464 71.6953 25.0859C71.9349 25.3255 72.1172 25.6328 72.2422 26.0078C72.3724 26.3828 72.4375 26.8359 72.4375 27.3672V33H70.5547V27.5312C70.5547 27.1198 70.4922 26.7969 70.3672 26.5625C70.2474 26.3281 70.0729 26.1615 69.8438 26.0625C69.6198 25.9583 69.3516 25.9062 69.0391 25.9062C68.6849 25.9062 68.3828 25.974 68.1328 26.1094C67.888 26.2448 67.6875 26.4297 67.5312 26.6641C67.375 26.8984 67.2604 27.1693 67.1875 27.4766C67.1146 27.7839 67.0781 28.112 67.0781 28.4609ZM72.3203 27.9609L71.4375 28.1562C71.4375 27.6458 71.5078 27.1641 71.6484 26.7109C71.7943 26.2526 72.0052 25.8516 72.2812 25.5078C72.5625 25.1589 72.9089 24.8854 73.3203 24.6875C73.7318 24.4896 74.2031 24.3906 74.7344 24.3906C75.1667 24.3906 75.5521 24.4505 75.8906 24.5703C76.2344 24.6849 76.526 24.8672 76.7656 25.1172C77.0052 25.3672 77.1875 25.6927 77.3125 26.0938C77.4375 26.4896 77.5 26.9688 77.5 27.5312V33H75.6094V27.5234C75.6094 27.0964 75.5469 26.7656 75.4219 26.5312C75.3021 26.2969 75.1302 26.1354 74.9062 26.0469C74.6823 25.9531 74.4141 25.9062 74.1016 25.9062C73.8099 25.9062 73.5521 25.9609 73.3281 26.0703C73.1094 26.1745 72.9245 26.3229 72.7734 26.5156C72.6224 26.7031 72.5078 26.9193 72.4297 27.1641C72.3568 27.4089 72.3203 27.6745 72.3203 27.9609ZM84.2031 31.3047V27.2734C84.2031 26.9714 84.1484 26.7109 84.0391 26.4922C83.9297 26.2734 83.763 26.1042 83.5391 25.9844C83.3203 25.8646 83.0443 25.8047 82.7109 25.8047C82.4036 25.8047 82.138 25.8568 81.9141 25.9609C81.6901 26.0651 81.5156 26.2057 81.3906 26.3828C81.2656 26.5599 81.2031 26.7604 81.2031 26.9844H79.3281C79.3281 26.651 79.4089 26.3281 79.5703 26.0156C79.7318 25.7031 79.9661 25.4245 80.2734 25.1797C80.5807 24.9349 80.9479 24.7422 81.375 24.6016C81.8021 24.4609 82.2812 24.3906 82.8125 24.3906C83.4479 24.3906 84.0104 24.4974 84.5 24.7109C84.9948 24.9245 85.3828 25.2474 85.6641 25.6797C85.9505 26.1068 86.0938 26.6432 86.0938 27.2891V31.0469C86.0938 31.4323 86.1198 31.7786 86.1719 32.0859C86.2292 32.388 86.3099 32.651 86.4141 32.875V33H84.4844C84.3958 32.7969 84.3255 32.5391 84.2734 32.2266C84.2266 31.9089 84.2031 31.6016 84.2031 31.3047ZM84.4766 27.8594L84.4922 29.0234H83.1406C82.7917 29.0234 82.4844 29.0573 82.2188 29.125C81.9531 29.1875 81.7318 29.2812 81.5547 29.4062C81.3776 29.5312 81.2448 29.6823 81.1562 29.8594C81.0677 30.0365 81.0234 30.237 81.0234 30.4609C81.0234 30.6849 81.0755 30.8906 81.1797 31.0781C81.2839 31.2604 81.4349 31.4036 81.6328 31.5078C81.8359 31.612 82.0807 31.6641 82.3672 31.6641C82.7526 31.6641 83.0885 31.5859 83.375 31.4297C83.6667 31.2682 83.8958 31.0729 84.0625 30.8438C84.2292 30.6094 84.3177 30.388 84.3281 30.1797L84.9375 31.0156C84.875 31.2292 84.7682 31.4583 84.6172 31.7031C84.4661 31.9479 84.2682 32.1823 84.0234 32.4062C83.7839 32.625 83.4948 32.8047 83.1562 32.9453C82.8229 33.0859 82.4375 33.1562 82 33.1562C81.4479 33.1562 80.9557 33.0469 80.5234 32.8281C80.0911 32.6042 79.7526 32.3047 79.5078 31.9297C79.263 31.5495 79.1406 31.1198 79.1406 30.6406C79.1406 30.1927 79.224 29.7969 79.3906 29.4531C79.5625 29.1042 79.8125 28.8125 80.1406 28.5781C80.474 28.3438 80.8802 28.1667 81.3594 28.0469C81.8385 27.9219 82.3854 27.8594 83 27.8594H84.4766ZM89.9531 26.1562V33H88.0703V24.5469H89.8672L89.9531 26.1562ZM92.5391 24.4922L92.5234 26.2422C92.4089 26.2214 92.2839 26.2057 92.1484 26.1953C92.0182 26.1849 91.888 26.1797 91.7578 26.1797C91.4349 26.1797 91.151 26.2266 90.9062 26.3203C90.6615 26.4089 90.4557 26.5391 90.2891 26.7109C90.1276 26.8776 90.0026 27.0807 89.9141 27.3203C89.8255 27.5599 89.7734 27.8281 89.7578 28.125L89.3281 28.1562C89.3281 27.625 89.3802 27.1328 89.4844 26.6797C89.5885 26.2266 89.7448 25.8281 89.9531 25.4844C90.1667 25.1406 90.4323 24.8724 90.75 24.6797C91.0729 24.487 91.4453 24.3906 91.8672 24.3906C91.9818 24.3906 92.1042 24.401 92.2344 24.4219C92.3698 24.4427 92.4714 24.4661 92.5391 24.4922ZM96.3125 32.0781L98.6094 24.5469H100.625L97.2344 34.2891C97.1562 34.4974 97.0547 34.724 96.9297 34.9688C96.8047 35.2135 96.6406 35.4453 96.4375 35.6641C96.2396 35.888 95.9922 36.0677 95.6953 36.2031C95.3984 36.3438 95.0391 36.4141 94.6172 36.4141C94.4505 36.4141 94.2891 36.3984 94.1328 36.3672C93.9818 36.3411 93.8385 36.3125 93.7031 36.2812L93.6953 34.8438C93.7474 34.849 93.8099 34.8542 93.8828 34.8594C93.9609 34.8646 94.0234 34.8672 94.0703 34.8672C94.3828 34.8672 94.6432 34.8281 94.8516 34.75C95.0599 34.6771 95.2292 34.5573 95.3594 34.3906C95.4948 34.224 95.6094 34 95.7031 33.7188L96.3125 32.0781ZM95.0156 24.5469L97.0234 30.875L97.3594 32.8594L96.0547 33.1953L92.9844 24.5469H95.0156Z" fill="#6855B4"/>
<path d="M110.072 26.2804L114.786 30.7801C114.786 30.7802 114.786 30.78 114.786 30.7801C115.093 31.073 115.591 31.0734 115.897 30.7805C115.898 30.7803 115.898 30.78 115.898 30.7798L120.612 26.2804C120.919 25.9875 120.919 25.5126 120.612 25.2197C120.305 24.9268 119.807 24.9268 119.5 25.2197L115.342 29.1895L111.183 25.2197C110.876 24.9268 110.379 24.9268 110.072 25.2197C109.765 25.5126 109.765 25.9875 110.072 26.2804Z" fill="#6855B4"/>
</g>
<defs>
<filter id="filter0_dddd_120_889" x="0" y="0" width="151" height="72" filterUnits="userSpaceOnUse" color-interpolation-filters="sRGB">
<feFlood flood-opacity="0" result="BackgroundImageFix"/>
<feColorMatrix in="SourceAlpha" type="matrix" values="0 0 0 0 0 0 0 0 0 0 0 0 0 0 0 0 0 0 127 0" result="hardAlpha"/>
<feOffset dy="1"/>
<feGaussianBlur stdDeviation="1"/>
<feColorMatrix type="matrix" values="0 0 0 0 0.129412 0 0 0 0 0.0823529 0 0 0 0 0.317647 0 0 0 0.08 0"/>
<feBlend mode="normal" in2="BackgroundImageFix" result="effect1_dropShadow_120_889"/>
<feColorMatrix in="SourceAlpha" type="matrix" values="0 0 0 0 0 0 0 0 0 0 0 0 0 0 0 0 0 0 127 0" result="hardAlpha"/>
<feOffset dy="2"/>
<feGaussianBlur stdDeviation="2"/>
<feColorMatrix type="matrix" values="0 0 0 0 0.129412 0 0 0 0 0.0823529 0 0 0 0 0.317647 0 0 0 0.12 0"/>
<feBlend mode="normal" in2="effect1_dropShadow_120_889" result="effect2_dropShadow_120_889"/>
<feColorMatrix in="SourceAlpha" type="matrix" values="0 0 0 0 0 0 0 0 0 0 0 0 0 0 0 0 0 0 127 0" result="hardAlpha"/>
<feOffset dy="4"/>
<feGaussianBlur stdDeviation="4"/>
<feColorMatrix type="matrix" values="0 0 0 0 0.129412 0 0 0 0 0.0823529 0 0 0 0 0.317647 0 0 0 0.16 0"/>
<feBlend mode="normal" in2="effect2_dropShadow_120_889" result="effect3_dropShadow_120_889"/>
<feColorMatrix in="SourceAlpha" type="matrix" values="0 0 0 0 0 0 0 0 0 0 0 0 0 0 0 0 0 0 127 0" result="hardAlpha"/>
<feOffset dy="8"/>
<feGaussianBlur stdDeviation="8"/>
<feColorMatrix type="matrix" values="0 0 0 0 0.129412 0 0 0 0 0.0823529 0 0 0 0 0.317647 0 0 0 0.2 0"/>
<feBlend mode="normal" in2="effect3_dropShadow_120_889" result="effect4_dropShadow_120_889"/>
<feBlend mode="normal" in="SourceGraphic" in2="effect4_dropShadow_120_889" result="shape"/>
</filter>
</defs>
</svg>
