<svg width="120" height="48" viewBox="0 0 120 48" fill="none" xmlns="http://www.w3.org/2000/svg">
<rect y="4" width="120" height="40" rx="4" fill="#211551"/>
<path d="M26.2266 23V23.625C26.2266 24.4844 26.1146 25.2552 25.8906 25.9375C25.6667 26.6198 25.3464 27.2005 24.9297 27.6797C24.5182 28.1589 24.0234 28.526 23.4453 28.7812C22.8672 29.0312 22.2266 29.1562 21.5234 29.1562C20.8255 29.1562 20.1875 29.0312 19.6094 28.7812C19.0365 28.526 18.5391 28.1589 18.1172 27.6797C17.6953 27.2005 17.3672 26.6198 17.1328 25.9375C16.9036 25.2552 16.7891 24.4844 16.7891 23.625V23C16.7891 22.1406 16.9036 21.3724 17.1328 20.6953C17.362 20.013 17.6849 19.4323 18.1016 18.9531C18.5234 18.4688 19.0208 18.1016 19.5938 17.8516C20.1719 17.5964 20.8099 17.4688 21.5078 17.4688C22.2109 17.4688 22.8516 17.5964 23.4297 17.8516C24.0078 18.1016 24.5052 18.4688 24.9219 18.9531C25.3385 19.4323 25.6589 20.013 25.8828 20.6953C26.112 21.3724 26.2266 22.1406 26.2266 23ZM24.2656 23.625V22.9844C24.2656 22.349 24.2031 21.7891 24.0781 21.3047C23.9583 20.8151 23.7786 20.4062 23.5391 20.0781C23.3047 19.7448 23.0156 19.4948 22.6719 19.3281C22.3281 19.1562 21.9401 19.0703 21.5078 19.0703C21.0755 19.0703 20.6901 19.1562 20.3516 19.3281C20.013 19.4948 19.724 19.7448 19.4844 20.0781C19.25 20.4062 19.0703 20.8151 18.9453 21.3047C18.8203 21.7891 18.7578 22.349 18.7578 22.9844V23.625C18.7578 24.2604 18.8203 24.8229 18.9453 25.3125C19.0703 25.8021 19.2526 26.2161 19.4922 26.5547C19.737 26.888 20.0286 27.1406 20.3672 27.3125C20.7057 27.4792 21.0911 27.5625 21.5234 27.5625C21.9609 27.5625 22.349 27.4792 22.6875 27.3125C23.026 27.1406 23.3125 26.888 23.5469 26.5547C23.7812 26.2161 23.9583 25.8021 24.0781 25.3125C24.2031 24.8229 24.2656 24.2604 24.2656 23.625ZM29.8906 22.1719V32.25H28.0078V20.5469H29.7422L29.8906 22.1719ZM35.3984 24.6953V24.8594C35.3984 25.474 35.3255 26.0443 35.1797 26.5703C35.0391 27.0911 34.8281 27.5469 34.5469 27.9375C34.2708 28.3229 33.9297 28.6224 33.5234 28.8359C33.1172 29.0495 32.6484 29.1562 32.1172 29.1562C31.5911 29.1562 31.1302 29.0599 30.7344 28.8672C30.3438 28.6693 30.013 28.3906 29.7422 28.0312C29.4714 27.6719 29.2526 27.25 29.0859 26.7656C28.9245 26.276 28.8099 25.7396 28.7422 25.1562V24.5234C28.8099 23.9036 28.9245 23.3411 29.0859 22.8359C29.2526 22.3307 29.4714 21.8958 29.7422 21.5312C30.013 21.1667 30.3438 20.8854 30.7344 20.6875C31.125 20.4896 31.5807 20.3906 32.1016 20.3906C32.6328 20.3906 33.1042 20.4948 33.5156 20.7031C33.9271 20.9062 34.2734 21.1979 34.5547 21.5781C34.8359 21.9531 35.0469 22.4062 35.1875 22.9375C35.3281 23.4635 35.3984 24.0495 35.3984 24.6953ZM33.5156 24.8594V24.6953C33.5156 24.3047 33.4792 23.9427 33.4062 23.6094C33.3333 23.2708 33.2188 22.974 33.0625 22.7188C32.9062 22.4635 32.7057 22.2656 32.4609 22.125C32.2214 21.9792 31.9323 21.9062 31.5938 21.9062C31.2604 21.9062 30.974 21.9635 30.7344 22.0781C30.4948 22.1875 30.2943 22.3411 30.1328 22.5391C29.9714 22.737 29.8464 22.9688 29.7578 23.2344C29.6693 23.4948 29.6068 23.7786 29.5703 24.0859V25.6016C29.6328 25.9766 29.7396 26.3203 29.8906 26.6328C30.0417 26.9453 30.2552 27.1953 30.5312 27.3828C30.8125 27.5651 31.1719 27.6562 31.6094 27.6562C31.9479 27.6562 32.237 27.5833 32.4766 27.4375C32.7161 27.2917 32.9115 27.0911 33.0625 26.8359C33.2188 26.5755 33.3333 26.276 33.4062 25.9375C33.4792 25.599 33.5156 25.2396 33.5156 24.8594ZM41.7422 26.7109C41.7422 26.5234 41.6953 26.3542 41.6016 26.2031C41.5078 26.0469 41.3281 25.9062 41.0625 25.7812C40.8021 25.6562 40.4167 25.5417 39.9062 25.4375C39.4583 25.3385 39.0469 25.2214 38.6719 25.0859C38.3021 24.9453 37.9844 24.776 37.7188 24.5781C37.4531 24.3802 37.2474 24.1458 37.1016 23.875C36.9557 23.6042 36.8828 23.2917 36.8828 22.9375C36.8828 22.5938 36.9583 22.2682 37.1094 21.9609C37.2604 21.6536 37.4766 21.3828 37.7578 21.1484C38.0391 20.9141 38.3802 20.7292 38.7812 20.5938C39.1875 20.4583 39.6406 20.3906 40.1406 20.3906C40.849 20.3906 41.4557 20.5104 41.9609 20.75C42.4714 20.9844 42.862 21.3047 43.1328 21.7109C43.4036 22.112 43.5391 22.5651 43.5391 23.0703H41.6562C41.6562 22.8464 41.599 22.638 41.4844 22.4453C41.375 22.2474 41.2083 22.0885 40.9844 21.9688C40.7604 21.8438 40.4792 21.7812 40.1406 21.7812C39.8177 21.7812 39.5495 21.8333 39.3359 21.9375C39.1276 22.0365 38.9714 22.1667 38.8672 22.3281C38.7682 22.4896 38.7188 22.6667 38.7188 22.8594C38.7188 23 38.7448 23.1276 38.7969 23.2422C38.8542 23.3516 38.9479 23.4531 39.0781 23.5469C39.2083 23.6354 39.3854 23.7188 39.6094 23.7969C39.8385 23.875 40.125 23.9505 40.4688 24.0234C41.1146 24.1589 41.6693 24.3333 42.1328 24.5469C42.6016 24.7552 42.9609 25.026 43.2109 25.3594C43.4609 25.6875 43.5859 26.1042 43.5859 26.6094C43.5859 26.9844 43.5052 27.3281 43.3438 27.6406C43.1875 27.9479 42.9583 28.2161 42.6562 28.4453C42.3542 28.6693 41.9922 28.8438 41.5703 28.9688C41.1536 29.0938 40.6849 29.1562 40.1641 29.1562C39.3984 29.1562 38.75 29.0208 38.2188 28.75C37.6875 28.474 37.2839 28.1224 37.0078 27.6953C36.737 27.263 36.6016 26.8151 36.6016 26.3516H38.4219C38.4427 26.7005 38.5391 26.9792 38.7109 27.1875C38.888 27.3906 39.1068 27.5391 39.3672 27.6328C39.6328 27.7214 39.9062 27.7656 40.1875 27.7656C40.526 27.7656 40.8099 27.7214 41.0391 27.6328C41.2682 27.5391 41.4427 27.4141 41.5625 27.2578C41.6823 27.0964 41.7422 26.9141 41.7422 26.7109ZM52.7109 29H50.2812L50.2969 27.4453H52.7109C53.4141 27.4453 54.0026 27.2917 54.4766 26.9844C54.9557 26.6771 55.3151 26.237 55.5547 25.6641C55.7995 25.0911 55.9219 24.4089 55.9219 23.6172V23C55.9219 22.3854 55.8516 21.8411 55.7109 21.3672C55.5755 20.8932 55.3724 20.4948 55.1016 20.1719C54.8359 19.849 54.5078 19.6042 54.1172 19.4375C53.7318 19.2708 53.2865 19.1875 52.7812 19.1875H50.2344V17.625H52.7812C53.5365 17.625 54.2266 17.7526 54.8516 18.0078C55.4766 18.2578 56.0156 18.6198 56.4688 19.0938C56.9271 19.5677 57.2786 20.1354 57.5234 20.7969C57.7682 21.4583 57.8906 22.1979 57.8906 23.0156V23.6172C57.8906 24.4349 57.7682 25.1745 57.5234 25.8359C57.2786 26.4974 56.9271 27.0651 56.4688 27.5391C56.0104 28.0078 55.4635 28.3698 54.8281 28.625C54.1979 28.875 53.4922 29 52.7109 29ZM51.3672 17.625V29H49.4062V17.625H51.3672ZM64.4375 27.3047V23.2734C64.4375 22.9714 64.3828 22.7109 64.2734 22.4922C64.1641 22.2734 63.9974 22.1042 63.7734 21.9844C63.5547 21.8646 63.2786 21.8047 62.9453 21.8047C62.638 21.8047 62.3724 21.8568 62.1484 21.9609C61.9245 22.0651 61.75 22.2057 61.625 22.3828C61.5 22.5599 61.4375 22.7604 61.4375 22.9844H59.5625C59.5625 22.651 59.6432 22.3281 59.8047 22.0156C59.9661 21.7031 60.2005 21.4245 60.5078 21.1797C60.8151 20.9349 61.1823 20.7422 61.6094 20.6016C62.0365 20.4609 62.5156 20.3906 63.0469 20.3906C63.6823 20.3906 64.2448 20.4974 64.7344 20.7109C65.2292 20.9245 65.6172 21.2474 65.8984 21.6797C66.1849 22.1068 66.3281 22.6432 66.3281 23.2891V27.0469C66.3281 27.4323 66.3542 27.7786 66.4062 28.0859C66.4635 28.388 66.5443 28.651 66.6484 28.875V29H64.7188C64.6302 28.7969 64.5599 28.5391 64.5078 28.2266C64.4609 27.9089 64.4375 27.6016 64.4375 27.3047ZM64.7109 23.8594L64.7266 25.0234H63.375C63.026 25.0234 62.7188 25.0573 62.4531 25.125C62.1875 25.1875 61.9661 25.2812 61.7891 25.4062C61.612 25.5312 61.4792 25.6823 61.3906 25.8594C61.3021 26.0365 61.2578 26.237 61.2578 26.4609C61.2578 26.6849 61.3099 26.8906 61.4141 27.0781C61.5182 27.2604 61.6693 27.4036 61.8672 27.5078C62.0703 27.612 62.3151 27.6641 62.6016 27.6641C62.987 27.6641 63.3229 27.5859 63.6094 27.4297C63.901 27.2682 64.1302 27.0729 64.2969 26.8438C64.4635 26.6094 64.5521 26.388 64.5625 26.1797L65.1719 27.0156C65.1094 27.2292 65.0026 27.4583 64.8516 27.7031C64.7005 27.9479 64.5026 28.1823 64.2578 28.4062C64.0182 28.625 63.7292 28.8047 63.3906 28.9453C63.0573 29.0859 62.6719 29.1562 62.2344 29.1562C61.6823 29.1562 61.1901 29.0469 60.7578 28.8281C60.3255 28.6042 59.987 28.3047 59.7422 27.9297C59.4974 27.5495 59.375 27.1198 59.375 26.6406C59.375 26.1927 59.4583 25.7969 59.625 25.4531C59.7969 25.1042 60.0469 24.8125 60.375 24.5781C60.7083 24.3438 61.1146 24.1667 61.5938 24.0469C62.0729 23.9219 62.6198 23.8594 63.2344 23.8594H64.7109ZM72.1719 20.5469V21.9219H67.4062V20.5469H72.1719ZM68.7812 18.4766H70.6641V26.6641C70.6641 26.9245 70.7005 27.125 70.7734 27.2656C70.8516 27.401 70.9583 27.4922 71.0938 27.5391C71.2292 27.5859 71.388 27.6094 71.5703 27.6094C71.7005 27.6094 71.8255 27.6016 71.9453 27.5859C72.0651 27.5703 72.1615 27.5547 72.2344 27.5391L72.2422 28.9766C72.0859 29.0234 71.9036 29.0651 71.6953 29.1016C71.4922 29.138 71.2578 29.1562 70.9922 29.1562C70.5599 29.1562 70.1771 29.0807 69.8438 28.9297C69.5104 28.7734 69.25 28.5208 69.0625 28.1719C68.875 27.8229 68.7812 27.3594 68.7812 26.7812V18.4766ZM78.3906 27.3047V23.2734C78.3906 22.9714 78.3359 22.7109 78.2266 22.4922C78.1172 22.2734 77.9505 22.1042 77.7266 21.9844C77.5078 21.8646 77.2318 21.8047 76.8984 21.8047C76.5911 21.8047 76.3255 21.8568 76.1016 21.9609C75.8776 22.0651 75.7031 22.2057 75.5781 22.3828C75.4531 22.5599 75.3906 22.7604 75.3906 22.9844H73.5156C73.5156 22.651 73.5964 22.3281 73.7578 22.0156C73.9193 21.7031 74.1536 21.4245 74.4609 21.1797C74.7682 20.9349 75.1354 20.7422 75.5625 20.6016C75.9896 20.4609 76.4688 20.3906 77 20.3906C77.6354 20.3906 78.1979 20.4974 78.6875 20.7109C79.1823 20.9245 79.5703 21.2474 79.8516 21.6797C80.138 22.1068 80.2812 22.6432 80.2812 23.2891V27.0469C80.2812 27.4323 80.3073 27.7786 80.3594 28.0859C80.4167 28.388 80.4974 28.651 80.6016 28.875V29H78.6719C78.5833 28.7969 78.513 28.5391 78.4609 28.2266C78.4141 27.9089 78.3906 27.6016 78.3906 27.3047ZM78.6641 23.8594L78.6797 25.0234H77.3281C76.9792 25.0234 76.6719 25.0573 76.4062 25.125C76.1406 25.1875 75.9193 25.2812 75.7422 25.4062C75.5651 25.5312 75.4323 25.6823 75.3438 25.8594C75.2552 26.0365 75.2109 26.237 75.2109 26.4609C75.2109 26.6849 75.263 26.8906 75.3672 27.0781C75.4714 27.2604 75.6224 27.4036 75.8203 27.5078C76.0234 27.612 76.2682 27.6641 76.5547 27.6641C76.9401 27.6641 77.276 27.5859 77.5625 27.4297C77.8542 27.2682 78.0833 27.0729 78.25 26.8438C78.4167 26.6094 78.5052 26.388 78.5156 26.1797L79.125 27.0156C79.0625 27.2292 78.9557 27.4583 78.8047 27.7031C78.6536 27.9479 78.4557 28.1823 78.2109 28.4062C77.9714 28.625 77.6823 28.8047 77.3438 28.9453C77.0104 29.0859 76.625 29.1562 76.1875 29.1562C75.6354 29.1562 75.1432 29.0469 74.7109 28.8281C74.2786 28.6042 73.9401 28.3047 73.6953 27.9297C73.4505 27.5495 73.3281 27.1198 73.3281 26.6406C73.3281 26.1927 73.4115 25.7969 73.5781 25.4531C73.75 25.1042 74 24.8125 74.3281 24.5781C74.6615 24.3438 75.0677 24.1667 75.5469 24.0469C76.026 23.9219 76.5729 23.8594 77.1875 23.8594H78.6641Z" fill="white"/>
<path d="M91.0719 22.2804L95.7858 26.7801C95.7859 26.7802 95.7856 26.78 95.7858 26.7801C96.0926 27.073 96.5905 27.0734 96.8974 26.7805C96.8976 26.7803 96.8979 26.78 96.8982 26.7798L101.612 22.2804C101.919 21.9875 101.919 21.5126 101.612 21.2197C101.305 20.9268 100.807 20.9268 100.5 21.2197L96.3418 25.1895L92.1831 21.2197C91.8763 20.9268 91.3788 20.9268 91.0719 21.2197C90.7651 21.5126 90.7651 21.9875 91.0719 22.2804Z" fill="white"/>
</svg>
